<svg width="227" height="74" viewBox="0 0 227 74" fill="none" xmlns="http://www.w3.org/2000/svg">
<rect y="7" width="227" height="67" rx="10" fill="black"/>
<path d="M67.3711 39.5615L60.3105 59H57.4248L65.5547 37.6719H67.415L67.3711 39.5615ZM73.2891 59L66.2139 39.5615L66.1699 37.6719H68.0303L76.1895 59H73.2891ZM72.9229 51.1045V53.4189H60.9404V51.1045H72.9229ZM81.3457 46.1973V65.0938H78.6211V43.1504H81.1113L81.3457 46.1973ZM92.0244 50.9434V51.251C92.0244 52.4033 91.8877 53.4727 91.6143 54.459C91.3408 55.4355 90.9404 56.2852 90.4131 57.0078C89.8955 57.7305 89.2559 58.292 88.4941 58.6924C87.7324 59.0928 86.8584 59.293 85.8721 59.293C84.8662 59.293 83.9775 59.127 83.2061 58.7949C82.4346 58.4629 81.7803 57.9795 81.2432 57.3447C80.7061 56.71 80.2764 55.9482 79.9541 55.0596C79.6416 54.1709 79.4268 53.1699 79.3096 52.0566V50.416C79.4268 49.2441 79.6465 48.1943 79.9688 47.2666C80.291 46.3389 80.7158 45.5479 81.2432 44.8936C81.7803 44.2295 82.4297 43.7266 83.1914 43.3848C83.9531 43.0332 84.832 42.8574 85.8281 42.8574C86.8242 42.8574 87.708 43.0527 88.4795 43.4434C89.251 43.8242 89.9004 44.3711 90.4277 45.084C90.9551 45.7969 91.3506 46.6514 91.6143 47.6475C91.8877 48.6338 92.0244 49.7324 92.0244 50.9434ZM89.2998 51.251V50.9434C89.2998 50.1523 89.2168 49.4102 89.0508 48.7168C88.8848 48.0137 88.626 47.3984 88.2744 46.8711C87.9326 46.334 87.4932 45.9141 86.9561 45.6113C86.4189 45.2988 85.7793 45.1426 85.0371 45.1426C84.3535 45.1426 83.7578 45.2598 83.25 45.4941C82.752 45.7285 82.3271 46.0459 81.9756 46.4463C81.624 46.8369 81.3359 47.2861 81.1113 47.7939C80.8965 48.292 80.7354 48.8096 80.6279 49.3467V53.1406C80.8232 53.8242 81.0967 54.4688 81.4482 55.0742C81.7998 55.6699 82.2686 56.1533 82.8545 56.5244C83.4404 56.8857 84.1777 57.0664 85.0664 57.0664C85.7988 57.0664 86.4287 56.915 86.9561 56.6123C87.4932 56.2998 87.9326 55.875 88.2744 55.3379C88.626 54.8008 88.8848 54.1855 89.0508 53.4922C89.2168 52.7891 89.2998 52.042 89.2998 51.251ZM98.1914 46.1973V65.0938H95.4668V43.1504H97.957L98.1914 46.1973ZM108.87 50.9434V51.251C108.87 52.4033 108.733 53.4727 108.46 54.459C108.187 55.4355 107.786 56.2852 107.259 57.0078C106.741 57.7305 106.102 58.292 105.34 58.6924C104.578 59.0928 103.704 59.293 102.718 59.293C101.712 59.293 100.823 59.127 100.052 58.7949C99.2803 58.4629 98.626 57.9795 98.0889 57.3447C97.5518 56.71 97.1221 55.9482 96.7998 55.0596C96.4873 54.1709 96.2725 53.1699 96.1553 52.0566V50.416C96.2725 49.2441 96.4922 48.1943 96.8145 47.2666C97.1367 46.3389 97.5615 45.5479 98.0889 44.8936C98.626 44.2295 99.2754 43.7266 100.037 43.3848C100.799 43.0332 101.678 42.8574 102.674 42.8574C103.67 42.8574 104.554 43.0527 105.325 43.4434C106.097 43.8242 106.746 44.3711 107.273 45.084C107.801 45.7969 108.196 46.6514 108.46 47.6475C108.733 48.6338 108.87 49.7324 108.87 50.9434ZM106.146 51.251V50.9434C106.146 50.1523 106.062 49.4102 105.896 48.7168C105.73 48.0137 105.472 47.3984 105.12 46.8711C104.778 46.334 104.339 45.9141 103.802 45.6113C103.265 45.2988 102.625 45.1426 101.883 45.1426C101.199 45.1426 100.604 45.2598 100.096 45.4941C99.5977 45.7285 99.1729 46.0459 98.8213 46.4463C98.4697 46.8369 98.1816 47.2861 97.957 47.7939C97.7422 48.292 97.5811 48.8096 97.4736 49.3467V53.1406C97.6689 53.8242 97.9424 54.4688 98.2939 55.0742C98.6455 55.6699 99.1143 56.1533 99.7002 56.5244C100.286 56.8857 101.023 57.0664 101.912 57.0664C102.645 57.0664 103.274 56.915 103.802 56.6123C104.339 56.2998 104.778 55.875 105.12 55.3379C105.472 54.8008 105.73 54.1855 105.896 53.4922C106.062 52.7891 106.146 52.042 106.146 51.251ZM131.546 53.6094C131.546 53.1113 131.468 52.6719 131.312 52.291C131.165 51.9004 130.901 51.5488 130.521 51.2363C130.149 50.9238 129.632 50.626 128.968 50.3428C128.313 50.0596 127.483 49.7715 126.478 49.4785C125.423 49.166 124.471 48.8193 123.621 48.4385C122.771 48.0479 122.044 47.6035 121.438 47.1055C120.833 46.6074 120.369 46.0361 120.047 45.3916C119.725 44.7471 119.563 44.0098 119.563 43.1797C119.563 42.3496 119.734 41.583 120.076 40.8799C120.418 40.1768 120.906 39.5664 121.541 39.0488C122.186 38.5215 122.952 38.1113 123.841 37.8184C124.729 37.5254 125.721 37.3789 126.814 37.3789C128.416 37.3789 129.773 37.6865 130.887 38.3018C132.01 38.9072 132.864 39.7031 133.45 40.6895C134.036 41.666 134.329 42.7109 134.329 43.8242H131.517C131.517 43.0234 131.346 42.3154 131.004 41.7002C130.662 41.0752 130.145 40.5869 129.451 40.2354C128.758 39.874 127.879 39.6934 126.814 39.6934C125.809 39.6934 124.979 39.8447 124.324 40.1475C123.67 40.4502 123.182 40.8604 122.859 41.3779C122.547 41.8955 122.391 42.4863 122.391 43.1504C122.391 43.5996 122.483 44.0098 122.669 44.3809C122.864 44.7422 123.162 45.0791 123.562 45.3916C123.973 45.7041 124.49 45.9922 125.115 46.2559C125.75 46.5195 126.507 46.7734 127.386 47.0176C128.597 47.3594 129.642 47.7402 130.521 48.1602C131.399 48.5801 132.122 49.0537 132.688 49.5811C133.265 50.0986 133.689 50.6895 133.963 51.3535C134.246 52.0078 134.388 52.75 134.388 53.5801C134.388 54.4492 134.212 55.2354 133.86 55.9385C133.509 56.6416 133.006 57.2422 132.352 57.7402C131.697 58.2383 130.911 58.624 129.993 58.8975C129.085 59.1611 128.069 59.293 126.946 59.293C125.96 59.293 124.988 59.1562 124.031 58.8828C123.084 58.6094 122.22 58.1992 121.438 57.6523C120.667 57.1055 120.047 56.4316 119.578 55.6309C119.119 54.8203 118.89 53.8828 118.89 52.8184H121.702C121.702 53.5508 121.844 54.1807 122.127 54.708C122.41 55.2256 122.796 55.6553 123.284 55.9971C123.782 56.3389 124.344 56.5928 124.969 56.7588C125.604 56.915 126.263 56.9932 126.946 56.9932C127.933 56.9932 128.768 56.8564 129.451 56.583C130.135 56.3096 130.652 55.9189 131.004 55.4111C131.365 54.9033 131.546 54.3027 131.546 53.6094ZM144.217 43.1504V45.2305H135.647V43.1504H144.217ZM138.548 39.2979H141.258V55.0742C141.258 55.6113 141.341 56.0166 141.507 56.29C141.673 56.5635 141.888 56.7441 142.151 56.832C142.415 56.9199 142.698 56.9639 143.001 56.9639C143.226 56.9639 143.46 56.9443 143.704 56.9053C143.958 56.8564 144.148 56.8174 144.275 56.7881L144.29 59C144.075 59.0684 143.792 59.1318 143.44 59.1904C143.099 59.2588 142.684 59.293 142.195 59.293C141.531 59.293 140.921 59.1611 140.364 58.8975C139.808 58.6338 139.363 58.1943 139.031 57.5791C138.709 56.9541 138.548 56.1143 138.548 55.0596V39.2979ZM146.385 51.251V50.9141C146.385 49.7715 146.551 48.7119 146.883 47.7354C147.215 46.749 147.693 45.8945 148.318 45.1719C148.943 44.4395 149.7 43.873 150.589 43.4727C151.478 43.0625 152.474 42.8574 153.577 42.8574C154.69 42.8574 155.691 43.0625 156.58 43.4727C157.479 43.873 158.24 44.4395 158.865 45.1719C159.5 45.8945 159.983 46.749 160.315 47.7354C160.647 48.7119 160.813 49.7715 160.813 50.9141V51.251C160.813 52.3936 160.647 53.4531 160.315 54.4297C159.983 55.4062 159.5 56.2607 158.865 56.9932C158.24 57.7158 157.483 58.2822 156.595 58.6924C155.716 59.0928 154.72 59.293 153.606 59.293C152.493 59.293 151.492 59.0928 150.604 58.6924C149.715 58.2822 148.953 57.7158 148.318 56.9932C147.693 56.2607 147.215 55.4062 146.883 54.4297C146.551 53.4531 146.385 52.3936 146.385 51.251ZM149.095 50.9141V51.251C149.095 52.042 149.188 52.7891 149.373 53.4922C149.559 54.1855 149.837 54.8008 150.208 55.3379C150.589 55.875 151.062 56.2998 151.629 56.6123C152.195 56.915 152.854 57.0664 153.606 57.0664C154.349 57.0664 154.998 56.915 155.555 56.6123C156.121 56.2998 156.59 55.875 156.961 55.3379C157.332 54.8008 157.61 54.1855 157.796 53.4922C157.991 52.7891 158.089 52.042 158.089 51.251V50.9141C158.089 50.1328 157.991 49.3955 157.796 48.7021C157.61 47.999 157.327 47.3789 156.946 46.8418C156.575 46.2949 156.106 45.8652 155.54 45.5527C154.983 45.2402 154.329 45.084 153.577 45.084C152.835 45.084 152.181 45.2402 151.614 45.5527C151.058 45.8652 150.589 46.2949 150.208 46.8418C149.837 47.3789 149.559 47.999 149.373 48.7021C149.188 49.3955 149.095 50.1328 149.095 50.9141ZM166.922 45.6406V59H164.212V43.1504H166.849L166.922 45.6406ZM171.873 43.0625L171.858 45.582C171.634 45.5332 171.419 45.5039 171.214 45.4941C171.019 45.4746 170.794 45.4648 170.54 45.4648C169.915 45.4648 169.363 45.5625 168.885 45.7578C168.406 45.9531 168.001 46.2266 167.669 46.5781C167.337 46.9297 167.073 47.3496 166.878 47.8379C166.692 48.3164 166.57 48.8438 166.512 49.4199L165.75 49.8594C165.75 48.9023 165.843 48.0039 166.028 47.1641C166.224 46.3242 166.521 45.582 166.922 44.9375C167.322 44.2832 167.83 43.7754 168.445 43.4141C169.07 43.043 169.812 42.8574 170.672 42.8574C170.867 42.8574 171.092 42.8818 171.346 42.9307C171.6 42.9697 171.775 43.0137 171.873 43.0625ZM180.662 59.293C179.559 59.293 178.558 59.1074 177.659 58.7363C176.771 58.3555 176.004 57.8232 175.359 57.1396C174.725 56.4561 174.236 55.6455 173.895 54.708C173.553 53.7705 173.382 52.7451 173.382 51.6318V51.0166C173.382 49.7275 173.572 48.5801 173.953 47.5742C174.334 46.5586 174.852 45.6992 175.506 44.9961C176.16 44.293 176.902 43.7607 177.732 43.3994C178.562 43.0381 179.422 42.8574 180.311 42.8574C181.443 42.8574 182.42 43.0527 183.24 43.4434C184.07 43.834 184.749 44.3809 185.276 45.084C185.804 45.7773 186.194 46.5977 186.448 47.5449C186.702 48.4824 186.829 49.5078 186.829 50.6211V51.8369H174.993V49.625H184.119V49.4199C184.08 48.7168 183.934 48.0332 183.68 47.3691C183.436 46.7051 183.045 46.1582 182.508 45.7285C181.971 45.2988 181.238 45.084 180.311 45.084C179.695 45.084 179.129 45.2158 178.611 45.4795C178.094 45.7334 177.649 46.1143 177.278 46.6221C176.907 47.1299 176.619 47.75 176.414 48.4824C176.209 49.2148 176.106 50.0596 176.106 51.0166V51.6318C176.106 52.3838 176.209 53.0918 176.414 53.7559C176.629 54.4102 176.937 54.9863 177.337 55.4844C177.747 55.9824 178.24 56.373 178.816 56.6562C179.402 56.9395 180.066 57.0811 180.809 57.0811C181.766 57.0811 182.576 56.8857 183.24 56.4951C183.904 56.1045 184.485 55.582 184.983 54.9277L186.624 56.2314C186.282 56.749 185.848 57.2422 185.32 57.7109C184.793 58.1797 184.144 58.5605 183.372 58.8535C182.61 59.1465 181.707 59.293 180.662 59.293Z" fill="white"/>
<path d="M63.1235 30H60.897L60.9116 28.8501H63.1235C63.8853 28.8501 64.52 28.6914 65.0278 28.374C65.5356 28.0518 65.9165 27.6025 66.1704 27.0264C66.4292 26.4453 66.5586 25.7666 66.5586 24.9902V24.3384C66.5586 23.728 66.4854 23.186 66.3389 22.7124C66.1924 22.2339 65.9775 21.8311 65.6943 21.5039C65.4111 21.1719 65.0645 20.9204 64.6543 20.7495C64.249 20.5786 63.7827 20.4932 63.2554 20.4932H60.853V19.3359H63.2554C63.9536 19.3359 64.5908 19.4531 65.167 19.6875C65.7432 19.917 66.2388 20.2515 66.6538 20.6909C67.0737 21.1255 67.396 21.6528 67.6206 22.2729C67.8452 22.8882 67.9575 23.5815 67.9575 24.353V24.9902C67.9575 25.7617 67.8452 26.4575 67.6206 27.0776C67.396 27.6929 67.0713 28.2178 66.6465 28.6523C66.2266 29.0869 65.7188 29.4214 65.123 29.6558C64.5322 29.8853 63.8657 30 63.1235 30ZM61.6514 19.3359V30H60.2378V19.3359H61.6514ZM69.5176 26.1255V25.957C69.5176 25.3857 69.6006 24.856 69.7666 24.3677C69.9326 23.8745 70.1719 23.4473 70.4844 23.0859C70.7969 22.7197 71.1753 22.4365 71.6196 22.2363C72.064 22.0312 72.562 21.9287 73.1138 21.9287C73.6704 21.9287 74.1709 22.0312 74.6152 22.2363C75.0645 22.4365 75.4453 22.7197 75.7578 23.0859C76.0752 23.4473 76.3169 23.8745 76.4829 24.3677C76.6489 24.856 76.7319 25.3857 76.7319 25.957V26.1255C76.7319 26.6968 76.6489 27.2266 76.4829 27.7148C76.3169 28.2031 76.0752 28.6304 75.7578 28.9966C75.4453 29.3579 75.0669 29.6411 74.6226 29.8462C74.1831 30.0464 73.6851 30.1465 73.1284 30.1465C72.5718 30.1465 72.0713 30.0464 71.627 29.8462C71.1826 29.6411 70.8018 29.3579 70.4844 28.9966C70.1719 28.6304 69.9326 28.2031 69.7666 27.7148C69.6006 27.2266 69.5176 26.6968 69.5176 26.1255ZM70.8726 25.957V26.1255C70.8726 26.521 70.9189 26.8945 71.0117 27.2461C71.1045 27.5928 71.2437 27.9004 71.4292 28.1689C71.6196 28.4375 71.8564 28.6499 72.1396 28.8062C72.4229 28.9575 72.7524 29.0332 73.1284 29.0332C73.4995 29.0332 73.8242 28.9575 74.1025 28.8062C74.3857 28.6499 74.6201 28.4375 74.8057 28.1689C74.9912 27.9004 75.1304 27.5928 75.2231 27.2461C75.3208 26.8945 75.3696 26.521 75.3696 26.1255V25.957C75.3696 25.5664 75.3208 25.1978 75.2231 24.8511C75.1304 24.4995 74.9888 24.1895 74.7983 23.9209C74.6128 23.6475 74.3784 23.4326 74.0952 23.2764C73.8169 23.1201 73.4897 23.042 73.1138 23.042C72.7427 23.042 72.4155 23.1201 72.1323 23.2764C71.854 23.4326 71.6196 23.6475 71.4292 23.9209C71.2437 24.1895 71.1045 24.4995 71.0117 24.8511C70.9189 25.1978 70.8726 25.5664 70.8726 25.957ZM80.438 28.5938L82.4741 22.0752H83.3677L83.1919 23.3716L81.1191 30H80.2476L80.438 28.5938ZM79.0684 22.0752L80.8042 28.667L80.9287 30H80.0132L77.7134 22.0752H79.0684ZM85.3159 28.6157L86.9712 22.0752H88.3188L86.019 30H85.1108L85.3159 28.6157ZM83.5654 22.0752L85.5576 28.4839L85.7847 30H84.9204L82.7891 23.3569L82.6133 22.0752H83.5654ZM91.0654 23.7671V30H89.7104V22.0752H90.9922L91.0654 23.7671ZM90.7432 25.7373L90.1792 25.7153C90.1841 25.1733 90.2646 24.6729 90.4209 24.2139C90.5771 23.75 90.7969 23.3472 91.0801 23.0054C91.3633 22.6636 91.7002 22.3999 92.0908 22.2144C92.4863 22.0239 92.9233 21.9287 93.4019 21.9287C93.7925 21.9287 94.144 21.9824 94.4565 22.0898C94.769 22.1924 95.0352 22.3584 95.2549 22.5879C95.4795 22.8174 95.6504 23.1152 95.7676 23.4814C95.8848 23.8428 95.9434 24.2847 95.9434 24.8071V30H94.5811V24.7925C94.5811 24.3774 94.52 24.0454 94.3979 23.7964C94.2759 23.5425 94.0977 23.3594 93.8633 23.2471C93.6289 23.1299 93.3408 23.0713 92.999 23.0713C92.6621 23.0713 92.3545 23.1421 92.0762 23.2837C91.8027 23.4253 91.5659 23.6206 91.3657 23.8696C91.1704 24.1187 91.0166 24.4043 90.9043 24.7266C90.7969 25.0439 90.7432 25.3809 90.7432 25.7373ZM99.4736 18.75V30H98.1113V18.75H99.4736ZM101.29 26.1255V25.957C101.29 25.3857 101.373 24.856 101.539 24.3677C101.705 23.8745 101.944 23.4473 102.257 23.0859C102.569 22.7197 102.948 22.4365 103.392 22.2363C103.836 22.0312 104.334 21.9287 104.886 21.9287C105.443 21.9287 105.943 22.0312 106.388 22.2363C106.837 22.4365 107.218 22.7197 107.53 23.0859C107.848 23.4473 108.089 23.8745 108.255 24.3677C108.421 24.856 108.504 25.3857 108.504 25.957V26.1255C108.504 26.6968 108.421 27.2266 108.255 27.7148C108.089 28.2031 107.848 28.6304 107.53 28.9966C107.218 29.3579 106.839 29.6411 106.395 29.8462C105.956 30.0464 105.458 30.1465 104.901 30.1465C104.344 30.1465 103.844 30.0464 103.399 29.8462C102.955 29.6411 102.574 29.3579 102.257 28.9966C101.944 28.6304 101.705 28.2031 101.539 27.7148C101.373 27.2266 101.29 26.6968 101.29 26.1255ZM102.645 25.957V26.1255C102.645 26.521 102.691 26.8945 102.784 27.2461C102.877 27.5928 103.016 27.9004 103.202 28.1689C103.392 28.4375 103.629 28.6499 103.912 28.8062C104.195 28.9575 104.525 29.0332 104.901 29.0332C105.272 29.0332 105.597 28.9575 105.875 28.8062C106.158 28.6499 106.393 28.4375 106.578 28.1689C106.764 27.9004 106.903 27.5928 106.996 27.2461C107.093 26.8945 107.142 26.521 107.142 26.1255V25.957C107.142 25.5664 107.093 25.1978 106.996 24.8511C106.903 24.4995 106.761 24.1895 106.571 23.9209C106.385 23.6475 106.151 23.4326 105.868 23.2764C105.589 23.1201 105.262 23.042 104.886 23.042C104.515 23.042 104.188 23.1201 103.905 23.2764C103.626 23.4326 103.392 23.6475 103.202 23.9209C103.016 24.1895 102.877 24.4995 102.784 24.8511C102.691 25.1978 102.645 25.5664 102.645 25.957ZM114.876 28.645V24.5654C114.876 24.2529 114.813 23.9819 114.686 23.7524C114.564 23.5181 114.378 23.3374 114.129 23.2104C113.88 23.0835 113.573 23.02 113.207 23.02C112.865 23.02 112.564 23.0786 112.306 23.1958C112.052 23.313 111.852 23.4668 111.705 23.6572C111.563 23.8477 111.493 24.0527 111.493 24.2725H110.138C110.138 23.9893 110.211 23.7085 110.357 23.4302C110.504 23.1519 110.714 22.9004 110.987 22.6758C111.266 22.4463 111.598 22.2656 111.983 22.1338C112.374 21.9971 112.809 21.9287 113.287 21.9287C113.863 21.9287 114.371 22.0264 114.811 22.2217C115.255 22.417 115.602 22.7124 115.851 23.1079C116.104 23.4985 116.231 23.9893 116.231 24.5801V28.2715C116.231 28.5352 116.253 28.8159 116.297 29.1138C116.346 29.4116 116.417 29.668 116.51 29.8828V30H115.096C115.028 29.8438 114.974 29.6362 114.935 29.3774C114.896 29.1138 114.876 28.8696 114.876 28.645ZM115.111 25.1953L115.125 26.1475H113.756C113.37 26.1475 113.026 26.1792 112.723 26.2427C112.42 26.3013 112.167 26.3916 111.961 26.5137C111.756 26.6357 111.6 26.7896 111.493 26.9751C111.385 27.1558 111.332 27.3682 111.332 27.6123C111.332 27.8613 111.388 28.0884 111.5 28.2935C111.612 28.4985 111.781 28.6621 112.005 28.7842C112.235 28.9014 112.516 28.96 112.848 28.96C113.263 28.96 113.629 28.8721 113.946 28.6963C114.264 28.5205 114.515 28.3057 114.701 28.0518C114.891 27.7979 114.994 27.5513 115.008 27.312L115.587 27.9639C115.553 28.1689 115.46 28.396 115.309 28.645C115.157 28.894 114.955 29.1333 114.701 29.3628C114.452 29.5874 114.154 29.7754 113.807 29.9268C113.465 30.0732 113.08 30.1465 112.65 30.1465C112.113 30.1465 111.642 30.0415 111.236 29.8315C110.836 29.6216 110.523 29.3408 110.299 28.9893C110.079 28.6328 109.969 28.2349 109.969 27.7954C109.969 27.3706 110.052 26.9971 110.218 26.6748C110.384 26.3477 110.624 26.0767 110.936 25.8618C111.249 25.6421 111.625 25.4761 112.064 25.3638C112.503 25.2515 112.994 25.1953 113.536 25.1953H115.111ZM123.358 28.4619V18.75H124.72V30H123.475L123.358 28.4619ZM118.026 26.1255V25.9717C118.026 25.3662 118.099 24.8169 118.246 24.3237C118.397 23.8257 118.609 23.3984 118.883 23.042C119.161 22.6855 119.491 22.4121 119.872 22.2217C120.257 22.0264 120.687 21.9287 121.161 21.9287C121.659 21.9287 122.093 22.0166 122.464 22.1924C122.84 22.3633 123.158 22.6147 123.417 22.9468C123.68 23.2739 123.888 23.6694 124.039 24.1333C124.19 24.5972 124.295 25.1221 124.354 25.708V26.3818C124.3 26.9629 124.195 27.4854 124.039 27.9492C123.888 28.4131 123.68 28.8086 123.417 29.1357C123.158 29.4629 122.84 29.7144 122.464 29.8901C122.088 30.061 121.649 30.1465 121.146 30.1465C120.682 30.1465 120.257 30.0464 119.872 29.8462C119.491 29.646 119.161 29.3652 118.883 29.0039C118.609 28.6426 118.397 28.2178 118.246 27.7295C118.099 27.2363 118.026 26.7017 118.026 26.1255ZM119.388 25.9717V26.1255C119.388 26.521 119.427 26.8921 119.505 27.2388C119.588 27.5854 119.715 27.8906 119.886 28.1543C120.057 28.418 120.274 28.6255 120.538 28.7769C120.802 28.9233 121.117 28.9966 121.483 28.9966C121.932 28.9966 122.301 28.9014 122.589 28.7109C122.882 28.5205 123.116 28.269 123.292 27.9565C123.468 27.644 123.604 27.3047 123.702 26.9385V25.1733C123.644 24.9048 123.558 24.646 123.446 24.397C123.338 24.1431 123.197 23.9185 123.021 23.7231C122.85 23.5229 122.638 23.3643 122.384 23.2471C122.135 23.1299 121.839 23.0713 121.498 23.0713C121.126 23.0713 120.807 23.1494 120.538 23.3057C120.274 23.457 120.057 23.667 119.886 23.9355C119.715 24.1992 119.588 24.5068 119.505 24.8584C119.427 25.2051 119.388 25.5762 119.388 25.9717ZM130.191 26.1255V25.957C130.191 25.3857 130.274 24.856 130.44 24.3677C130.606 23.8745 130.846 23.4473 131.158 23.0859C131.471 22.7197 131.849 22.4365 132.293 22.2363C132.738 22.0312 133.236 21.9287 133.788 21.9287C134.344 21.9287 134.845 22.0312 135.289 22.2363C135.738 22.4365 136.119 22.7197 136.432 23.0859C136.749 23.4473 136.991 23.8745 137.157 24.3677C137.323 24.856 137.406 25.3857 137.406 25.957V26.1255C137.406 26.6968 137.323 27.2266 137.157 27.7148C136.991 28.2031 136.749 28.6304 136.432 28.9966C136.119 29.3579 135.741 29.6411 135.296 29.8462C134.857 30.0464 134.359 30.1465 133.802 30.1465C133.246 30.1465 132.745 30.0464 132.301 29.8462C131.856 29.6411 131.476 29.3579 131.158 28.9966C130.846 28.6304 130.606 28.2031 130.44 27.7148C130.274 27.2266 130.191 26.6968 130.191 26.1255ZM131.546 25.957V26.1255C131.546 26.521 131.593 26.8945 131.686 27.2461C131.778 27.5928 131.917 27.9004 132.103 28.1689C132.293 28.4375 132.53 28.6499 132.813 28.8062C133.097 28.9575 133.426 29.0332 133.802 29.0332C134.173 29.0332 134.498 28.9575 134.776 28.8062C135.06 28.6499 135.294 28.4375 135.479 28.1689C135.665 27.9004 135.804 27.5928 135.897 27.2461C135.995 26.8945 136.043 26.521 136.043 26.1255V25.957C136.043 25.5664 135.995 25.1978 135.897 24.8511C135.804 24.4995 135.663 24.1895 135.472 23.9209C135.287 23.6475 135.052 23.4326 134.769 23.2764C134.491 23.1201 134.164 23.042 133.788 23.042C133.417 23.042 133.089 23.1201 132.806 23.2764C132.528 23.4326 132.293 23.6475 132.103 23.9209C131.917 24.1895 131.778 24.4995 131.686 24.8511C131.593 25.1978 131.546 25.5664 131.546 25.957ZM140.46 23.7671V30H139.105V22.0752H140.387L140.46 23.7671ZM140.138 25.7373L139.574 25.7153C139.579 25.1733 139.659 24.6729 139.815 24.2139C139.972 23.75 140.191 23.3472 140.475 23.0054C140.758 22.6636 141.095 22.3999 141.485 22.2144C141.881 22.0239 142.318 21.9287 142.796 21.9287C143.187 21.9287 143.539 21.9824 143.851 22.0898C144.164 22.1924 144.43 22.3584 144.649 22.5879C144.874 22.8174 145.045 23.1152 145.162 23.4814C145.279 23.8428 145.338 24.2847 145.338 24.8071V30H143.976V24.7925C143.976 24.3774 143.915 24.0454 143.792 23.7964C143.67 23.5425 143.492 23.3594 143.258 23.2471C143.023 23.1299 142.735 23.0713 142.394 23.0713C142.057 23.0713 141.749 23.1421 141.471 23.2837C141.197 23.4253 140.96 23.6206 140.76 23.8696C140.565 24.1187 140.411 24.4043 140.299 24.7266C140.191 25.0439 140.138 25.3809 140.138 25.7373ZM154.435 22.0752V23.1152H150.15V22.0752H154.435ZM151.6 20.1489H152.955V28.0371C152.955 28.3057 152.997 28.5083 153.08 28.645C153.163 28.7817 153.27 28.8721 153.402 28.916C153.534 28.96 153.675 28.9819 153.827 28.9819C153.939 28.9819 154.056 28.9722 154.178 28.9526C154.305 28.9282 154.4 28.9087 154.464 28.894L154.471 30C154.364 30.0342 154.222 30.0659 154.046 30.0952C153.875 30.1294 153.668 30.1465 153.424 30.1465C153.092 30.1465 152.787 30.0806 152.508 29.9487C152.23 29.8169 152.008 29.5972 151.842 29.2896C151.681 28.9771 151.6 28.5571 151.6 28.0298V20.1489ZM157.379 18.75V30H156.024V18.75H157.379ZM157.057 25.7373L156.493 25.7153C156.498 25.1733 156.578 24.6729 156.734 24.2139C156.891 23.75 157.11 23.3472 157.394 23.0054C157.677 22.6636 158.014 22.3999 158.404 22.2144C158.8 22.0239 159.237 21.9287 159.715 21.9287C160.106 21.9287 160.458 21.9824 160.77 22.0898C161.083 22.1924 161.349 22.3584 161.568 22.5879C161.793 22.8174 161.964 23.1152 162.081 23.4814C162.198 23.8428 162.257 24.2847 162.257 24.8071V30H160.895V24.7925C160.895 24.3774 160.833 24.0454 160.711 23.7964C160.589 23.5425 160.411 23.3594 160.177 23.2471C159.942 23.1299 159.654 23.0713 159.312 23.0713C158.976 23.0713 158.668 23.1421 158.39 23.2837C158.116 23.4253 157.879 23.6206 157.679 23.8696C157.484 24.1187 157.33 24.4043 157.218 24.7266C157.11 25.0439 157.057 25.3809 157.057 25.7373ZM167.574 30.1465C167.022 30.1465 166.522 30.0537 166.073 29.8682C165.628 29.6777 165.245 29.4116 164.923 29.0698C164.605 28.728 164.361 28.3228 164.19 27.854C164.02 27.3853 163.934 26.8726 163.934 26.3159V26.0083C163.934 25.3638 164.029 24.79 164.22 24.2871C164.41 23.7793 164.669 23.3496 164.996 22.998C165.323 22.6465 165.694 22.3804 166.109 22.1997C166.524 22.019 166.954 21.9287 167.398 21.9287C167.965 21.9287 168.453 22.0264 168.863 22.2217C169.278 22.417 169.618 22.6904 169.881 23.042C170.145 23.3887 170.34 23.7988 170.467 24.2725C170.594 24.7412 170.658 25.2539 170.658 25.8105V26.4185H164.74V25.3125H169.303V25.21C169.283 24.8584 169.21 24.5166 169.083 24.1846C168.961 23.8525 168.766 23.5791 168.497 23.3643C168.229 23.1494 167.862 23.042 167.398 23.042C167.091 23.042 166.808 23.1079 166.549 23.2397C166.29 23.3667 166.068 23.5571 165.882 23.811C165.697 24.0649 165.553 24.375 165.45 24.7412C165.348 25.1074 165.296 25.5298 165.296 26.0083V26.3159C165.296 26.6919 165.348 27.0459 165.45 27.3779C165.558 27.7051 165.711 27.9932 165.912 28.2422C166.117 28.4912 166.363 28.6865 166.651 28.8281C166.944 28.9697 167.276 29.0405 167.647 29.0405C168.126 29.0405 168.531 28.9429 168.863 28.7476C169.195 28.5522 169.486 28.291 169.735 27.9639L170.555 28.6157C170.384 28.8745 170.167 29.1211 169.903 29.3555C169.64 29.5898 169.315 29.7803 168.929 29.9268C168.548 30.0732 168.097 30.1465 167.574 30.1465Z" fill="white"/>
<path d="M42.2211 57.12C40.3427 58.9408 38.2919 58.6533 36.3177 57.7908C34.2286 56.9092 32.3119 56.8708 30.1077 57.7908C27.3477 58.9792 25.8911 58.6342 24.2427 57.12C14.8894 47.4792 16.2694 32.7975 26.8877 32.2608C29.4752 32.395 31.2769 33.6792 32.7911 33.7942C35.0527 33.3342 37.2186 32.0117 39.6336 32.1842C42.5277 32.4142 44.7127 33.5642 46.1502 35.6342C40.1702 39.2183 41.5886 47.0958 47.0702 49.3C45.9777 52.175 44.5594 55.0308 42.2019 57.1392L42.2211 57.12ZM32.5994 32.1458C32.3119 27.8717 35.7811 24.345 39.7677 24C40.3236 28.945 35.2827 32.625 32.5994 32.1458Z" fill="white"/>
</svg>
