<svg width="40" height="40" viewBox="0 0 40 40" fill="none" xmlns="http://www.w3.org/2000/svg">
<path d="M20.1 34L25.8 28.35L20.1 22.7L18 24.8L20.15 26.95C19.2167 26.9833 18.3087 26.8333 17.426 26.5C16.5433 26.1667 15.7513 25.65 15.05 24.95C14.3833 24.2833 13.8747 23.5167 13.524 22.65C13.1733 21.7833 12.9987 20.9167 13 20.05C13 19.4833 13.0753 18.9167 13.226 18.35C13.3767 17.7833 13.5847 17.2333 13.85 16.7L11.65 14.5C11.0833 15.3333 10.6667 16.2167 10.4 17.15C10.1333 18.0833 10 19.0333 10 20C10 21.2667 10.25 22.5167 10.75 23.75C11.25 24.9833 11.9833 26.0833 12.95 27.05C13.9167 28.0167 15 28.742 16.2 29.226C17.4 29.71 18.6333 29.968 19.9 30L18 31.9L20.1 34ZM28.35 25.5C28.9166 24.6667 29.3333 23.7833 29.6 22.85C29.8666 21.9167 30 20.9667 30 20C30 18.7333 29.758 17.4747 29.274 16.224C28.79 14.9733 28.0653 13.8653 27.1 12.9C26.1347 11.9347 25.0427 11.218 23.824 10.75C22.6053 10.282 21.364 10.0487 20.1 10.05L22 8.1L19.9 6L14.2 11.65L19.9 17.3L22 15.2L19.8 13C20.7 13 21.6167 13.1753 22.55 13.526C23.4833 13.8767 24.2833 14.3847 24.95 15.05C25.6167 15.7153 26.1253 16.482 26.476 17.35C26.8266 18.218 27.0013 19.0847 27 19.95C27 20.5167 26.9253 21.0833 26.776 21.65C26.6266 22.2167 26.418 22.7667 26.15 23.3L28.35 25.5ZM20 40C17.2333 40 14.6333 39.4747 12.2 38.424C9.76666 37.3733 7.65 35.9487 5.85 34.15C4.05 32.3513 2.62533 30.2347 1.576 27.8C0.526669 25.3653 0.00133586 22.7653 2.53164e-06 20C-0.0013308 17.2347 0.524002 14.6347 1.576 12.2C2.628 9.76533 4.05267 7.64866 5.85 5.85C7.64733 4.05133 9.764 2.62667 12.2 1.576C14.636 0.525333 17.236 0 20 0C22.764 0 25.364 0.525333 27.8 1.576C30.236 2.62667 32.3526 4.05133 34.15 5.85C35.9473 7.64866 37.3726 9.76533 38.426 12.2C39.4793 14.6347 40.004 17.2347 40 20C39.996 22.7653 39.4706 25.3653 38.424 27.8C37.3773 30.2347 35.9526 32.3513 34.15 34.15C32.3473 35.9487 30.2306 37.374 27.8 38.426C25.3693 39.478 22.7693 40.0027 20 40Z" fill="#253C51"/>
</svg>
