<svg width="301" height="173" viewBox="0 0 301 173" fill="none" xmlns="http://www.w3.org/2000/svg">
<path d="M287.778 110.051C287.778 109.799 287.737 109.555 287.71 109.307C286.572 98.6604 276.613 90.6406 264.972 90.6406H44.6426C33.0013 90.6406 23.043 98.6604 21.9045 109.307C21.8775 109.555 21.855 109.799 21.837 110.051C20.7975 124.052 21.837 172.361 21.837 172.361H287.782C287.782 172.361 288.817 124.052 287.778 110.051Z" fill="#92E3A9" stroke="#263238" stroke-linecap="round" stroke-linejoin="round"/>
<path d="M53.4212 114.819C53.4221 114.378 53.2806 113.947 53.0146 113.58C52.7487 113.213 52.3702 112.926 51.9271 112.757C51.484 112.587 50.9961 112.543 50.5253 112.628C50.0546 112.714 49.622 112.926 49.2823 113.237C48.9426 113.549 48.7112 113.946 48.6172 114.379C48.5233 114.811 48.5711 115.26 48.7545 115.667C48.938 116.075 49.2488 116.423 49.6478 116.669C50.0467 116.914 50.5159 117.045 50.9958 117.045C51.6383 117.045 52.2545 116.81 52.7092 116.393C53.164 115.976 53.42 115.41 53.4212 114.819Z" fill="#92E3A9" stroke="#263238" stroke-linecap="round" stroke-linejoin="round"/>
<path d="M85.6163 117.052C86.9533 117.052 88.0372 116.056 88.0372 114.827C88.0372 113.598 86.9533 112.602 85.6163 112.602C84.2792 112.602 83.1953 113.598 83.1953 114.827C83.1953 116.056 84.2792 117.052 85.6163 117.052Z" fill="#92E3A9" stroke="#263238" stroke-linecap="round" stroke-linejoin="round"/>
<path d="M120.233 117.052C121.571 117.052 122.654 116.056 122.654 114.827C122.654 113.598 121.571 112.602 120.233 112.602C118.896 112.602 117.812 113.598 117.812 114.827C117.812 116.056 118.896 117.052 120.233 117.052Z" fill="#92E3A9" stroke="#263238" stroke-linecap="round" stroke-linejoin="round"/>
<path d="M154.851 117.052C156.188 117.052 157.272 116.056 157.272 114.827C157.272 113.598 156.188 112.602 154.851 112.602C153.514 112.602 152.43 113.598 152.43 114.827C152.43 116.056 153.514 117.052 154.851 117.052Z" fill="#92E3A9" stroke="#263238" stroke-linecap="round" stroke-linejoin="round"/>
<path d="M189.46 117.052C190.797 117.052 191.881 116.056 191.881 114.827C191.881 113.598 190.797 112.602 189.46 112.602C188.123 112.602 187.039 113.598 187.039 114.827C187.039 116.056 188.123 117.052 189.46 117.052Z" fill="#92E3A9" stroke="#263238" stroke-linecap="round" stroke-linejoin="round"/>
<path d="M226.507 114.819C226.508 114.378 226.367 113.947 226.101 113.58C225.835 113.213 225.456 112.926 225.013 112.757C224.57 112.587 224.082 112.543 223.611 112.628C223.14 112.714 222.708 112.926 222.368 113.237C222.029 113.549 221.797 113.946 221.703 114.379C221.609 114.811 221.657 115.26 221.84 115.667C222.024 116.075 222.335 116.423 222.734 116.669C223.133 116.914 223.602 117.045 224.082 117.045C224.724 117.045 225.34 116.81 225.795 116.393C226.25 115.976 226.506 115.41 226.507 114.819Z" fill="#92E3A9" stroke="#263238" stroke-linecap="round" stroke-linejoin="round"/>
<path d="M261.124 114.819C261.125 114.378 260.984 113.947 260.718 113.58C260.452 113.213 260.073 112.926 259.63 112.757C259.187 112.587 258.699 112.543 258.228 112.628C257.758 112.714 257.325 112.926 256.985 113.237C256.646 113.549 256.414 113.946 256.32 114.379C256.226 114.811 256.274 115.26 256.458 115.667C256.641 116.075 256.952 116.423 257.351 116.669C257.75 116.914 258.219 117.045 258.699 117.045C259.341 117.045 259.958 116.81 260.412 116.393C260.867 115.976 261.123 115.41 261.124 114.819Z" fill="#92E3A9" stroke="#263238" stroke-linecap="round" stroke-linejoin="round"/>
<path d="M53.4212 162.233C53.4221 161.793 53.2809 161.362 53.0156 160.995C52.7502 160.628 52.3725 160.342 51.9302 160.172C51.4878 160.002 51.0007 159.957 50.5303 160.041C50.0599 160.126 49.6273 160.337 49.2871 160.647C48.9469 160.957 48.7144 161.354 48.6189 161.785C48.5234 162.217 48.5693 162.665 48.7507 163.073C48.932 163.481 49.2408 163.83 49.638 164.077C50.0352 164.323 50.5029 164.456 50.9823 164.459C51.3015 164.46 51.618 164.404 51.9136 164.293C52.2091 164.182 52.4779 164.018 52.7045 163.812C52.9311 163.605 53.111 163.359 53.234 163.088C53.357 162.817 53.4206 162.527 53.4212 162.233Z" fill="#92E3A9" stroke="#263238" stroke-linecap="round" stroke-linejoin="round"/>
<path d="M85.6163 164.458C86.9533 164.458 88.0372 163.462 88.0372 162.233C88.0372 161.004 86.9533 160.008 85.6163 160.008C84.2792 160.008 83.1953 161.004 83.1953 162.233C83.1953 163.462 84.2792 164.458 85.6163 164.458Z" fill="#92E3A9" stroke="#263238" stroke-linecap="round" stroke-linejoin="round"/>
<path d="M120.233 164.458C121.571 164.458 122.654 163.462 122.654 162.233C122.654 161.004 121.571 160.008 120.233 160.008C118.896 160.008 117.812 161.004 117.812 162.233C117.812 163.462 118.896 164.458 120.233 164.458Z" fill="#92E3A9" stroke="#263238" stroke-linecap="round" stroke-linejoin="round"/>
<path d="M154.851 164.458C156.188 164.458 157.272 163.462 157.272 162.233C157.272 161.004 156.188 160.008 154.851 160.008C153.514 160.008 152.43 161.004 152.43 162.233C152.43 163.462 153.514 164.458 154.851 164.458Z" fill="#92E3A9" stroke="#263238" stroke-linecap="round" stroke-linejoin="round"/>
<path d="M189.46 164.458C190.797 164.458 191.881 163.462 191.881 162.233C191.881 161.004 190.797 160.008 189.46 160.008C188.123 160.008 187.039 161.004 187.039 162.233C187.039 163.462 188.123 164.458 189.46 164.458Z" fill="#92E3A9" stroke="#263238" stroke-linecap="round" stroke-linejoin="round"/>
<path d="M226.507 162.233C226.508 161.792 226.367 161.361 226.101 160.994C225.835 160.627 225.456 160.34 225.013 160.171C224.57 160.002 224.082 159.957 223.611 160.042C223.14 160.128 222.708 160.34 222.368 160.651C222.029 160.963 221.797 161.36 221.703 161.793C221.609 162.225 221.657 162.674 221.84 163.082C222.024 163.489 222.335 163.838 222.734 164.083C223.133 164.328 223.602 164.459 224.082 164.459C224.724 164.459 225.34 164.224 225.795 163.807C226.25 163.39 226.506 162.824 226.507 162.233Z" fill="#92E3A9" stroke="#263238" stroke-linecap="round" stroke-linejoin="round"/>
<path d="M261.124 162.233C261.125 161.792 260.984 161.361 260.718 160.994C260.452 160.627 260.073 160.34 259.63 160.171C259.187 160.002 258.699 159.957 258.228 160.042C257.758 160.128 257.325 160.34 256.985 160.651C256.646 160.963 256.414 161.36 256.32 161.793C256.226 162.225 256.274 162.674 256.458 163.082C256.641 163.489 256.952 163.838 257.351 164.083C257.75 164.328 258.219 164.459 258.699 164.459C259.341 164.458 259.957 164.223 260.411 163.806C260.866 163.389 261.122 162.824 261.124 162.233Z" fill="#92E3A9" stroke="#263238" stroke-linecap="round" stroke-linejoin="round"/>
<path d="M66.5772 141.544C67.9143 141.544 68.9982 140.548 68.9982 139.319C68.9982 138.09 67.9143 137.094 66.5772 137.094C65.2401 137.094 64.1562 138.09 64.1562 139.319C64.1562 140.548 65.2401 141.544 66.5772 141.544Z" fill="#92E3A9" stroke="#263238" stroke-linecap="round" stroke-linejoin="round"/>
<path d="M101.191 141.552C102.531 141.552 103.617 140.554 103.617 139.323C103.617 138.092 102.531 137.094 101.191 137.094C99.8515 137.094 98.7656 138.092 98.7656 139.323C98.7656 140.554 99.8515 141.552 101.191 141.552Z" fill="#92E3A9" stroke="#263238" stroke-linecap="round" stroke-linejoin="round"/>
<path d="M135.812 141.544C137.149 141.544 138.233 140.548 138.233 139.319C138.233 138.09 137.149 137.094 135.812 137.094C134.475 137.094 133.391 138.09 133.391 139.319C133.391 140.548 134.475 141.544 135.812 141.544Z" fill="#92E3A9" stroke="#263238" stroke-linecap="round" stroke-linejoin="round"/>
<path d="M172.851 139.323C172.851 138.882 172.709 138.451 172.442 138.085C172.176 137.718 171.797 137.432 171.354 137.263C170.91 137.095 170.423 137.051 169.952 137.137C169.482 137.223 169.05 137.435 168.71 137.747C168.371 138.058 168.14 138.456 168.047 138.888C167.953 139.321 168.001 139.769 168.185 140.176C168.368 140.584 168.679 140.932 169.078 141.177C169.477 141.422 169.946 141.552 170.425 141.552C170.744 141.553 171.06 141.496 171.354 141.384C171.649 141.272 171.916 141.108 172.142 140.901C172.367 140.694 172.546 140.448 172.667 140.177C172.789 139.906 172.852 139.616 172.851 139.323Z" fill="#92E3A9" stroke="#263238" stroke-linecap="round" stroke-linejoin="round"/>
<path d="M207.468 139.323C207.468 138.882 207.326 138.451 207.059 138.085C206.793 137.718 206.414 137.432 205.971 137.263C205.528 137.095 205.04 137.051 204.569 137.137C204.099 137.223 203.667 137.435 203.328 137.747C202.988 138.058 202.757 138.456 202.664 138.888C202.57 139.321 202.618 139.769 202.802 140.176C202.985 140.584 203.296 140.932 203.695 141.177C204.094 141.422 204.563 141.552 205.043 141.552C205.361 141.553 205.677 141.496 205.972 141.384C206.266 141.272 206.534 141.108 206.759 140.901C206.984 140.694 207.163 140.448 207.285 140.177C207.406 139.906 207.469 139.616 207.468 139.323Z" fill="#92E3A9" stroke="#263238" stroke-linecap="round" stroke-linejoin="round"/>
<path d="M239.655 141.544C240.992 141.544 242.076 140.548 242.076 139.319C242.076 138.09 240.992 137.094 239.655 137.094C238.318 137.094 237.234 138.09 237.234 139.319C237.234 140.548 238.318 141.544 239.655 141.544Z" fill="#92E3A9" stroke="#263238" stroke-linecap="round" stroke-linejoin="round"/>
<path d="M292.929 58.0791C292.929 65.9376 285.801 78.3457 279.668 78.3457C274.565 78.3457 266.406 65.9376 266.406 58.0791C266.406 50.2206 272.346 43.8594 279.668 43.8594C286.989 43.8594 292.929 50.2206 292.929 58.0791Z" fill="#263238" stroke="#263238" stroke-linecap="round" stroke-linejoin="round"/>
<path d="M279.289 78.7201L279.42 81.5657L281.998 80.9743L279.663 78.3438" fill="#263238"/>
<path d="M279.289 78.7201L279.42 81.5657L281.998 80.9743L279.663 78.3438" stroke="#263238" stroke-linecap="round" stroke-linejoin="round"/>
<path d="M289.136 49.5315C290.697 51.6947 290.652 54.2425 289.041 55.2269C287.43 56.2113 284.856 55.2558 283.299 53.0927C281.742 50.9295 281.778 48.3817 283.394 47.4015C285.009 46.4212 287.574 47.3725 289.136 49.5315Z" fill="white"/>
<path d="M281.974 46.5557C281.871 47.0355 281.133 47.3084 280.332 47.1595C279.531 47.0106 278.982 46.5061 279.063 46.0221C279.144 45.5382 279.904 45.2694 280.705 45.4141C281.506 45.5589 282.078 46.0842 281.974 46.5557Z" fill="white"/>
<path d="M280.479 80.0234C280.025 81.7029 279.724 83.4142 279.579 85.1397C279.454 86.4848 279.403 87.8349 279.426 89.1848C279.384 90.0611 279.477 90.9386 279.705 91.7905C280.155 93.1885 281.087 94.4417 281.924 95.6659C283.007 97.1542 283.958 98.7199 284.768 100.348C285.174 101.215 285.486 102.117 285.699 103.041C285.817 103.546 285.897 104.059 285.938 104.575C285.938 104.707 285.938 104.844 285.938 104.989C285.938 105.191 285.938 104.782 285.938 104.778C285.938 104.774 285.938 104.922 285.938 104.96C285.915 105.27 285.893 105.576 285.852 105.882C285.479 108.566 284.088 110.907 282.495 113.141C281.051 115.167 279.507 117.124 277.964 119.088C276.857 120.409 275.877 121.815 275.035 123.291C273.275 126.599 273.374 130.442 273.554 134.044C273.59 134.776 273.64 135.504 273.698 136.236C273.698 135.992 273.725 135.55 273.698 135.24C273.397 131.397 273.248 127.443 275.246 123.94C276.106 122.529 277.074 121.175 278.144 119.891C279.647 117.988 281.141 116.077 282.545 114.1C284.066 111.966 285.389 109.728 285.807 107.168C286.099 105.402 286.043 103.602 285.641 101.853C284.826 98.4867 282.531 95.7942 280.718 92.8576C280.312 92.2305 279.977 91.5666 279.719 90.8764C279.269 89.6356 279.391 88.3203 279.481 87.0547C279.603 85.0307 279.937 83.0223 280.479 81.0574C280.574 80.7348 280.385 80.346 280.479 80.0234Z" fill="#263238"/>
<path d="M27.9288 72.7822C27.9288 80.6407 20.8009 93.0488 14.6675 93.0488C9.5646 93.0488 1.40625 80.6407 1.40625 72.7822C1.40625 64.9237 7.33264 58.5625 14.6675 58.5625C22.0024 58.5625 27.9288 64.932 27.9288 72.7822Z" fill="#263238" stroke="#263238" stroke-linecap="round" stroke-linejoin="round"/>
<path d="M14.2969 93.4389L14.4229 96.2845L17.0058 95.693L14.6704 93.0625" fill="#263238"/>
<path d="M14.2969 93.4389L14.4229 96.2845L17.0058 95.693L14.6704 93.0625" stroke="#263238" stroke-linecap="round" stroke-linejoin="round"/>
<path d="M24.1323 64.2521C25.6893 66.4152 25.6488 68.963 24.0378 69.9474C22.4269 70.9318 19.8529 69.9764 18.2914 67.8132C16.73 65.6501 16.775 63.1064 18.3859 62.122C19.9969 61.1376 22.5708 62.0931 24.1323 64.2521Z" fill="white"/>
<path d="M16.975 61.2722C16.867 61.752 16.1335 62.025 15.328 61.8761C14.5225 61.7272 13.978 61.2226 14.0635 60.7386C14.149 60.2547 14.9005 59.9859 15.706 60.1348C16.5115 60.2837 17.0785 60.7883 16.975 61.2722Z" fill="white"/>
<path d="M15.4705 94.7422C15.0062 96.4197 14.6932 98.1295 14.5345 99.8543C14.407 101.201 14.356 102.552 14.3815 103.904C14.339 104.78 14.433 105.657 14.6605 106.509C15.1105 107.903 16.0375 109.156 16.8789 110.381C17.9602 111.869 18.9097 113.435 19.7184 115.063C20.128 115.929 20.4416 116.831 20.6544 117.755C20.7683 118.261 20.8464 118.774 20.8884 119.29C20.8884 119.422 20.8884 119.558 20.9154 119.703C20.9424 119.848 20.9154 119.492 20.9154 119.488C20.9154 119.484 20.9154 119.637 20.9154 119.674C20.9154 119.98 20.8704 120.286 20.8254 120.592C20.4519 123.277 19.0659 125.622 17.4729 127.851C16.0285 129.878 14.485 131.838 12.9415 133.799C11.8419 135.119 10.8693 136.526 10.0346 138.001C8.2751 141.31 8.3741 145.148 8.55409 148.755C8.59009 149.487 8.63959 150.219 8.69809 150.947C8.69809 150.703 8.72509 150.264 8.69809 149.95C8.3966 146.112 8.2481 142.154 10.2506 138.65C11.103 137.236 12.0671 135.882 13.135 134.597C14.6425 132.69 16.1365 130.78 17.5404 128.807C19.0569 126.672 20.3844 124.435 20.8029 121.875C21.0951 120.108 21.0372 118.307 20.6319 116.56C19.8219 113.193 17.5269 110.505 15.7135 107.564C15.3074 106.937 14.9726 106.273 14.7145 105.583C14.2645 104.342 14.386 103.027 14.476 101.765C14.5994 99.7443 14.9324 97.7389 15.4705 95.7762C15.565 95.4536 15.3805 95.0648 15.4705 94.7422Z" fill="#263238"/>
<path d="M262.085 27.001C262.085 34.8594 254.957 47.2676 248.824 47.2676C243.721 47.2676 235.562 34.8594 235.562 27.001C235.562 19.1425 241.498 12.7812 248.824 12.7812C256.15 12.7812 262.085 19.1466 262.085 27.001Z" fill="#92E3A9" stroke="#263238" stroke-linecap="round" stroke-linejoin="round"/>
<path d="M248.445 47.6576L248.571 50.5032L251.154 49.9118L248.819 47.2812" fill="#263238"/>
<path d="M248.445 47.6576L248.571 50.5032L251.154 49.9118L248.819 47.2812" stroke="#263238" stroke-linecap="round" stroke-linejoin="round"/>
<path d="M258.289 18.4619C259.846 20.625 259.805 23.1728 258.194 24.1572C256.583 25.1416 254.009 24.1862 252.448 22.023C250.886 19.8599 250.931 17.3121 252.542 16.3318C254.153 15.3516 256.727 16.2987 258.289 18.4619Z" fill="white"/>
<path d="M251.131 15.4734C251.023 15.9573 250.29 16.2303 249.484 16.0814C248.679 15.9325 248.134 15.4279 248.22 14.944C248.305 14.4601 249.057 14.1913 249.862 14.336C250.668 14.4808 251.226 15.0019 251.131 15.4734Z" fill="white"/>
<path d="M249.623 49.9876C252.498 52.4428 255.064 55.187 257.272 58.1687C258.532 59.91 259.684 61.8084 259.774 63.9591C259.774 64.0543 259.774 64.1535 259.774 64.2487C259.774 64.3438 259.801 63.4794 259.774 63.8888C259.774 64.0501 259.774 64.2073 259.738 64.3686C259.709 64.6198 259.659 64.8686 259.59 65.1131C259.449 65.5782 259.23 66.0204 258.942 66.4242C258.042 67.6981 256.885 68.8149 255.868 69.9978C253.747 72.4318 251.808 74.9951 250.063 77.6701C249.348 78.7492 248.796 79.9123 248.421 81.1279C248.184 82.0767 248.089 83.0507 248.138 84.0231C248.221 85.6936 248.856 87.3011 249.96 88.6306C251.166 90.2271 252.601 91.6706 253.794 93.2795C255.273 95.2435 256.301 97.4644 256.813 99.8062C256.96 100.527 257.063 101.255 257.124 101.986C257.092 101.643 257.151 101.295 257.124 100.952C256.925 98.3618 256.099 95.8452 254.707 93.5856C253.591 91.7988 252.142 90.2396 250.779 88.6224C249.645 87.274 248.556 85.814 248.237 84.1017C248.196 83.8742 248.174 83.6467 248.151 83.4192C248.102 82.8774 248.111 84.0438 248.151 83.7253C248.151 83.5805 248.151 83.4358 248.187 83.3117C248.254 82.8058 248.368 82.3062 248.529 81.8186C248.977 80.5443 249.606 79.3301 250.401 78.2078C252.161 75.586 254.089 73.0627 256.174 70.6513C257.142 69.5428 258.267 68.4798 259.059 67.2514C259.604 66.2977 259.853 65.2245 259.779 64.1494C259.819 63.3191 259.763 62.4873 259.612 61.6678C259.342 60.6337 258.905 59.6426 258.316 58.7271C256.161 55.137 253.006 51.9688 249.821 49.1273L249.613 48.9453C249.667 48.9908 249.613 49.392 249.613 49.4623C249.613 49.5326 249.55 49.9173 249.613 49.9793L249.623 49.9876Z" fill="#263238"/>
<path d="M54.0225 26.2326C54.0225 34.0911 46.8946 46.4992 40.7613 46.4992C35.6584 46.4992 27.5 34.0911 27.5 26.2326C27.5 18.3741 33.4264 11.9922 40.7613 11.9922C48.0961 11.9922 54.0225 18.3741 54.0225 26.2326Z" fill="#92E3A9" stroke="#263238" stroke-linecap="round" stroke-linejoin="round"/>
<path d="M40.3906 46.8686L40.5166 49.7142L43.0996 49.1227L40.7641 46.4922" fill="#263238"/>
<path d="M40.3906 46.8686L40.5166 49.7142L43.0996 49.1227L40.7641 46.4922" stroke="#263238" stroke-linecap="round" stroke-linejoin="round"/>
<path d="M50.2294 17.68C51.7909 19.8431 51.7504 22.3909 50.1349 23.3753C48.5194 24.3597 45.9545 23.4001 44.393 21.2411C42.8315 19.0821 42.8765 16.5302 44.4875 15.5499C46.0985 14.5697 48.6724 15.521 50.2294 17.68Z" fill="white"/>
<path d="M43.0679 14.6918C42.9644 15.1758 42.2309 15.4487 41.4254 15.2998C40.6199 15.1509 40.0754 14.6422 40.1564 14.1624C40.2374 13.6826 40.9979 13.4097 41.8034 13.5544C42.6089 13.6992 43.1714 14.2327 43.0679 14.6918Z" fill="white"/>
<path d="M41.5678 49.204C44.4418 51.6603 47.0077 54.4044 49.2177 57.3851C50.4776 59.1264 51.6296 61.0249 51.7196 63.1756C51.7196 63.2707 51.7196 63.37 51.7196 63.4651C51.7196 63.5603 51.7466 62.6958 51.7196 63.1053C51.7196 63.2666 51.7196 63.4238 51.6836 63.5851C51.6579 63.8364 51.6097 64.0854 51.5396 64.3296C51.3964 64.794 51.1779 65.236 50.8916 65.6407C49.9917 66.9146 48.8352 68.0313 47.8182 69.2142C45.6939 71.6462 43.7544 74.2097 42.0133 76.8866C41.2965 77.9648 40.7439 79.1282 40.3708 80.3443C40.1321 81.2928 40.0367 82.2671 40.0873 83.2395C40.0873 84.956 40.8523 86.4574 41.8873 87.8471C43.0978 89.4436 44.5333 90.8871 45.7212 92.496C47.2059 94.4602 48.2381 96.6826 48.7542 99.0268C48.9049 99.747 49.0086 100.475 49.0647 101.206C49.0377 100.863 49.0962 100.516 49.0647 100.172C48.8657 97.5876 48.04 95.0763 46.6482 92.8227C45.5367 91.036 44.0878 89.4767 42.7243 87.8595C41.5903 86.5111 40.4743 85.0511 40.1818 83.3388C40.1413 83.1113 40.1188 82.8838 40.0963 82.6564C40.0468 82.1145 40.0558 83.2809 40.0963 82.9624C40.0963 82.8177 40.0963 82.6729 40.1368 82.5488C40.2014 82.0426 40.3159 81.5429 40.4788 81.0557C40.9259 79.7806 41.5537 78.5651 42.3463 77.4408C44.1125 74.8292 46.0448 72.3156 48.1332 69.9132C49.1007 68.8047 50.2256 67.7418 51.0176 66.5134C51.5639 65.5587 51.8115 64.4835 51.7331 63.4072C51.7748 62.5771 51.7205 61.7452 51.5711 60.9256C51.2987 59.8921 50.862 58.9012 50.2751 57.9849C48.1197 54.3948 44.9652 51.2266 41.7793 48.3851L41.5723 48.2031C41.597 48.3747 41.597 48.5485 41.5723 48.7201C41.5723 48.807 41.5093 49.1751 41.5723 49.2371L41.5678 49.204Z" fill="#263238"/>
<path d="M140.632 15.2156C140.632 23.0741 133.504 35.4822 127.371 35.4822C122.268 35.4822 114.109 23.0741 114.109 15.2156C114.109 7.3571 120.045 1 127.371 1C134.696 1 140.632 7.36123 140.632 15.2156Z" fill="#92E3A9" stroke="#263238" stroke-linecap="round" stroke-linejoin="round"/>
<path d="M126.992 35.8686L127.123 38.7142L129.701 38.1227L127.37 35.4922" fill="#263238"/>
<path d="M126.992 35.8686L127.123 38.7142L129.701 38.1227L127.37 35.4922" stroke="#263238" stroke-linecap="round" stroke-linejoin="round"/>
<path d="M136.831 6.67929C138.392 8.84244 138.347 11.3902 136.736 12.3746C135.125 13.359 132.551 12.4036 130.994 10.2404C129.437 8.07728 129.478 5.54602 131.075 4.54923C132.673 3.55245 135.274 4.52028 136.831 6.67929Z" fill="white"/>
<path d="M129.674 3.70412C129.57 4.1839 128.832 4.45688 128.031 4.30798C127.23 4.15909 126.659 3.65449 126.762 3.17057C126.866 2.68666 127.604 2.41781 128.409 2.56257C129.215 2.70734 129.777 3.22021 129.674 3.70412Z" fill="white"/>
<path d="M128.177 38.2247C131.052 40.6797 133.618 43.424 135.827 46.4058C137.091 48.1471 138.243 50.0455 138.333 52.1963C138.333 52.2914 138.333 52.3907 138.333 52.4858C138.333 52.5809 138.36 51.7165 138.333 52.126C138.333 52.2873 138.333 52.4444 138.297 52.6057C138.272 52.8572 138.223 53.1062 138.153 53.3502C138.01 53.8155 137.79 54.2577 137.501 54.6614C136.601 55.9353 135.449 57.052 134.432 58.239C132.306 60.6689 130.367 63.2311 128.627 65.9072C127.91 66.9854 127.357 68.1488 126.984 69.365C126.746 70.3136 126.649 71.2876 126.696 72.2602C126.773 73.9285 127.401 75.5358 128.496 76.8678C129.707 78.4684 131.142 79.9078 132.33 81.5167C133.809 83.481 134.836 85.7018 135.35 88.0433C135.5 88.7636 135.604 89.4914 135.66 90.223C135.633 89.8797 135.692 89.5323 135.66 89.189C135.464 86.5985 134.638 84.0813 133.244 81.8227C132.132 80.0401 130.683 78.4767 129.315 76.8595C128.186 75.5111 127.092 74.0511 126.777 72.3388C126.732 72.1113 126.714 71.8838 126.692 71.6564C126.642 71.1145 126.647 72.2809 126.692 71.9624C126.692 71.8177 126.714 71.6729 126.732 71.5488C126.794 71.0409 126.909 70.5395 127.074 70.0516C127.52 68.7774 128.148 67.5633 128.942 66.4408C130.707 63.8272 132.639 61.3122 134.729 58.9091C135.696 57.8006 136.821 56.7418 137.613 55.5092C138.159 54.5558 138.406 53.4821 138.329 52.4072C138.37 51.5771 138.316 50.7452 138.166 49.9256C137.892 48.8927 137.456 47.9021 136.871 46.9849C134.711 43.3948 131.561 40.2307 128.375 37.3851L128.168 37.2031C128.192 37.3747 128.192 37.5485 128.168 37.7201C128.168 37.807 128.105 38.1792 128.168 38.2371L128.177 38.2247Z" fill="#263238"/>
<path d="M147.114 102.184C147.114 102.184 124.336 111.391 124.219 112.049C124.102 112.706 113.086 147.652 113.086 147.652L132.197 150.754L131.986 172.36H185.341L185.535 125.495C185.535 125.495 209.249 119.762 210.784 118.542C212.318 117.322 215.18 113.467 213.749 109.443C212.318 105.419 207.31 103.429 206.387 103.429C205.465 103.429 186.25 102.867 186.25 102.867C186.25 102.867 166.738 99.8516 166.126 99.8516C165.514 99.8516 147.114 102.184 147.114 102.184Z" fill="white" stroke="#263238" stroke-miterlimit="10"/>
<path d="M195.398 116.188C195.398 116.188 197.023 120.588 198.863 121.875" stroke="#263238" stroke-miterlimit="10"/>
<path d="M192.89 113.008C192.89 113.008 191.122 120.32 191.563 122.756" stroke="#263238" stroke-miterlimit="10"/>
<path d="M133.219 142.937L133.736 118.898" stroke="#263238" stroke-miterlimit="10"/>
<path d="M133.508 132.034L128.648 116.594" stroke="#263238" stroke-miterlimit="10"/>
<path d="M149.977 112.988L159.381 129.71L161.424 129.991L171.338 108.665L168.579 107.727L161.424 125.106H158.972L152.839 112.892L149.977 112.988Z" fill="#263238" stroke="#263238" stroke-miterlimit="10"/>
<path d="M159.375 129.703L160.495 150.933L163.974 155.351L166.53 149.151L161.418 129.984L159.375 129.703Z" fill="#263238" stroke="#263238" stroke-miterlimit="10"/>
<path d="M159.376 129.703L155.078 163.805L158.557 169.819L161.927 163.9L161.419 129.984L159.376 129.703Z" fill="#263238" stroke="#263238" stroke-miterlimit="10"/>
<path d="M148.131 99.642C148.131 99.642 146.597 99.642 146.394 100.581C146.192 101.52 143.636 109.978 141.998 111.388C140.36 112.799 140.873 113.738 141.692 113.266C142.511 112.795 145.166 110.445 145.881 109.978C146.597 109.511 147.519 111.479 147.618 112.513C147.717 113.547 148.334 113.829 150.687 113.829C153.041 113.829 159.273 116.178 159.273 116.178C159.273 116.178 165.712 113.283 167.04 112.232C168.367 111.182 167.346 109.415 168.268 108.944C169.191 108.472 171.418 110.636 173.277 110.354C175.135 110.073 173.785 109.32 173.07 108.381C172.354 107.443 169.798 102.273 168.777 100.3C167.755 98.3268 166.734 97.4044 165.303 97.2928C163.872 97.1811 148.131 99.642 148.131 99.642Z" fill="white" stroke="#263238" stroke-miterlimit="10"/>
<path d="M147.312 95.7904C147.312 95.7904 147.929 106.408 148.662 108.285C149.396 110.163 158.369 116.835 159.291 116.177C160.214 115.519 166.649 107.628 166.856 106.313C167.063 104.997 166.446 94.2891 166.446 94.2891C166.446 94.2891 160.416 97.1057 158.166 97.4821C155.916 97.8585 147.312 95.7904 147.312 95.7904Z" fill="white" stroke="#263238" stroke-miterlimit="10"/>
<path d="M159.703 101.081L148.079 103.443L147.508 96.875L159.703 101.081Z" fill="#263238" stroke="#263238" stroke-miterlimit="10"/>
<path d="M194.148 107.516C194.148 107.516 191.939 111.921 192.897 113.004C193.856 114.088 195.327 118.013 200.547 118.15C205.767 118.286 212.922 115.709 214.047 111.379C215.172 107.049 215.145 105.419 213.885 103.984C212.625 102.549 209.61 99.9222 207.549 100.191C205.488 100.46 194.148 107.516 194.148 107.516Z" fill="white" stroke="#263238" stroke-miterlimit="10"/>
<path d="M175.877 72.7081C175.877 72.7081 173.15 69.3207 171.233 68.3736C169.316 67.4264 166.373 65.7307 165.833 65.8671C165.293 66.0036 167.844 82.4733 167.844 82.4733C167.844 82.4733 170.13 85.1163 171.75 85.9269C173.37 86.7376 176.466 88.028 176.466 88.028C176.466 88.028 195.766 111.728 196.801 112.406C197.836 113.084 204.757 113.353 207.039 111.934C209.32 110.516 211.462 106.38 210.576 104.076C209.689 101.772 201.369 97.3631 197.611 95.2578C193.854 93.1526 178.527 81.0381 178.527 81.0381C178.527 81.0381 177.348 75.6861 177.2 75.1443C176.821 74.305 176.379 73.491 175.877 72.7081Z" fill="white" stroke="#263238" stroke-miterlimit="10"/>
<path d="M143.537 82.8281C143.537 82.8281 141.8 81.8893 140.778 82.7372C139.757 83.585 140.571 87.2454 141.287 89.0322C142.002 90.819 144.437 90.2523 144.437 90.2523C144.437 90.2523 146.277 96.5474 146.79 96.8286C147.303 97.1099 153.841 101.056 155.07 101.527C156.298 101.999 160.177 101.242 160.996 100.584C161.815 99.9265 167.656 95.3231 167.985 93.648C168.197 91.8694 168.299 90.0811 168.291 88.2919C168.291 88.2919 171.355 86.9766 171.661 85.3966C171.967 83.8167 172.278 80.2266 171.153 79.1926C170.851 78.9053 170.447 78.7278 170.015 78.6929C169.582 78.6579 169.15 78.7678 168.799 79.0023L167.472 74.0391L143.235 80.483L143.537 82.8281Z" fill="white" stroke="#263238" stroke-miterlimit="10"/>
<path d="M143.234 80.4793C143.234 80.4793 143.234 86.7702 143.644 86.9605C144.053 87.1508 145.277 86.9605 145.381 86.3029C145.484 85.6452 145.075 80.0078 145.075 80.0078L143.234 80.4793Z" fill="#263238" stroke="#263238" stroke-miterlimit="10"/>
<path d="M165.73 74.205C165.73 74.205 164.605 77.6792 165.118 78.1507C165.969 78.7867 166.855 79.3817 167.773 79.9334C167.773 79.9334 167.467 84.2555 168.286 84.5368C169.105 84.818 169.614 84.4458 169.614 83.4118C169.614 82.3778 168.795 78.9945 168.795 78.9945L167.467 74.0312L165.73 74.205Z" fill="#263238" stroke="#263238" stroke-miterlimit="10"/>
<path d="M160.909 84.8934C161.247 84.8934 161.521 84.4101 161.521 83.8139C161.521 83.2177 161.247 82.7344 160.909 82.7344C160.571 82.7344 160.297 83.2177 160.297 83.8139C160.297 84.4101 160.571 84.8934 160.909 84.8934Z" fill="#263238"/>
<path d="M151.401 85.6903C151.739 85.6903 152.013 85.207 152.013 84.6108C152.013 84.0146 151.739 83.5312 151.401 83.5312C151.063 83.5312 150.789 84.0146 150.789 84.6108C150.789 85.207 151.063 85.6903 151.401 85.6903Z" fill="#263238"/>
<path d="M153.547 89.0262C153.547 89.0262 155.693 90.3415 156.305 90.3415C156.917 90.3415 158.555 89.3984 159.064 88.8359" stroke="#263238" stroke-miterlimit="10"/>
<path d="M164.995 89.9688C164.995 89.9688 161.417 92.864 157.345 93.5382C153.273 94.2123 148.453 91.0938 148.453 91.0938" stroke="#263238" stroke-miterlimit="10"/>
<path d="M147.963 83.6749C147.963 83.6749 151.045 81.3959 153.138 82.0784L153.03 80.7135C151.991 80.4766 150.898 80.5347 149.895 80.8803C148.893 81.2258 148.028 81.8426 147.414 82.6492L147.963 83.6749Z" fill="#263238"/>
<path d="M163.116 81.3228C163.116 81.3228 160.033 79.0438 157.945 79.7263L158.053 78.3614C159.093 78.125 160.185 78.1835 161.188 78.529C162.19 78.8745 163.055 79.4909 163.669 80.297L163.116 81.3228Z" fill="#263238"/>
<path d="M142.578 71.8067C142.578 71.8067 145.728 67.2984 151.042 65.6812C156.357 64.064 160.942 65.3338 161.662 66.0948L162.4 66.8724L142.578 71.8067Z" fill="#263238" stroke="#263238" stroke-miterlimit="10"/>
<path d="M162.322 61.881C162.253 62.35 162.322 62.8273 162.521 63.2636C162.721 63.6999 163.043 64.0794 163.456 64.3626C163.785 64.6331 163.991 65.0086 164.032 65.4132L158.357 67.1751L157.457 66.2238C157.457 66.2238 158.515 63.9283 158.074 63.4982C157.633 63.068 154.775 61.9099 154.775 61.9099C154.775 61.9099 152.872 64.83 153.394 65.4297C153.916 66.0294 155.702 66.6705 155.702 66.6705L155.662 67.994L152.444 68.9867L149.123 69.8139L148.156 68.7964C148.156 68.7964 149.213 66.5009 148.777 66.0708C148.34 65.6406 145.474 64.4825 145.474 64.4825C145.474 64.4825 143.571 67.4026 144.097 68.0023C144.624 68.602 146.401 69.2431 146.401 69.2431L146.365 70.4839L140.632 71.8861C140.426 71.5264 140.372 71.1098 140.479 70.7156C140.655 70.2712 140.698 69.7917 140.604 69.327C140.509 68.8622 140.282 68.4291 139.944 68.0726C138.972 66.9766 137.055 67.4191 137.055 67.4191L141.807 81.6513L168.883 74.1526L164.338 59.875C164.338 59.875 162.475 60.4789 162.322 61.881Z" fill="#92E3A9" stroke="#263238" stroke-linecap="round" stroke-linejoin="round"/>
<path d="M130.267 144.223C130.267 144.223 120.025 140.972 118.477 140.915C116.929 140.857 110.08 145.588 108.609 147.685C107.138 149.782 107.205 156.557 108.159 157.777C109.113 158.997 117.001 161.297 118.401 160.958C119.8 160.619 130.924 147.143 130.924 147.143C130.924 147.143 131.226 145.307 130.267 144.223Z" fill="white" stroke="#263238" stroke-miterlimit="10"/>
<path d="M136.166 142.453C136.166 142.453 122.904 144.753 119.295 145.7C115.686 146.647 112.514 149.154 111.853 151.321C111.191 153.488 111.484 160.007 115.979 161.752C120.474 163.497 125.186 160.925 126.81 159.585C128.435 158.245 138.672 150.374 138.672 150.374C138.672 150.374 139.635 144.108 138.735 143.21C137.835 142.313 136.166 142.453 136.166 142.453Z" fill="white" stroke="#263238" stroke-miterlimit="10"/>
<path d="M148.18 135.345C148.869 135.077 149.495 134.686 150.02 134.195C150.758 133.451 151.861 133.724 151.64 135.416C151.42 137.107 148.841 138.799 148.841 138.799L148.18 135.345Z" fill="white" stroke="#263238" stroke-miterlimit="10"/>
<path d="M143.939 147.365C142.518 147.365 141.155 146.847 140.149 145.926C139.143 145.004 138.575 143.753 138.57 142.447L139.376 127.367H148.497L149.303 142.447C149.299 143.753 148.732 145.003 147.727 145.925C146.721 146.847 145.359 147.365 143.939 147.365Z" fill="white" stroke="#263238" stroke-miterlimit="10"/>
<path d="M139.245 129.805L138.57 142.453C138.611 143.736 139.194 144.954 140.196 145.849C141.198 146.744 142.54 147.244 143.936 147.244C145.333 147.244 146.675 146.744 147.677 145.849C148.679 144.954 149.262 143.736 149.303 142.453L148.628 129.805H139.245Z" fill="#92E3A9" stroke="#263238" stroke-linecap="round" stroke-linejoin="round"/>
<path d="M144.553 155.929V146.523H143.325V155.929L137.102 157.984V158.423H143.928H143.95H150.777V157.984L144.553 155.929Z" fill="white" stroke="#263238" stroke-miterlimit="10"/>
<path d="M135.273 143.951C135.273 143.951 135.723 140.229 136.232 138.67C136.74 137.11 142.127 136.771 143.157 136.771C143.349 136.754 143.543 136.776 143.725 136.833C143.907 136.891 144.073 136.984 144.213 137.106C144.353 137.228 144.463 137.376 144.535 137.54C144.608 137.704 144.641 137.881 144.633 138.057C144.557 138.599 144.044 138.533 142.865 139.009C141.686 139.484 139.179 140.498 139.179 140.498L138.959 141.106L140.331 140.593C143.211 139.939 148.305 138.802 148.832 138.802C149.57 138.802 149.939 139.753 150.011 140.092C150.083 140.432 149.561 140.969 149.561 140.969C149.561 140.969 150.96 141.04 151.032 141.987C151.06 142.577 150.851 143.156 150.443 143.612C150.443 143.612 151.253 144.559 150.812 145.304C150.371 146.048 144.579 149.436 143.378 149.895C142.176 150.354 139.629 151.4 138.279 151.466C136.929 151.533 136.065 150.114 135.701 149.572" fill="white"/>
<path d="M135.273 143.951C135.273 143.951 135.723 140.229 136.232 138.67C136.74 137.11 142.127 136.771 143.157 136.771C143.349 136.754 143.543 136.776 143.725 136.833C143.907 136.891 144.073 136.984 144.213 137.106C144.353 137.228 144.463 137.376 144.535 137.54C144.608 137.704 144.641 137.881 144.633 138.057C144.557 138.599 144.044 138.533 142.865 139.009C141.686 139.484 139.179 140.498 139.179 140.498L138.959 141.106L140.331 140.593C143.211 139.939 148.305 138.802 148.832 138.802C149.57 138.802 149.939 139.753 150.011 140.092C150.083 140.432 149.561 140.969 149.561 140.969C149.561 140.969 150.96 141.04 151.032 141.987C151.06 142.577 150.851 143.156 150.443 143.612C150.443 143.612 151.253 144.559 150.812 145.304C150.371 146.048 144.579 149.436 143.378 149.895C142.176 150.354 139.629 151.4 138.279 151.466C136.929 151.533 136.065 150.114 135.701 149.572" stroke="#263238" stroke-miterlimit="10"/>
<path d="M149.572 140.969L138.812 144.22" stroke="#263238" stroke-miterlimit="10"/>
<path d="M150.456 143.609L139.773 148.01" stroke="#263238" stroke-miterlimit="10"/>
<path d="M138.151 141.578C138.151 141.578 137.562 142.525 137.701 143.27C137.815 143.798 137.966 144.318 138.151 144.829C138.151 144.829 137.701 146.455 138.003 146.996C138.251 147.386 138.576 147.73 138.961 148.01C139.079 148.335 139.282 148.628 139.552 148.865C139.822 149.101 140.15 149.273 140.509 149.366" stroke="#263238" stroke-miterlimit="10"/>
<path d="M136.236 138.672C136.13 139.618 136.364 140.569 136.902 141.381" stroke="#263238" stroke-miterlimit="10"/>
<path d="M181.254 84.9056C181.254 84.9056 179.778 75.9677 179.189 74.884C178.599 73.8004 173.222 70.9548 171.161 69.8711C169.1 68.7875 169.172 70.8886 169.91 72.1046C170.648 73.3206 175.359 75.4134 175.359 75.4134C175.359 75.4134 173.888 81.5761 174.698 83.4043C175.508 85.2324 177.938 86.1795 178.235 86.1795" fill="white"/>
<path d="M181.254 84.9056C181.254 84.9056 179.778 75.9677 179.189 74.884C178.599 73.8004 173.222 70.9548 171.161 69.8711C169.1 68.7875 169.172 70.8886 169.91 72.1046C170.648 73.3206 175.359 75.4134 175.359 75.4134C175.359 75.4134 173.888 81.5761 174.698 83.4043C175.508 85.2324 177.938 86.1795 178.235 86.1795" stroke="#263238" stroke-miterlimit="10"/>
<path d="M222.002 172.366L223.613 160.007L210.536 158.398L209.672 172.366H222.002Z" fill="white" stroke="#263238" stroke-miterlimit="10"/>
<path d="M209.281 113.172L210.307 142.869L209.691 156.228L222.169 157.638L223.6 145.23C223.6 145.23 213.579 114.582 213.169 114.02C212.76 113.457 209.281 113.172 209.281 113.172Z" fill="white" stroke="#263238" stroke-miterlimit="10"/>
<path d="M208.625 151.602C208.625 151.602 208.625 159.832 208.962 159.832C209.3 159.832 222.39 161.272 222.39 161.272V153.248L208.625 151.602Z" fill="white" stroke="#263238" stroke-miterlimit="10"/>
<path d="M219.927 148.141C220.121 148.588 221.772 169.967 221.957 172.362H269.913L266.362 147.579C266.362 147.579 264.931 119.454 263.5 114.863C262.069 110.272 256.953 104.713 253.15 103.77C249.348 102.827 236.379 100.461 236.379 100.461L220.319 103.939C220.319 103.939 209.888 111.93 209.272 113.15C208.655 114.37 210.172 123.118 212.242 128.756C214.312 134.393 219.734 147.674 219.927 148.141Z" fill="white" stroke="#263238" stroke-miterlimit="10"/>
<path d="M220.57 111.031L224.922 118.53L223.833 163.708L227.46 169.374L232.54 162.542L227.46 118.029L230.727 111.532L222.748 105.195L220.57 111.031Z" fill="#263238" stroke="#263238" stroke-miterlimit="10"/>
<path d="M217.367 109.602L217.673 115.992L221.764 112.046L217.367 109.602Z" fill="white" stroke="#263238" stroke-miterlimit="10"/>
<path d="M225.449 114.677L217.367 109.603L220.333 103.961L225.449 114.677Z" fill="white" stroke="#263238" stroke-miterlimit="10"/>
<path d="M208.671 76.0377C208.671 76.0377 205.193 83.8424 205.809 84.6862C206.34 85.5578 206.784 86.4714 207.137 87.416C207.137 87.416 203.658 91.7381 204.171 92.4909C204.684 93.2437 207.771 94.2777 207.771 94.2777C207.771 94.2777 210.737 104.899 212.271 105.275C213.806 105.652 216.461 104.146 216.461 104.146L225.46 114.677L228.322 107.157L233.421 97.3714L231.99 94.6458L231.684 91.5438C231.684 91.5438 234.955 88.4417 235.162 83.9293C235.369 79.4169 231.805 71.8107 231.292 71.1531C230.779 70.4954 220.942 69.1678 217.059 68.324C213.176 67.4803 211.943 67.8525 211.74 68.7914C211.538 69.7303 210.818 66.0657 209.283 67.0997C207.749 68.1338 207.344 70.2018 207.753 70.7684C208.163 71.335 203.969 69.5276 203.969 71.1448C203.969 72.762 206.012 75.7565 208.671 76.0377Z" fill="white" stroke="#263238" stroke-miterlimit="10"/>
<path d="M225.955 98.4132C227.08 96.4404 225.546 85.4385 226.059 84.5947C226.572 83.751 229.024 82.5267 230.761 84.0281C232.498 85.5295 232.111 88.4495 230.968 89.8599C230.362 90.6378 229.676 91.3608 228.921 92.0189L231.801 91.4316C232.377 90.8402 234.978 87.9491 235.162 83.9371C235.365 79.4247 231.805 71.8185 231.292 71.1609C230.779 70.5032 220.942 69.1756 217.059 68.3318C213.176 67.4881 211.943 67.8603 211.74 68.7992C211.538 69.7381 210.818 66.0735 209.283 67.1076C207.749 68.1416 207.344 70.2096 207.753 70.7762C208.163 71.3429 203.969 69.5354 203.969 71.1526C203.969 72.7698 206.012 75.756 208.671 76.0373C208.671 76.0373 217.671 75.4748 217.977 76.6039C218.283 77.733 215.628 80.1774 216.344 81.1163C217.059 82.0552 222.477 84.6857 222.477 84.6857L222.787 92.4077C222.787 92.4077 222.684 93.0654 221.253 92.598C219.822 92.1306 215.934 89.3884 213.788 90.3397C211.641 91.291 207.753 94.2896 207.753 94.2896C207.753 94.2896 210.719 104.911 212.253 105.287C213.788 105.664 216.443 104.158 216.443 104.158C216.443 104.158 224.83 100.386 225.955 98.4132Z" fill="#263238" stroke="#263238" stroke-miterlimit="10"/>
<path d="M210.467 88.2606C210.72 88.2606 210.926 87.7773 210.926 87.1811C210.926 86.5849 210.72 86.1016 210.467 86.1016C210.213 86.1016 210.008 86.5849 210.008 87.1811C210.008 87.7773 210.213 88.2606 210.467 88.2606Z" fill="#263238"/>
<path d="M208.156 85.1602C208.156 85.1602 209.281 82.8109 211.842 84.0311" stroke="#263238" stroke-miterlimit="10"/>
<path d="M210.727 95.4081L213.796 92.4922C213.796 92.4922 215.123 96.347 213.895 97.381C212.666 98.415 210.727 95.4081 210.727 95.4081Z" fill="white" stroke="#263238" stroke-miterlimit="10"/>
<path d="M225.544 110.258L225.445 114.675L228.919 110.725L225.544 110.258Z" fill="white" stroke="#263238" stroke-miterlimit="10"/>
<path d="M233.012 96.25L225.547 110.259L232.607 115.71L238.025 99.9145L233.012 96.25Z" fill="white" stroke="#263238" stroke-miterlimit="10"/>
<path d="M229.549 148.943C228.13 149.041 226.726 148.617 225.646 147.764C224.567 146.91 223.901 145.698 223.794 144.393L223.344 129.301L232.438 128.664L234.486 143.645C234.595 144.949 234.136 146.24 233.211 147.233C232.285 148.227 230.968 148.842 229.549 148.943Z" fill="white" stroke="#263238" stroke-miterlimit="10"/>
<path d="M223.422 131.747L223.777 144.395C223.885 145.7 224.553 146.911 225.632 147.763C226.712 148.615 228.116 149.038 229.535 148.939C230.954 148.839 232.272 148.226 233.199 147.234C234.126 146.241 234.586 144.951 234.478 143.647L232.777 131.094L223.422 131.747Z" fill="#92E3A9" stroke="#263238" stroke-linecap="round" stroke-linejoin="round"/>
<path d="M230.868 157.435L230.094 148.055L228.87 148.142L229.644 157.522L223.609 160.004L223.645 160.442L230.449 159.966L230.476 159.962L237.28 159.487L237.244 159.052L230.868 157.435Z" fill="white" stroke="#263238" stroke-miterlimit="10"/>
<path d="M259.71 140.153L246.004 147.768C246.004 147.768 241.4 144.872 239.051 141.94C236.702 139.007 233.116 137.241 232.4 137.427C231.685 137.614 223.707 139.495 223.297 140.438C222.888 141.382 222.073 142.974 223.198 143.541C224.323 144.107 226.06 141.659 226.06 141.659C226.06 141.659 230.357 141.096 230.762 141.001C231.167 140.906 226.879 142.693 226.469 143.445C226.06 144.198 222.172 147.486 222.478 148.711C222.784 149.935 223.707 149.649 223.707 149.649C223.707 149.649 224.116 151.531 225.547 151.155C226.978 150.779 229.232 148.711 229.637 148.429C230.042 148.148 234.344 148.144 234.857 148.053C235.37 147.962 230.762 149.368 230.254 149.931C229.745 150.493 227.9 152.751 228.206 153.24C228.512 153.728 230.56 152.958 231.172 152.582C231.784 152.206 234.038 151.263 234.038 151.263L238.232 151.829C238.232 151.829 241.706 154.178 243.448 154.274C244.641 154.31 245.836 154.278 247.025 154.178C247.435 154.178 258.072 151.263 259.094 150.87C260.115 150.477 268.994 147.768 268.994 147.768L259.71 140.153Z" fill="white" stroke="#263238" stroke-miterlimit="10"/>
<path d="M234.131 143.727C234.131 143.727 229.32 144.289 228.501 145.042C227.682 145.795 223.695 149.649 223.695 149.649" stroke="#263238" stroke-miterlimit="10"/>
<path d="M230.766 140.995L232.611 140.242" stroke="#263238" stroke-miterlimit="10"/>
<path d="M244.672 123.139C244.672 123.139 247.331 128.309 250.193 130.377C253.055 132.445 262.159 137.408 262.159 137.408L275.456 143.803C275.456 143.803 283.943 136.093 284.456 134.873C284.969 133.653 282.408 131.485 280.977 130.36C279.546 129.235 265.623 112.985 261.124 109.978C256.624 106.971 254.576 104.994 250.999 105.089" fill="white"/>
<path d="M244.672 123.139C244.672 123.139 247.331 128.309 250.193 130.377C253.055 132.445 262.159 137.408 262.159 137.408L275.456 143.803C275.456 143.803 283.943 136.093 284.456 134.873C284.969 133.653 282.408 131.485 280.977 130.36C279.546 129.235 265.623 112.985 261.124 109.978C256.624 106.971 254.576 104.994 250.999 105.089" stroke="#263238" stroke-miterlimit="10"/>
<path d="M265.625 133.476C265.625 133.476 272.784 130.841 273.09 130.75" stroke="#263238" stroke-miterlimit="10"/>
<path d="M271.981 125.867C271.981 125.867 264.822 132.634 264.516 133.291" stroke="#263238" stroke-miterlimit="10"/>
<path d="M267.992 120.031L263.492 134.512" stroke="#263238" stroke-miterlimit="10"/>
<path d="M263.497 134.512C263.497 134.512 257.359 139.306 258.38 140.621C259.402 141.936 268.73 149.832 269.221 149.741C269.711 149.65 276.69 144.757 276.789 143.818C276.888 142.879 266.255 133.854 265.643 133.478C265.031 133.102 263.497 134.512 263.497 134.512Z" fill="white" stroke="#263238" stroke-miterlimit="10"/>
<path d="M67.5769 96.9522C67.5769 96.9522 39.6774 105.923 39.3894 107.4C39.1014 108.876 39.5424 135.603 39.3894 144.211C39.2364 152.818 38.8359 172.356 38.8359 172.356H89.478L91.521 143.106C91.521 143.106 95.7554 151.962 96.9209 153.033C98.0863 154.104 109.188 143.905 109.188 143.905L105.097 125.251C105.097 125.251 103.347 109.145 103.054 108.206C102.762 107.267 91.224 101.767 84.0691 98.9458C76.9142 96.125 68.5984 96.8033 67.5769 96.9522Z" fill="white" stroke="#263238" stroke-miterlimit="10"/>
<path d="M68.589 113.16L72.3959 120.332L67.5 161.837L74.0294 168.839L78.2008 160.671L76.0228 120.162C76.0228 120.162 81.2832 114.661 81.4632 114.161C81.6432 113.66 81.4632 107.994 81.4632 107.994L71.6849 107.328L68.589 113.16Z" fill="#263238" stroke="#263238" stroke-miterlimit="10"/>
<path d="M97.388 117.453L91.5156 143.105L97.883 131.805" stroke="#263238" stroke-miterlimit="10"/>
<path d="M95.9844 139.032C95.9844 139.032 99.9578 134.896 105.727 136.654" stroke="#263238" stroke-miterlimit="10"/>
<path d="M109.42 137.93C109.42 137.93 106.337 136.276 105.046 136.648C103.754 137.021 96.5904 141.128 95.4969 143.87C94.4034 146.612 95.1999 151.455 95.7939 153.652C96.3879 155.848 101.644 157.581 104.051 157.035C106.459 156.489 109.901 154.553 110.414 153.192C110.927 151.832 112.601 141.587 109.42 137.93Z" fill="white" stroke="#263238" stroke-miterlimit="10"/>
<path d="M125.316 127.973C125.316 127.973 126.909 122.41 127.332 121.628C127.755 120.847 131.58 118.994 132.215 118.411C132.849 117.827 134.87 115.97 135.612 114.899C136.355 113.828 137.313 113.042 137.628 114.018C137.943 114.994 136.382 118.758 136.382 118.758L141.691 117.195C141.691 117.195 145.485 112.165 146.443 113.141C147.402 114.117 144.531 124.069 143.788 126.021C143.046 127.973 138.055 129.144 135.612 129.826C133.469 130.516 131.377 131.331 129.348 132.266C129.348 132.266 117.779 144.931 116.397 147.47C115.016 150.01 106.844 154.299 104.72 154.787C102.596 155.275 99.8332 155.176 98.6677 151.565C97.5022 147.954 99.0907 143.76 103.339 140.931C107.587 138.102 125.316 127.973 125.316 127.973Z" fill="white" stroke="#263238" stroke-miterlimit="10"/>
<path d="M144.72 122.757C144.72 122.757 146.012 117.273 144.324 118.005C142.637 118.737 142.034 124.767 142.034 124.767C142.034 124.767 136.467 124.585 135.284 124.585C134.1 124.585 130.212 125.044 129.119 126.413C128.025 127.782 127.922 128.701 127.922 128.701" stroke="#263238" stroke-miterlimit="10"/>
<path d="M136.38 118.734L133.586 120.381" stroke="#263238" stroke-miterlimit="10"/>
<path d="M110.041 125.764C108.663 125.861 107.299 125.452 106.248 124.626C105.197 123.801 104.545 122.626 104.434 121.359L103.984 106.659L112.845 106.039L114.879 120.61C114.931 121.241 114.847 121.875 114.632 122.476C114.417 123.076 114.074 123.632 113.625 124.111C113.175 124.59 112.627 124.982 112.012 125.266C111.397 125.55 110.728 125.719 110.041 125.764Z" fill="white" stroke="#263238" stroke-miterlimit="10"/>
<path d="M104.086 109.02L104.446 121.337C104.551 122.609 105.202 123.791 106.255 124.623C106.776 125.035 107.381 125.348 108.034 125.545C108.687 125.742 109.376 125.819 110.062 125.771C110.747 125.723 111.416 125.552 112.029 125.266C112.643 124.981 113.189 124.587 113.637 124.108C114.085 123.629 114.426 123.073 114.64 122.473C114.854 121.872 114.938 121.239 114.886 120.609L113.216 108.383L104.086 109.02Z" fill="#92E3A9" stroke="#263238" stroke-linecap="round" stroke-linejoin="round"/>
<path d="M111.327 134.035L110.571 124.898L109.383 124.981L110.139 134.118L104.258 136.537L104.294 136.963L110.922 136.5L110.945 136.496L117.573 136.033L117.537 135.611L111.327 134.035Z" fill="white" stroke="#263238" stroke-miterlimit="10"/>
<path d="M53.9381 102.195C53.9381 102.195 39.3673 104.813 38.3864 107.088C37.4054 109.363 41.2213 138.208 42.2158 143.783C43.2103 149.359 44.0158 156.125 47.9847 156.671C51.9536 157.217 60.8095 151.46 60.8095 151.46L59.6035 134.179C59.6035 134.179 60.103 123.12 59.4055 119.645C58.708 116.171 54.0371 112.424 54.0371 112.424" fill="white"/>
<path d="M53.9381 102.195C53.9381 102.195 39.3673 104.813 38.3864 107.088C37.4054 109.363 41.2213 138.208 42.2158 143.783C43.2103 149.359 44.0158 156.125 47.9847 156.671C51.9536 157.217 60.8094 151.46 60.8094 151.46L59.6035 134.179C59.6035 134.179 60.103 123.12 59.4055 119.645C58.708 116.171 54.0371 112.424 54.0371 112.424" stroke="#263238" stroke-miterlimit="10"/>
<path d="M52.045 136.562C49.1563 138.769 47.0736 141.737 46.0781 145.066" stroke="#263238" stroke-miterlimit="10"/>
<path d="M53.0419 136.469C53.0419 136.469 48.7625 137.201 46.4766 139.579" stroke="#263238" stroke-miterlimit="10"/>
<path d="M46.5703 112.609C46.5703 112.609 51.7407 113.25 54.7242 115.629" stroke="#263238" stroke-miterlimit="10"/>
<path d="M63.3809 134.37C63.4234 134.212 63.4278 134.048 63.3937 133.889C63.3596 133.73 63.2878 133.579 63.1835 133.448C63.0792 133.317 62.9449 133.209 62.7901 133.131C62.6352 133.053 62.4636 133.007 62.2874 132.997C60.8924 132.815 54.6375 133.911 53.832 134.279C53.0265 134.647 50.6506 138.572 50.1556 143.693C49.6606 148.813 55.326 155.484 55.9245 155.484C56.523 155.484 63.8758 153.288 64.4743 152.469C65.0728 151.65 65.3743 145.612 65.5678 145.248C65.7613 144.884 63.3809 134.37 63.3809 134.37Z" fill="white" stroke="#263238" stroke-miterlimit="10"/>
<path d="M97.1889 124.403C97.1889 124.403 101.761 114.989 102.062 114.348C102.364 113.707 107.035 111.242 107.332 111.242C107.629 111.242 114.293 112.52 114.887 112.702C115.257 112.829 115.578 113.053 115.809 113.348C116.04 113.643 116.17 113.994 116.183 114.357C116.183 115.184 115.684 115.453 115.09 115.271C114.496 115.089 112.997 114.266 112.7 114.266H108.326L107.426 115.362C107.426 115.362 110.126 115.362 110.806 115.544C111.485 115.726 115.481 117.008 116.377 117.281C116.748 117.405 117.07 117.63 117.3 117.925C117.53 118.22 117.659 118.572 117.668 118.935V119.485C117.719 120.078 117.617 120.673 117.371 121.222C116.971 121.95 114.982 122.591 114.982 122.591C114.982 122.591 113.096 123.779 111.8 124.784C110.504 125.789 105.635 127.803 105.635 127.803C105.635 127.803 105.635 129.631 102.935 130.454C100.827 131.017 98.6618 131.384 96.4734 131.55C96.4734 131.55 63.7725 148.26 62.679 148.81C61.5856 149.36 59.4976 146.432 59.2006 141.779C58.9036 137.126 60.1951 134.921 60.1951 134.921L97.1889 124.403Z" fill="white" stroke="#263238" stroke-miterlimit="10"/>
<path d="M117.673 119.466C117.673 119.466 110.118 118.734 109.717 118.734C109.317 118.734 104.844 119.921 104.844 119.921" stroke="#263238" stroke-miterlimit="10"/>
<path d="M107.436 115.352L104.75 116.084" stroke="#263238" stroke-miterlimit="10"/>
<path d="M114.997 122.578L109.822 122.942L104.953 124.224" stroke="#263238" stroke-miterlimit="10"/>
<path d="M71.3644 93.3138C71.3644 93.3138 68.4484 93.045 67.2785 94.3892C66.3915 95.4885 65.6101 96.6565 64.943 97.88C64.943 97.88 62.7515 119.487 64.214 117.874C65.6765 116.261 69.9064 112.257 69.9064 112.257C69.9064 112.257 69.7624 114.267 70.4914 114.672C71.2204 115.078 74.1408 115.086 74.1408 115.086C74.1408 115.086 78.2313 115.355 79.0907 114.279C79.6275 113.619 80.0692 112.897 80.4047 112.133C80.4047 112.133 83.6177 120.318 84.0541 118.44C84.4906 116.563 86.1016 105.424 86.5381 101.127C86.9746 96.8295 75.4548 92.2426 71.3644 93.3138Z" fill="white" stroke="#263238" stroke-miterlimit="10"/>
<path d="M102.036 73.7191C102.036 73.7191 102.765 79.4889 102.616 80.8331C102.468 82.1773 101.302 84.8574 101.595 85.5275C101.887 86.1975 104.533 88.886 103.633 89.8248C102.89 90.5395 102.056 91.1699 101.149 91.7026C101.149 91.7026 98.3729 98.0101 97.6439 99.2178C96.915 100.426 94.5795 100.694 92.694 100.426C90.8086 100.157 87.7441 99.619 87.7441 99.619C87.7441 99.619 85.9892 101.77 83.6537 104.855C81.3182 107.941 74.4559 114.653 74.1634 115.055C73.8709 115.456 70.3654 107.134 70.6579 103.246C70.9504 99.3584 70.9504 89.6883 70.9504 89.6883C70.9504 89.6883 71.2339 82.1732 76.1838 76.4034C81.1338 70.6336 96.1905 68.3505 97.9409 69.157C99.6914 69.9636 102.036 73.7191 102.036 73.7191Z" fill="white" stroke="#263238" stroke-miterlimit="10"/>
<path d="M98.79 92.5469L94.0695 90.1562C94.0695 90.1562 93.2596 95.0905 94.56 95.0905C95.8605 95.0905 98.79 92.5469 98.79 92.5469Z" stroke="#263238" stroke-miterlimit="10"/>
<path d="M87.7252 99.6186L83.5312 97.5547L84.1972 103.676L87.7252 99.6186Z" fill="#263238" stroke="#263238" stroke-miterlimit="10"/>
<path d="M79.9297 87.5078C79.9297 87.5078 80.4607 92.165 81.1267 93.0212" stroke="#263238" stroke-miterlimit="10"/>
<path d="M100.864 80.5668C99.9588 80.0432 98.8732 79.8493 97.8203 80.023C96.7673 80.1967 95.8228 80.7254 95.1719 81.5057" stroke="#263238" stroke-miterlimit="10"/>
<path d="M99.6915 83.7858C99.6915 84.4518 99.327 84.9936 98.877 84.9936C98.427 84.9936 98.0625 84.4518 98.0625 83.7858C98.0625 83.1199 98.427 82.5781 98.877 82.5781C99.327 82.5781 99.6915 83.1158 99.6915 83.7858Z" fill="#263238"/>
<path d="M82.0263 81.2372L84.0692 81.9072L84.2177 79.8971C84.5242 80.3224 84.9205 80.6867 85.3832 80.9683C85.9682 81.2372 89.3296 82.3126 89.3296 82.3126C89.3296 82.3126 87.7232 79.4918 87.7232 78.9541C87.7232 78.4164 89.7661 76.5386 90.6436 75.3309C91.5211 74.1232 94.1445 73.3208 94.1445 73.3208L93.2716 77.4568L96.192 75.0414L96.336 77.0556C97.572 76.7573 98.7901 76.3997 99.9854 75.9844C102.906 75.0414 104.512 72.626 104.661 69.9417C104.809 67.2574 103.198 65.5161 103.054 64.9784C102.91 64.4407 95.3145 61.2188 90.4951 61.2188C85.6757 61.2188 79.2453 62.6953 76.0414 64.1719C72.8374 65.6484 69.6155 68.6016 69.179 70.7482C68.7425 72.8948 69.4715 76.518 68.729 78.6687C67.9865 80.8194 64.9266 82.0644 65.9616 86.0681C66.9965 90.0718 74.5744 93.3144 75.1594 93.3144C75.7444 93.3144 75.3079 90.3613 75.3079 90.3613C75.3079 90.3613 76.3294 91.0355 77.0584 91.0355H78.9573L77.7063 89.0254L77.2023 88.1981C77.2023 88.1981 77.7873 86.8581 78.6648 84.7115C79.5423 82.5649 82.0263 81.2372 82.0263 81.2372Z" fill="#263238" stroke="#263238" stroke-miterlimit="10"/>
<path d="M83.4879 83.1165C83.4879 83.1165 81.004 77.4791 78.232 79.6298C75.4601 81.7806 76.7696 85.0067 77.782 86.475C78.7945 87.9433 80.851 88.2163 80.851 88.2163" fill="white"/>
<path d="M83.4879 83.1165C83.4879 83.1165 81.004 77.4791 78.232 79.6298C75.4601 81.7806 76.7696 85.0067 77.782 86.475C78.7945 87.9433 80.851 88.2163 80.851 88.2163" stroke="#263238" stroke-miterlimit="10"/>
<path d="M197.591 144.221C196.241 140.775 190.211 132.512 188.789 130.034C187.367 127.557 183.632 117.398 183.632 117.398L182.457 117.671V117.626L181.58 117.878L180.68 118.085V118.135L179.523 118.47C179.523 118.47 182.169 128.913 182.376 131.705C182.583 134.497 182.187 144.444 183.015 148.026C183.677 150.896 187.479 162.734 188.955 167.296C189.226 168.138 189.848 168.849 190.685 169.273C191.523 169.696 192.509 169.799 193.428 169.558L196.362 168.789L198.126 168.33L201.06 167.56C201.979 167.32 202.759 166.756 203.229 165.991C203.699 165.226 203.822 164.322 203.571 163.474C202.221 158.883 198.671 146.996 197.591 144.221Z" fill="#263238" stroke="#263238" stroke-miterlimit="10"/>
<path d="M183.492 117.439L179.667 118.435C179.548 118.467 179.423 118.476 179.299 118.463C179.175 118.45 179.056 118.415 178.947 118.359C178.838 118.303 178.742 118.228 178.665 118.138C178.588 118.049 178.531 117.946 178.497 117.836C178.463 117.726 178.453 117.61 178.467 117.497C178.481 117.383 178.52 117.273 178.581 117.173C178.641 117.073 178.723 116.985 178.82 116.915C178.918 116.844 179.03 116.791 179.15 116.76L182.97 115.759C183.213 115.697 183.472 115.725 183.692 115.837C183.912 115.949 184.075 116.137 184.145 116.359C184.212 116.582 184.181 116.82 184.059 117.021C183.937 117.223 183.733 117.373 183.492 117.439Z" fill="#263238" stroke="#263238" stroke-miterlimit="10"/>
<path d="M182.925 114.389L178.406 115.57L178.752 116.688L183.271 115.507L182.925 114.389Z" fill="#92E3A9" stroke="#263238" stroke-linecap="round" stroke-linejoin="round"/>
<path d="M200.063 152.116L185.477 155.93L188.993 167.291L203.579 163.478L200.063 152.116Z" fill="white" stroke="#263238" stroke-miterlimit="10"/>
<path d="M191.039 133.504C190.044 132.023 189.212 130.77 188.789 130.034C187.362 127.552 183.632 117.398 183.632 117.398L182.457 117.671V117.626L181.58 117.878L180.68 118.085V118.135L179.523 118.47C179.523 118.47 182.169 128.913 182.376 131.705C182.439 132.532 182.448 134.001 182.453 135.742L191.039 133.504Z" fill="#92E3A9" stroke="#263238" stroke-linecap="round" stroke-linejoin="round"/>
<path d="M203.836 172.359H183.744L179.438 142.906H208.142L203.836 172.359Z" fill="#A6A6A6" stroke="#263238" stroke-miterlimit="10"/>
<path d="M181.289 144.406L185.298 172.072H186.81L182.801 145.184L181.289 144.406Z" fill="#263238"/>
<path d="M182.609 144.406L186.619 172.072H188.126L184.117 145.184L182.609 144.406Z" fill="white"/>
<path d="M179.438 142.906L193.792 157.635L208.142 142.906H179.438Z" fill="white" stroke="#263238" stroke-miterlimit="10"/>
<path d="M211.178 148.891C211.179 149.239 211.067 149.58 210.857 149.871C210.647 150.161 210.348 150.387 209.997 150.521C209.647 150.655 209.262 150.691 208.89 150.623C208.517 150.556 208.175 150.388 207.907 150.142C207.638 149.896 207.455 149.582 207.381 149.24C207.307 148.898 207.344 148.544 207.489 148.221C207.634 147.899 207.88 147.624 208.195 147.43C208.511 147.236 208.881 147.133 209.261 147.133C209.512 147.132 209.761 147.177 209.994 147.265C210.227 147.354 210.438 147.483 210.616 147.646C210.794 147.809 210.935 148.003 211.032 148.217C211.128 148.431 211.178 148.659 211.178 148.891Z" fill="#A6A6A6" stroke="#263238" stroke-miterlimit="10"/>
<path d="M180.131 148.891C180.132 149.239 180.02 149.58 179.81 149.871C179.6 150.161 179.301 150.387 178.951 150.521C178.6 150.655 178.215 150.691 177.843 150.623C177.47 150.556 177.128 150.388 176.86 150.142C176.591 149.896 176.408 149.582 176.334 149.24C176.26 148.898 176.297 148.544 176.442 148.221C176.587 147.899 176.833 147.624 177.148 147.43C177.464 147.236 177.835 147.133 178.214 147.133C178.465 147.132 178.715 147.177 178.947 147.265C179.18 147.354 179.391 147.483 179.569 147.646C179.747 147.809 179.888 148.003 179.985 148.217C180.081 148.431 180.131 148.659 180.131 148.891Z" fill="#A6A6A6" stroke="#263238" stroke-miterlimit="10"/>
<path d="M6.40625 172.359H300.66" stroke="#263238" stroke-miterlimit="10"/>
</svg>
