<svg width="33" height="26" viewBox="0 0 33 26" fill="none" xmlns="http://www.w3.org/2000/svg">
<path d="M22.4142 3.25H17.985C17.5725 3.25 17.1755 3.40234 16.8713 3.67656L11.8027 8.24688C11.7975 8.25195 11.7923 8.26211 11.7872 8.26719C10.9313 9.05938 10.9467 10.3238 11.6789 11.1109C12.3337 11.8168 13.7105 12.0047 14.5716 11.248C14.5767 11.243 14.587 11.243 14.5922 11.2379L18.712 7.5207C19.0472 7.22109 19.5731 7.24141 19.8773 7.57149C20.1867 7.90156 20.1609 8.41445 19.8258 8.71914L18.48 9.93281L25.9875 15.9352C26.137 16.057 26.2711 16.1891 26.3948 16.3262V6.5L23.5795 3.72734C23.2753 3.42266 22.8525 3.25 22.4142 3.25ZM28.05 6.51016V17.8801C28.05 18.7789 28.7873 19.5051 29.7 19.5051H33V6.51016H28.05ZM30.525 17.8801C30.0712 17.8801 29.7 17.5145 29.7 17.0676C29.7 16.6207 30.0712 16.2551 30.525 16.2551C30.9788 16.2551 31.35 16.6207 31.35 17.0676C31.35 17.5145 30.9788 17.8801 30.525 17.8801ZM0 19.5H3.3C4.21266 19.5 4.95 18.7738 4.95 17.875V6.51016H0V19.5ZM2.475 16.2551C2.92875 16.2551 3.3 16.6207 3.3 17.0676C3.3 17.5145 2.92875 17.8801 2.475 17.8801C2.02125 17.8801 1.65 17.5145 1.65 17.0676C1.65 16.6156 2.02125 16.2551 2.475 16.2551ZM24.9511 17.1996L17.2528 11.0449L15.7059 12.4414C14.1745 13.8176 11.8284 13.6855 10.462 12.218C9.075 10.725 9.18328 8.41445 10.6889 7.05352L14.9067 3.25H10.5858C10.1475 3.25 9.72984 3.42266 9.42047 3.72734L6.6 6.5V17.8699H7.54359L12.21 22.0289C13.6228 23.1613 15.7008 22.948 16.8506 21.5566L16.8609 21.5465L17.7839 22.3336C18.6038 22.9938 19.8155 22.8668 20.4806 22.0594L22.0997 20.0992L22.3781 20.3227C23.0845 20.8863 24.1261 20.7848 24.6984 20.084L25.1883 19.4898C25.7658 18.7891 25.6575 17.7684 24.9511 17.1996Z" fill="white"/>
</svg>
