<svg width="300" height="259" viewBox="0 0 300 259" fill="none" xmlns="http://www.w3.org/2000/svg">
<path d="M294.375 252.536C294.375 255.576 229.268 258.041 148.969 258.041C68.6695 258.041 3.5625 255.576 3.5625 252.536C3.5625 249.497 68.6611 247.023 148.969 247.023C229.277 247.023 294.375 249.489 294.375 252.536Z" fill="#92E3A9"/>
<path opacity="0.5" d="M294.375 252.536C294.375 255.576 229.268 258.041 148.969 258.041C68.6695 258.041 3.5625 255.576 3.5625 252.536C3.5625 249.497 68.6611 247.023 148.969 247.023C229.277 247.023 294.375 249.489 294.375 252.536Z" fill="white"/>
<path d="M274.523 196.981C272.501 199.155 271.134 201.788 270.562 204.61L262.623 208.743V189.212L262.774 189.413L275.434 180.815C277.03 181.047 283.173 181.699 288.805 178.9C295.256 175.651 300.003 164.493 300.003 164.493C300.003 164.493 284.518 162.873 279.27 168.897C276.392 172.025 274.859 176.029 274.966 180.14L262.623 188.53V174.108C264.934 173.109 266.976 171.646 268.602 169.825C270.228 168.004 271.397 165.87 272.025 163.578C274.273 155.46 262.281 139.465 262.281 139.465C262.281 139.465 249.788 155.926 252.253 164.276C254.367 171.348 260.058 173.581 261.754 174.108V205.394L252.871 198.516C253.072 196.872 253.23 191.716 248.283 186.545C242.283 180.287 226.297 180.753 226.297 180.753C226.297 180.753 233.041 193.267 238.832 197.446C243.846 201.09 250.782 199.602 252.445 199.167L261.821 206.417V215.923H247.857L253.54 248.876H270.587L276.27 215.923H262.623V209.635L271.348 205.099C273.47 205.642 279.404 206.774 285.019 204.169C292.014 200.935 297.755 193.957 297.755 193.957C297.755 193.957 281.016 190.026 274.523 196.981Z" fill="#92E3A9"/>
<path opacity="0.5" d="M274.523 196.981C272.501 199.155 271.134 201.788 270.562 204.61L262.623 208.743V189.212L262.774 189.413L275.434 180.815C277.03 181.047 283.173 181.699 288.805 178.9C295.256 175.651 300.003 164.493 300.003 164.493C300.003 164.493 284.518 162.873 279.27 168.897C276.392 172.025 274.859 176.029 274.966 180.14L262.623 188.53V174.108C264.934 173.109 266.976 171.646 268.602 169.825C270.228 168.004 271.397 165.87 272.025 163.578C274.273 155.46 262.281 139.465 262.281 139.465C262.281 139.465 249.788 155.926 252.253 164.276C254.367 171.348 260.058 173.581 261.754 174.108V205.394L252.871 198.516C253.072 196.872 253.23 191.716 248.283 186.545C242.283 180.287 226.297 180.753 226.297 180.753C226.297 180.753 233.041 193.267 238.832 197.446C243.846 201.09 250.782 199.602 252.445 199.167L261.821 206.417V215.923H247.857L253.54 248.876H270.587L276.27 215.923H262.623V209.635L271.348 205.099C273.47 205.642 279.404 206.774 285.019 204.169C292.014 200.935 297.755 193.957 297.755 193.957C297.755 193.957 281.016 190.026 274.523 196.981Z" fill="white"/>
<path d="M239.9 10.2031H48.6736C43.2922 10.2031 38.9297 14.2508 38.9297 19.2438V131.058C38.9297 136.051 43.2922 140.099 48.6736 140.099H239.9C245.281 140.099 249.644 136.051 249.644 131.058V19.2438C249.644 14.2508 245.281 10.2031 239.9 10.2031Z" fill="#92E3A9" stroke="#263238" stroke-miterlimit="10" stroke-linecap="round"/>
<path opacity="0.7" d="M239.9 10.2031H48.6736C43.2922 10.2031 38.9297 14.2508 38.9297 19.2438V131.058C38.9297 136.051 43.2922 140.099 48.6736 140.099H239.9C245.281 140.099 249.644 136.051 249.644 131.058V19.2438C249.644 14.2508 245.281 10.2031 239.9 10.2031Z" fill="#92E3A9" stroke="#263238" stroke-miterlimit="10" stroke-linecap="round"/>
<path d="M127.808 82.8242H103.156V95.6564H127.808V82.8242Z" fill="white"/>
<path d="M127.808 97.9766H103.156V110.809H127.808V97.9766Z" fill="white"/>
<path d="M154.957 82.8242H130.305V95.6564H154.957V82.8242Z" fill="white"/>
<path d="M182.129 67.668H157.477V80.5002H182.129V67.668Z" fill="white"/>
<path d="M182.129 52.5078H157.477V65.34H182.129V52.5078Z" fill="white"/>
<path d="M182.129 24.4961H157.477V35.0255H182.129V24.4961Z" fill="#263238"/>
<path d="M154.957 24.4961H130.305V35.0255H154.957V24.4961Z" fill="#263238"/>
<path d="M154.957 97.9766H130.305V110.809H154.957V97.9766Z" fill="white"/>
<path d="M154.957 37.3516H130.305V50.1837H154.957V37.3516Z" fill="white"/>
<path d="M154.957 52.5078H130.305V65.34H154.957V52.5078Z" fill="white"/>
<path d="M154.957 67.668H130.305V80.5002H154.957V67.668Z" fill="white"/>
<path d="M182.129 97.9766H157.477V110.809H182.129V97.9766Z" fill="white"/>
<path d="M73.4771 37.3516H47.1953V50.1837H73.4771V37.3516Z" fill="white"/>
<path d="M73.4771 67.668H47.1953V80.5002H73.4771V67.668Z" fill="white"/>
<path d="M73.4771 82.8242H47.1953V95.6564H73.4771V82.8242Z" fill="white"/>
<path d="M73.4771 52.5078H47.1953V65.34H73.4771V52.5078Z" fill="white"/>
<path d="M238.086 24.4961H211.805V35.0255H238.086V24.4961Z" fill="#263238"/>
<path d="M73.4771 97.9766H47.1953V110.809H73.4771V97.9766Z" fill="white"/>
<path d="M209.285 37.3516H184.633V50.1837H209.285V37.3516Z" fill="white"/>
<path d="M182.129 82.8242H157.477V95.6564H182.129V82.8242Z" fill="white"/>
<path d="M209.285 82.8242H184.633V95.6564H209.285V82.8242Z" fill="white"/>
<path d="M209.285 52.5078H184.633V65.34H209.285V52.5078Z" fill="white"/>
<path d="M209.285 67.668H184.633V80.5002H209.285V67.668Z" fill="white"/>
<path d="M209.285 97.9766H184.633V110.809H209.285V97.9766Z" fill="white"/>
<path d="M182.129 37.3516H157.477V50.1837H182.129V37.3516Z" fill="white"/>
<path d="M238.086 97.9766H211.805V110.809H238.086V97.9766Z" fill="white"/>
<path d="M209.285 24.4961H184.633V35.0255H209.285V24.4961Z" fill="#263238"/>
<path d="M238.086 82.8242H211.805V95.6564H238.086V82.8242Z" fill="white"/>
<path d="M209.285 113.133H184.633V126.694H209.285V113.133Z" fill="white"/>
<path d="M238.086 67.668H211.805V80.5002H238.086V67.668Z" fill="white"/>
<path d="M154.957 113.133H130.305V126.694H154.957V113.133Z" fill="white"/>
<path d="M182.129 113.133H157.477V126.694H182.129V113.133Z" fill="white"/>
<path d="M238.086 52.5078H211.805V65.34H238.086V52.5078Z" fill="white"/>
<path d="M238.086 113.133H211.805V126.694H238.086V113.133Z" fill="white"/>
<path d="M73.4771 113.133H47.1953V126.694H73.4771V113.133Z" fill="white"/>
<path d="M238.086 37.3516H211.805V50.1837H238.086V37.3516Z" fill="white"/>
<path d="M73.4771 24.4961H47.1953V35.0255H73.4771V24.4961Z" fill="#263238"/>
<path d="M100.637 24.4961H75.9844V35.0255H100.637V24.4961Z" fill="#263238"/>
<path d="M100.637 82.8242H75.9844V95.6564H100.637V82.8242Z" fill="white"/>
<path d="M127.808 24.4961H103.156V35.0255H127.808V24.4961Z" fill="#263238"/>
<path d="M127.808 52.5078H103.156V65.34H127.808V52.5078Z" fill="white"/>
<path d="M100.637 97.9766H75.9844V110.809H100.637V97.9766Z" fill="white"/>
<path d="M127.808 37.3516H103.156V50.1837H127.808V37.3516Z" fill="white"/>
<path d="M100.637 37.3516H75.9844V50.1837H100.637V37.3516Z" fill="white"/>
<path d="M127.808 67.668H103.156V80.5002H127.808V67.668Z" fill="white"/>
<path d="M100.637 67.668H75.9844V80.5002H100.637V67.668Z" fill="white"/>
<path d="M100.637 113.133H75.9844V126.694H100.637V113.133Z" fill="white"/>
<path d="M100.637 52.5078H75.9844V65.34H100.637V52.5078Z" fill="white"/>
<path d="M127.808 113.133H103.156V126.694H127.808V113.133Z" fill="white"/>
<path d="M58.7938 17.4148C60.7553 17.4148 62.3454 15.9394 62.3454 14.1195C62.3454 12.2996 60.7553 10.8242 58.7938 10.8242C56.8323 10.8242 55.2422 12.2996 55.2422 14.1195C55.2422 15.9394 56.8323 17.4148 58.7938 17.4148Z" fill="white" stroke="#263238" stroke-miterlimit="10" stroke-linecap="round"/>
<path d="M74.3699 14.1194C74.3715 13.4654 74.164 12.8258 73.7734 12.2814C73.3829 11.737 72.827 11.3125 72.1761 11.0615C71.5253 10.8105 70.8088 10.7445 70.1175 10.8717C69.4261 10.9989 68.7911 11.3136 68.2927 11.776C67.7943 12.2384 67.4551 12.8277 67.318 13.4691C67.1809 14.1106 67.2521 14.7753 67.5226 15.3792C67.7931 15.9831 68.2506 16.4989 68.8374 16.8612C69.4241 17.2236 70.1135 17.4162 70.8183 17.4146C71.7602 17.4146 72.6636 17.0675 73.3297 16.4495C73.9957 15.8315 74.3699 14.9933 74.3699 14.1194Z" fill="white" stroke="#263238" stroke-miterlimit="10" stroke-linecap="round"/>
<path d="M58.8557 16.2676C58.3615 16.2676 57.8875 16.0855 57.538 15.7612C57.1885 15.4369 56.9922 14.9972 56.9922 14.5386V2.84618C56.9911 2.61846 57.0385 2.39279 57.1317 2.18212C57.2248 1.97144 57.3619 1.77992 57.5351 1.61854C57.7082 1.45716 57.914 1.32911 58.1407 1.24173C58.3673 1.15435 58.6103 1.10937 58.8557 1.10938C59.3522 1.10938 59.8283 1.29236 60.1794 1.61807C60.5304 1.94379 60.7276 2.38555 60.7276 2.84618V14.5386C60.7277 14.7663 60.6792 14.9918 60.585 15.2021C60.4908 15.4123 60.3528 15.6033 60.1789 15.764C60.0049 15.9246 59.7985 16.0518 59.5715 16.1383C59.3444 16.2247 59.1012 16.2687 58.8557 16.2676Z" fill="white" stroke="#263238" stroke-miterlimit="10" stroke-linecap="round"/>
<path d="M70.9964 16.2676C70.5021 16.2676 70.0281 16.0855 69.6787 15.7612C69.3292 15.4369 69.1328 14.9972 69.1328 14.5386V2.84618C69.1317 2.61846 69.1791 2.39279 69.2723 2.18212C69.3654 1.97144 69.5025 1.77992 69.6757 1.61854C69.8488 1.45716 70.0546 1.32911 70.2813 1.24173C70.5079 1.15435 70.7509 1.10937 70.9964 1.10938C71.4928 1.10938 71.969 1.29236 72.32 1.61807C72.6711 1.94379 72.8683 2.38555 72.8683 2.84618V14.5386C72.8683 14.7663 72.8198 14.9918 72.7256 15.2021C72.6315 15.4123 72.4934 15.6033 72.3195 15.764C72.1456 15.9246 71.9391 16.0518 71.7121 16.1383C71.485 16.2247 71.2418 16.2687 70.9964 16.2676Z" fill="white" stroke="#263238" stroke-miterlimit="10" stroke-linecap="round"/>
<path d="M222.714 14.1194C222.715 13.4654 222.508 12.8258 222.117 12.2814C221.727 11.737 221.171 11.3125 220.52 11.0615C219.869 10.8105 219.153 10.7445 218.461 10.8717C217.77 10.9989 217.135 11.3136 216.636 11.776C216.138 12.2384 215.799 12.8277 215.662 13.4691C215.525 14.1106 215.596 14.7753 215.866 15.3792C216.137 15.9831 216.594 16.4989 217.181 16.8612C217.768 17.2236 218.457 17.4162 219.162 17.4146C220.104 17.4146 221.007 17.0675 221.673 16.4495C222.339 15.8315 222.714 14.9933 222.714 14.1194Z" fill="white" stroke="#263238" stroke-miterlimit="10" stroke-linecap="round"/>
<path d="M231.184 17.4148C233.146 17.4148 234.736 15.9394 234.736 14.1195C234.736 12.2996 233.146 10.8242 231.184 10.8242C229.223 10.8242 227.633 12.2996 227.633 14.1195C227.633 15.9394 229.223 17.4148 231.184 17.4148Z" fill="white" stroke="#263238" stroke-miterlimit="10" stroke-linecap="round"/>
<path d="M219.223 16.2676C218.729 16.2676 218.255 16.0855 217.905 15.7612C217.556 15.4369 217.359 14.9972 217.359 14.5386V2.84618C217.358 2.61846 217.406 2.39279 217.499 2.18212C217.592 1.97144 217.729 1.77992 217.902 1.61854C218.075 1.45716 218.281 1.32911 218.508 1.24173C218.734 1.15435 218.977 1.10937 219.223 1.10938C219.719 1.10938 220.196 1.29236 220.547 1.61807C220.898 1.94379 221.095 2.38555 221.095 2.84618V14.5386C221.095 14.7663 221.046 14.9918 220.952 15.2021C220.858 15.4123 220.72 15.6033 220.546 15.764C220.372 15.9246 220.166 16.0518 219.939 16.1383C219.712 16.2247 219.468 16.2687 219.223 16.2676Z" fill="white" stroke="#263238" stroke-miterlimit="10" stroke-linecap="round"/>
<path d="M231.366 16.2676C231.118 16.2718 230.872 16.2301 230.642 16.145C230.412 16.06 230.203 15.9333 230.026 15.7723C229.85 15.6113 229.709 15.4193 229.614 15.2075C229.518 14.9957 229.469 14.7683 229.469 14.5386V2.84618C229.469 2.38555 229.666 1.94379 230.017 1.61807C230.368 1.29236 230.844 1.10938 231.341 1.10938C231.586 1.10937 231.829 1.15435 232.056 1.24173C232.282 1.32911 232.488 1.45716 232.661 1.61854C232.834 1.77992 232.972 1.97144 233.065 2.18212C233.158 2.39279 233.205 2.61846 233.204 2.84618V14.5386C233.204 14.9932 233.011 15.4295 232.667 15.7531C232.323 16.0767 231.856 16.2615 231.366 16.2676Z" fill="white" stroke="#263238" stroke-miterlimit="10" stroke-linecap="round"/>
<path d="M138.981 17.4148C140.943 17.4148 142.533 15.9394 142.533 14.1195C142.533 12.2996 140.943 10.8242 138.981 10.8242C137.02 10.8242 135.43 12.2996 135.43 14.1195C135.43 15.9394 137.02 17.4148 138.981 17.4148Z" fill="white" stroke="#263238" stroke-miterlimit="10" stroke-linecap="round"/>
<path d="M151.005 17.4148C152.966 17.4148 154.556 15.9394 154.556 14.1195C154.556 12.2996 152.966 10.8242 151.005 10.8242C149.043 10.8242 147.453 12.2996 147.453 14.1195C147.453 15.9394 149.043 17.4148 151.005 17.4148Z" fill="white" stroke="#263238" stroke-miterlimit="10" stroke-linecap="round"/>
<path d="M139.043 16.2676C138.549 16.2676 138.075 16.0855 137.726 15.7612C137.376 15.4369 137.18 14.9972 137.18 14.5386V2.84618C137.179 2.61846 137.226 2.39279 137.319 2.18212C137.412 1.97144 137.549 1.77992 137.723 1.61854C137.896 1.45716 138.102 1.32911 138.328 1.24173C138.555 1.15435 138.798 1.10937 139.043 1.10938C139.54 1.10938 140.016 1.29236 140.367 1.61807C140.718 1.94379 140.915 2.38555 140.915 2.84618V14.5386C140.915 14.7663 140.867 14.9918 140.772 15.2021C140.678 15.4123 140.54 15.6033 140.366 15.764C140.192 15.9246 139.986 16.0518 139.759 16.1383C139.532 16.2247 139.289 16.2687 139.043 16.2676Z" fill="white" stroke="#263238" stroke-miterlimit="10" stroke-linecap="round"/>
<path d="M151.176 16.2676C150.682 16.2676 150.208 16.0855 149.858 15.7612C149.509 15.4369 149.313 14.9972 149.313 14.5386V2.84618C149.311 2.61846 149.359 2.39279 149.452 2.18212C149.545 1.97144 149.682 1.77992 149.855 1.61854C150.029 1.45716 150.234 1.32911 150.461 1.24173C150.688 1.15435 150.931 1.10937 151.176 1.10938C151.422 1.10938 151.665 1.1543 151.892 1.24158C152.12 1.32886 152.326 1.4568 152.5 1.61807C152.674 1.77935 152.811 1.97081 152.905 2.18153C153 2.39225 153.048 2.6181 153.048 2.84618V14.5386C153.048 14.7663 152.999 14.9918 152.905 15.2021C152.811 15.4123 152.673 15.6033 152.499 15.764C152.325 15.9246 152.119 16.0518 151.892 16.1383C151.665 16.2247 151.421 16.2687 151.176 16.2676Z" fill="white" stroke="#263238" stroke-miterlimit="10" stroke-linecap="round"/>
<path d="M64.2629 53.625L51.8281 63.7977" stroke="#263238" stroke-width="2" stroke-linecap="round" stroke-linejoin="round"/>
<path d="M55.6484 53.625L64.2558 63.1154" stroke="#263238" stroke-width="2" stroke-linecap="round" stroke-linejoin="round"/>
<path d="M201.88 39.1562L189.445 49.3212" stroke="#263238" stroke-width="2" stroke-linecap="round" stroke-linejoin="round"/>
<path d="M193.273 39.1562L201.881 48.6466" stroke="#263238" stroke-width="2" stroke-linecap="round" stroke-linejoin="round"/>
<path d="M120.396 39.1562L107.953 49.3212" stroke="#263238" stroke-width="2" stroke-linecap="round" stroke-linejoin="round"/>
<path d="M111.781 39.1562L120.397 48.6466" stroke="#263238" stroke-width="2" stroke-linecap="round" stroke-linejoin="round"/>
<path d="M230.326 38.8711L217.883 49.0438" stroke="#263238" stroke-width="2" stroke-linecap="round" stroke-linejoin="round"/>
<path d="M221.711 38.8711L230.327 48.3615" stroke="#263238" stroke-width="2" stroke-linecap="round" stroke-linejoin="round"/>
<path d="M184.167 159.203C184.167 159.203 181.584 172.648 181.192 180.386C180.799 188.124 182.779 193.645 183.573 201.383C184.367 209.121 189.523 238.77 189.523 241.166C189.667 243.405 188.967 245.62 187.543 247.431C185.955 249.455 180.79 251.308 181.192 252.029C181.593 252.75 183.966 253.874 188.136 252.587C192.306 251.3 192.507 250.005 194.094 250.005C195.682 250.005 199.058 249.083 198.457 246.904C197.855 244.725 194.913 240.096 195.114 231.986C195.507 213.199 194.512 180.812 194.512 180.812L200.863 162.762L184.167 159.203Z" fill="white" stroke="#263238" stroke-linecap="round" stroke-linejoin="round"/>
<path d="M187.762 247.133L187.545 247.435C185.957 249.459 180.793 251.312 181.194 252.033C181.595 252.754 183.968 253.879 188.138 252.591C192.308 251.304 192.509 250.01 194.097 250.01C195.685 250.01 199.061 249.087 198.459 246.908C198.275 246.21 197.849 245.272 197.364 244.062C195.458 245.41 193.434 246.609 191.314 247.645C190.37 247.97 188.966 247.606 187.762 247.133Z" fill="#263238" stroke="#263238" stroke-linecap="round" stroke-linejoin="round"/>
<path d="M201.77 79.8085C201.77 79.8085 200.834 76.8466 200.191 74.2104C199.547 71.5742 204.369 70.4344 209.659 69.9459C214.949 69.4574 222.428 73.1171 224.634 78.9323C226.84 84.7475 224.985 106.271 225.211 110.97C225.436 115.669 225.938 128.687 220.798 129.501C215.659 130.315 210.252 130.633 205.756 122.461C201.26 114.289 206.191 92.7957 206.726 88.477C207.26 84.1582 202.038 80.4365 202.038 80.4365L201.77 79.8085Z" fill="#263238" stroke="#263238" stroke-linecap="round" stroke-linejoin="round"/>
<path d="M213.072 73.6992C213.072 73.6992 212.721 78.6305 216.264 81.259C219.808 83.8874 224.404 90.1291 224.404 95.0603" stroke="white" stroke-width="0.5" stroke-linecap="round" stroke-linejoin="round"/>
<path d="M219.805 87.1758C219.805 87.1758 222.312 95.7047 220.156 102.947" stroke="white" stroke-width="0.5" stroke-linecap="round" stroke-linejoin="round"/>
<path d="M192.543 161.516C192.543 161.516 188.365 179.039 192.218 194.181C193.27 198.322 209.508 235.462 210.786 241.401C212.065 247.34 212.065 252.69 214.63 254.768C217.196 256.846 218.809 255.954 217.505 249.123C216.63 245.309 215.225 241.616 213.327 238.137C213.327 238.137 208.521 209.627 207.878 203.393C207.235 197.159 203.399 189.731 203.399 189.731L209.482 165.377L192.543 161.516Z" fill="white" stroke="#263238" stroke-linecap="round" stroke-linejoin="round"/>
<path d="M216.672 245.906C216.363 247.457 215.695 248.798 214.299 248.542C213.646 248.427 213.043 248.135 212.568 247.703C212.092 247.271 211.764 246.719 211.625 246.116C212.252 250.039 212.762 253.272 214.625 254.776C217.182 256.854 218.803 255.963 217.5 249.132C217.29 248.043 217.014 246.966 216.672 245.906Z" fill="#263238" stroke="#263238" stroke-linecap="round" stroke-linejoin="round"/>
<path d="M211.427 244.355H211.352C211.352 244.495 211.393 244.635 211.418 244.766C211.414 244.629 211.417 244.492 211.427 244.355Z" fill="#263238" stroke="#263238" stroke-linecap="round" stroke-linejoin="round"/>
<path d="M198.327 101.449C196.324 101.895 194.576 103.024 193.43 104.613C191.759 107.179 176.191 118.042 174.703 119.22C173.216 120.399 173.425 126.33 177.21 126.33C180.996 126.33 193.815 117.251 193.815 117.251C193.815 117.251 197.642 112.901 198.921 108.955C200.199 105.008 201.094 101.845 198.327 101.449Z" fill="white" stroke="#263238" stroke-linecap="round" stroke-linejoin="round"/>
<path d="M202.581 91.3839C201.094 91.3839 199.623 94.6249 199.623 94.6249L198.219 94.8188C199.481 93.4309 201.094 91.3839 201.094 91.3839C202.364 89.4068 201.929 86.4449 201.094 86.6465C200.258 86.8481 194.709 88.8175 193.857 89.8022C193.005 90.7869 190.447 98.6878 189.603 99.4787C188.759 100.27 174.703 116.854 173.216 120.413C171.728 123.972 175.765 128.314 179.174 126.143C182.584 123.972 185.559 117.25 186.846 112.543C188.133 107.837 193.447 98.9127 193.447 98.9127C193.447 98.9127 194.684 97.9822 195.954 96.9433C197.342 96.6188 198.709 96.2228 200.049 95.757C200.885 95.3615 203.241 92.5935 203.241 92.5935C203.241 92.5935 204.069 91.3839 202.581 91.3839Z" fill="white" stroke="#263238" stroke-linecap="round" stroke-linejoin="round"/>
<path d="M199.007 84.9954L194.695 91.3378C194.464 91.6768 194.376 92.0822 194.445 92.4777C194.514 92.8732 194.737 93.2316 195.071 93.4856L197.034 94.982C197.225 95.1266 197.447 95.2326 197.685 95.2933C197.922 95.354 198.171 95.368 198.415 95.3345C198.658 95.3009 198.892 95.2205 199.1 95.0984C199.309 94.9763 199.488 94.8152 199.625 94.6253L204.196 88.3372C204.45 87.986 204.549 87.5579 204.473 87.141C204.397 86.7242 204.151 86.3503 203.787 86.0964L201.564 84.5457C201.367 84.4107 201.143 84.3148 200.905 84.2642C200.666 84.2135 200.419 84.2092 200.179 84.2514C199.939 84.2937 199.711 84.3815 199.509 84.5096C199.307 84.6376 199.136 84.803 199.007 84.9954Z" fill="#263238" stroke="#263238" stroke-linecap="round" stroke-linejoin="round"/>
<path d="M213.773 87.8789C213.773 87.8789 212.528 95.2836 212.177 98.1136C211.826 100.944 211.918 101.556 214.484 101.828C217.049 102.099 221.286 103.309 222.949 106.953C224.612 110.597 214.952 121.63 212.085 124.011C209.219 126.391 207.94 129.601 208.575 132.113C209.211 134.625 216.706 142.751 216.381 150.993C216.055 159.235 205.316 183.264 205.316 183.264C205.316 183.264 191.001 177.883 180.664 179.681C180.664 179.681 185.544 147.845 188.444 139.456C191.344 131.066 194.294 126.523 194.06 124.724C193.826 122.925 190.216 117.676 191.093 113.241C191.971 108.806 195.054 104.921 196.492 102.51C197.929 100.099 201.013 100.13 202.132 100.246C203.252 100.362 204.84 100.688 205.634 99.5636C206.428 98.4393 207.138 92.6396 207.138 92.6396L213.773 87.8789Z" fill="#92E3A9" stroke="#263238" stroke-linecap="round" stroke-linejoin="round"/>
<path d="M197.141 120.027L203.508 124.3" stroke="#263238" stroke-linecap="round" stroke-linejoin="round"/>
<path d="M203.033 138.496C203.033 138.496 196.649 149.801 195.203 157.88" stroke="#263238" stroke-linecap="round" stroke-linejoin="round"/>
<path d="M195.498 150.07C195.498 150.07 193.752 157.049 192.883 163.251" stroke="#263238" stroke-linecap="round" stroke-linejoin="round"/>
<path d="M220.672 104.789C220.672 104.789 218.541 105.782 216.201 109.139C213.861 112.496 211.73 118.218 212.156 119.598C212.582 120.979 216.627 118.614 216.627 118.614C216.627 118.614 220.897 136.377 224.708 135.005C232.371 132.237 222.159 106.177 222.159 106.177C222.159 106.177 222.159 105.2 220.672 104.789Z" fill="white" stroke="#263238" stroke-linecap="round" stroke-linejoin="round"/>
<path d="M204.225 107.217C199.896 106.224 201.05 102.394 202.128 100.238H202.169C203.297 100.362 204.877 100.68 205.671 99.556C206.465 98.4318 207.175 92.6321 207.175 92.6321L213.777 87.9102C213.777 87.9102 212.532 95.3148 212.181 98.1449C211.83 100.975 211.922 101.587 214.487 101.859C214.487 101.828 210.392 108.667 204.225 107.217Z" fill="white" stroke="#263238" stroke-linecap="round" stroke-linejoin="round"/>
<path d="M207.93 73.3789C207.523 75.4837 207.764 77.6521 208.623 79.636C210.052 82.5049 216.144 85.8389 216.144 85.8389C216.144 85.8389 218.543 83.5128 218.894 85.9862C219.245 88.4596 218.117 90.8787 216.337 90.84C214.557 90.8012 214.298 88.9636 214.298 88.9636C212.719 91.0936 210.4 92.6564 207.729 93.3909C202.999 94.8408 200.593 94.585 200.033 91.2122C199.473 87.8393 200.125 83.9781 201.779 79.7834C203.434 75.5887 207.27 73.4564 207.93 73.3789Z" fill="white" stroke="#263238" stroke-linecap="round" stroke-linejoin="round"/>
<path d="M225.561 102.241L225.779 99.0856C226.83 98.2201 227.824 97.2957 228.754 96.3176C230.032 94.9375 230.885 92.9603 231.946 93.7512C233.007 94.542 230.458 96.9146 230.458 96.9146L230.241 98.4653L234.503 97.2868C234.503 97.2868 238.548 93.5341 238.757 94.5188C238.966 95.5035 236.626 98.8608 234.929 100.644C233.233 102.427 228.119 102.97 228.119 102.97C228.119 102.97 227.901 118.764 227.901 123.509C227.901 128.255 227.266 133.589 225.779 134.566C224.291 135.543 219.603 134.76 220.673 127.061C221.742 119.361 225.561 102.241 225.561 102.241Z" fill="white" stroke="#263238" stroke-linecap="round" stroke-linejoin="round"/>
<path d="M216.63 118.632L215.352 114.879" stroke="#263238" stroke-linecap="round" stroke-linejoin="round"/>
<path d="M100.276 71.8633C100.276 71.8633 104.112 76.3759 104.504 77.3683C104.781 78.0912 105.01 78.8291 105.19 79.5781L107.697 81.2994C107.775 81.352 107.842 81.4191 107.892 81.4965C107.941 81.5739 107.974 81.66 107.986 81.7494C107.999 81.8388 107.991 81.9296 107.964 82.0162C107.938 82.1029 107.892 82.1835 107.83 82.2531L105.933 84.4163C105.933 84.4163 107.697 89.8438 107.605 90.6192C107.513 91.3946 101.387 93.3252 101.387 93.3252L100.819 97.4811L89.2032 97.3416L89.1614 89.6423L84.5234 79.5626C84.5234 79.5626 88.6767 72.2897 100.276 71.8633Z" fill="white" stroke="#263238" stroke-linecap="round" stroke-linejoin="round"/>
<path d="M98.2656 87.0496L99.8283 86.8945C99.9878 87.5398 100.288 88.1479 100.711 88.6813C101.133 89.2147 101.669 89.6621 102.285 89.996" fill="white"/>
<path d="M98.2656 87.0496L99.8283 86.8945C99.9878 87.5398 100.288 88.1479 100.711 88.6813C101.133 89.2147 101.669 89.6621 102.285 89.996" stroke="#263238" stroke-linecap="round" stroke-linejoin="round"/>
<path d="M86.9873 72.1176C86.9873 72.1176 82.6 72.3115 82.6251 77.9483C82.6502 83.5852 88.8007 88.8033 89.135 89.633C89.4692 90.4626 92.7618 90.0749 95.0766 89.2763C96.3713 88.8848 97.4867 88.1011 98.2438 87.051C98.2438 87.051 96.0292 84.0581 96.4805 83.1742C96.9318 82.2903 99.3051 83.1355 99.3051 83.1355C99.8305 82.8587 100.305 82.5053 100.709 82.0887C101.11 81.5692 103.258 79.3285 101.77 78.1499C100.283 76.9714 97.968 76.258 98.9959 74.7693C100.024 73.2807 103.701 71.8307 102.623 68.6285C101.545 65.4263 99.1379 65.5271 97.1323 66.5738C95.1267 67.6205 94.5752 64.2477 90.6726 66.1629C86.77 68.078 85.6753 70.877 86.9873 72.1176Z" fill="#263238" stroke="#263238" stroke-linecap="round" stroke-linejoin="round"/>
<path d="M92.117 83.1602C92.0339 83.7573 92.0339 84.3618 92.117 84.959" stroke="white" stroke-width="0.5" stroke-linecap="round" stroke-linejoin="round"/>
<path d="M98.8887 74.1016C98.8887 74.1016 98.053 75.536 94.7103 78.3195C93.5387 79.2946 92.7067 80.5713 92.3203 81.987" stroke="white" stroke-width="0.5" stroke-linecap="round" stroke-linejoin="round"/>
<path d="M99.6739 76.9492C99.6739 76.9492 96.2727 81.2292 94.4844 82.5008" stroke="white" stroke-width="0.5" stroke-linecap="round" stroke-linejoin="round"/>
<path d="M133.946 72.3336C137.401 73.8753 141.051 75.0109 144.81 75.7142C144.81 75.7142 139.453 72.3491 134.272 71.5117C133.795 71.4497 133.536 72.1398 133.946 72.3336Z" fill="#263238" stroke="#263238" stroke-linecap="round" stroke-linejoin="round"/>
<path d="M132.944 97.8119L139.328 82.6459C139.328 82.6459 136.821 78.8234 136.821 77.6681C136.821 76.5128 140.816 72.3569 140.816 72.3569C140.816 72.3569 141.142 70.1006 142.88 71.1784C143.382 71.4987 143.786 71.9342 144.052 72.4423C144.319 72.9505 144.439 73.5141 144.401 74.0782C145.203 75.1269 145.931 76.2224 146.582 77.358C146.983 78.2574 143.189 83.2584 143.189 83.2584C143.189 83.2584 142.554 97.0366 140.883 101.774C139.211 106.511 138.793 107.496 137.682 108.884C136.57 110.272 131.289 107.83 131.289 107.83L132.944 97.8119Z" fill="white" stroke="#263238" stroke-linecap="round" stroke-linejoin="round"/>
<path d="M103.761 244.137L114.148 247.642C114.392 247.719 114.615 247.843 114.804 248.005C114.993 248.166 115.143 248.363 115.246 248.582C115.348 248.801 115.4 249.038 115.398 249.276C115.396 249.515 115.34 249.751 115.235 249.968C115.092 250.233 114.843 250.436 114.541 250.534C113.221 250.976 99.4989 255.341 95.496 253.767C95.0876 253.576 94.7432 253.286 94.5002 252.926C94.2571 252.567 94.1247 252.152 94.1172 251.728C94.2497 248.867 94.5875 246.018 95.1284 243.199C95.1284 243.199 100.226 245.44 103.761 244.137Z" fill="#263238" stroke="#263238" stroke-linecap="round" stroke-linejoin="round"/>
<path d="M115.249 249.978C115.358 249.776 115.419 249.554 115.426 249.327C115.433 249.101 115.387 248.876 115.29 248.668C112.416 249.963 106.307 252.39 100.741 252.483C98.5307 252.609 96.3121 252.434 94.1562 251.963C94.2093 252.344 94.3599 252.707 94.5955 253.023C94.831 253.339 95.1446 253.597 95.51 253.778C99.538 255.328 113.235 250.986 114.555 250.544C114.857 250.447 115.106 250.244 115.249 249.978Z" fill="white" stroke="#263238" stroke-linecap="round" stroke-linejoin="round"/>
<path d="M74.9573 241.21C74.9573 241.21 74.0213 249.204 74.5227 249.995C75.0241 250.785 76.52 251.32 79.0938 251.165C79.8828 251.149 80.6464 250.903 81.2763 250.462C81.9062 250.021 82.3706 249.407 82.6036 248.707C82.8376 248.134 82.2359 242.908 82.2192 241.993C82.2025 241.078 74.9573 241.21 74.9573 241.21Z" fill="#263238" stroke="#263238" stroke-linecap="round" stroke-linejoin="round"/>
<path d="M82.6361 247.207C81.8422 248.626 80.8311 249.533 78.2071 249.58C76.8576 249.63 75.5232 249.3 74.3797 248.634C74.3411 249.091 74.392 249.55 74.5301 249.991C75.0399 250.766 76.5274 251.316 79.1013 251.161C79.8903 251.145 80.6538 250.899 81.2837 250.458C81.9136 250.017 82.378 249.403 82.6111 248.703C82.684 248.207 82.6924 247.705 82.6361 247.207Z" fill="white" stroke="#263238" stroke-linecap="round" stroke-linejoin="round"/>
<path d="M109.317 149.228C106.878 150.347 104.306 151.198 101.654 151.763L78.6142 146.824C78.6142 146.824 77.085 158.811 77.1268 160.874C77.1685 162.936 77.9624 200.053 77.9624 200.053L74.8203 241.767C75.1462 242.389 75.6604 242.91 76.3001 243.265C76.9397 243.62 77.6771 243.795 78.422 243.767C79.9511 243.76 81.461 243.451 82.8511 242.86L92.7287 199.44L94.9265 245.535C94.9265 245.535 96.2887 246.752 99.3973 246.69C100.307 246.662 101.193 246.412 101.965 245.964C102.737 245.516 103.368 244.886 103.793 244.139C103.793 244.139 105.322 226.306 107.604 213.544C109.885 200.781 110.161 165.65 110.161 165.65L109.317 149.228Z" fill="white" stroke="#263238" stroke-linecap="round" stroke-linejoin="round"/>
<path d="M87.4062 155.516C90.428 156.123 93.5071 156.453 96.5986 156.5" stroke="#263238" stroke-linecap="round" stroke-linejoin="round"/>
<path d="M78.8594 153.211C78.8594 153.211 79.929 154.529 82.7619 154.529" stroke="#263238" stroke-linecap="round" stroke-linejoin="round"/>
<path d="M102.242 233.05C102.242 233.05 104.365 209.394 105.785 192.313C106.643 182.252 106.76 172.149 106.136 162.074C106.136 162.074 109.68 158.46 107.198 152.219" stroke="#263238" stroke-linecap="round" stroke-linejoin="round"/>
<path d="M102.241 235.68L101.18 243.239" stroke="#263238" stroke-linecap="round" stroke-linejoin="round"/>
<path d="M92.7042 199.447L90.1805 168.48L84.2891 163.223" stroke="#263238" stroke-linecap="round" stroke-linejoin="round"/>
<path d="M80.3609 132.23C80.4828 131.877 80.4779 131.498 80.3467 131.148C80.2155 130.798 79.9653 130.498 79.6338 130.292C77.0767 128.687 70.876 125.384 68.8955 129.733C68.3166 131.431 67.9137 133.175 67.6921 134.944C67.1406 138.425 67.3411 161.996 67.3662 164.407C67.3666 164.538 67.3497 164.668 67.3161 164.795C67.0988 165.718 66.1879 169.75 66.823 172.153C67.5333 174.89 68.8955 176.999 71.2103 177.581C73.5251 178.162 74.787 175.681 74.4276 174.161C74.0683 172.642 74.929 171.463 74.5697 169.943C74.2772 168.718 73.0237 165.516 72.5474 164.33C72.4323 164.037 72.4035 163.721 72.4638 163.415C73.1156 160.313 76.7675 142.922 77.0433 142.085C77.319 141.247 79.4583 134.936 80.3609 132.23Z" fill="white" stroke="#263238" stroke-linecap="round" stroke-linejoin="round"/>
<path d="M70.5156 172.676C70.5156 172.676 73.4655 174.591 73.8082 176.359" stroke="#263238" stroke-linecap="round" stroke-linejoin="round"/>
<path d="M71.4531 171.086C71.4531 171.086 73.793 172.505 74.4198 173.621" stroke="#263238" stroke-linecap="round" stroke-linejoin="round"/>
<path d="M71.875 169.479L72.7107 170.549C72.7107 170.549 73.1285 174.813 74.4321 174.177C75.7358 173.541 74.967 168.37 74.967 168.37C74.967 168.37 74.3068 167.106 72.2678 164.09" fill="white"/>
<path d="M71.875 169.479L72.7107 170.549C72.7107 170.549 73.1285 174.813 74.4321 174.177C75.7358 173.541 74.967 168.37 74.967 168.37C74.967 168.37 74.3068 167.106 72.2678 164.09" stroke="#263238" stroke-linecap="round" stroke-linejoin="round"/>
<path d="M71.7256 165.02C72.1762 166.548 72.1355 168.165 71.6086 169.672C70.8561 170.984 70.0189 172.252 69.1016 173.471C70.3268 174.558 71.4741 175.718 72.5362 176.945" stroke="#263238" stroke-linecap="round" stroke-linejoin="round"/>
<path d="M73.1967 104.258L65.6172 130.1C65.6172 130.1 71.9599 134.869 79.8236 134.753L84.8961 110.22C84.8961 110.22 79.2302 98.4115 73.1967 104.258Z" fill="#263238" stroke="#263238" stroke-linecap="round" stroke-linejoin="round"/>
<path d="M85.734 95.7831C85.734 95.7831 74.6029 100.916 73.5583 103.242C72.7226 105.18 75.2798 118.904 75.3299 121.316C75.3801 123.727 77.6029 144.445 78.2046 148.453C78.8063 152.462 93.2467 154.168 98.7454 152.625C104.244 151.082 109.35 150.492 109.317 149.205C109.283 147.918 108.548 137.017 108.849 134.931C109.149 132.845 111.481 117.198 111.481 117.198L132.465 113.167C132.465 113.167 133.434 112.624 133.459 109.104C133.462 105.781 133.278 102.461 132.908 99.1559C130.19 99.7609 127.379 99.9236 124.601 99.6366C119.537 99.2179 113.537 97.9541 112.467 98.2332C111.397 98.5123 104.11 97.1012 101.712 96.822C98.3777 96.4034 89.9124 93.7826 85.734 95.7831Z" fill="#263238" stroke="#263238" stroke-linecap="round" stroke-linejoin="round"/>
<path d="M76.3931 133.503L73.4766 110.809" stroke="white" stroke-width="0.5" stroke-linecap="round" stroke-linejoin="round"/>
<path d="M74.2722 120.685L72.8516 117.73" stroke="white" stroke-width="0.5" stroke-linecap="round" stroke-linejoin="round"/>
<path d="M111.478 117.16L103.297 118.385" stroke="white" stroke-width="0.5" stroke-linecap="round" stroke-linejoin="round"/>
<path d="M109.673 117.73L103.656 122.987" stroke="white" stroke-width="0.5" stroke-linecap="round" stroke-linejoin="round"/>
<path d="M128.088 100.316C128.088 100.316 122.422 108.202 108.617 111.171" stroke="white" stroke-width="0.5" stroke-linecap="round" stroke-linejoin="round"/>
</svg>
