<svg width="187" height="90" viewBox="0 0 187 90" fill="none" xmlns="http://www.w3.org/2000/svg">
<path d="M64.4883 45.3828V66.5156H59.3125V45.3828H64.4883ZM58.9609 39.8555C58.9609 39.0872 59.2214 38.4492 59.7422 37.9414C60.276 37.4336 60.9922 37.1797 61.8906 37.1797C62.7891 37.1797 63.4987 37.4336 64.0195 37.9414C64.5534 38.4492 64.8203 39.0872 64.8203 39.8555C64.8203 40.6107 64.5534 41.2422 64.0195 41.75C63.4987 42.2578 62.7891 42.5117 61.8906 42.5117C60.9922 42.5117 60.276 42.2578 59.7422 41.75C59.2214 41.2422 58.9609 40.6107 58.9609 39.8555ZM85.9727 62.4531V66.5156H70.0742V62.4531H85.9727ZM85.6016 48.4688L72.0078 66.5156H68.6094V63.332L82.125 45.3828H85.6016V48.4688ZM83.707 45.3828V49.4648H68.8828V45.3828H83.707ZM94.7031 36.5156V66.5156H89.5273V36.5156H94.7031ZM93.8828 55.1875H92.3594C92.3594 53.7161 92.5547 52.362 92.9453 51.125C93.3359 49.888 93.8893 48.8138 94.6055 47.9023C95.3216 46.9779 96.1745 46.2617 97.1641 45.7539C98.1667 45.2461 99.2734 44.9922 100.484 44.9922C101.526 44.9922 102.47 45.1419 103.316 45.4414C104.176 45.7279 104.911 46.1901 105.523 46.8281C106.135 47.4661 106.604 48.2995 106.93 49.3281C107.268 50.3438 107.438 51.5807 107.438 53.0391V66.5156H102.242V53C102.242 52.0234 102.099 51.2552 101.812 50.6953C101.526 50.1224 101.116 49.7122 100.582 49.4648C100.061 49.2174 99.4167 49.0938 98.6484 49.0938C97.8151 49.0938 97.099 49.2565 96.5 49.582C95.901 49.8945 95.4062 50.3307 95.0156 50.8906C94.638 51.4505 94.3516 52.0951 94.1562 52.8242C93.974 53.5534 93.8828 54.3411 93.8828 55.1875ZM123.629 62.0234V52.2773C123.629 51.5612 123.505 50.9427 123.258 50.4219C123.01 49.901 122.633 49.4974 122.125 49.2109C121.617 48.9245 120.973 48.7812 120.191 48.7812C119.501 48.7812 118.896 48.8984 118.375 49.1328C117.867 49.3672 117.477 49.6992 117.203 50.1289C116.93 50.5456 116.793 51.0273 116.793 51.5742H111.617C111.617 50.7018 111.826 49.875 112.242 49.0938C112.659 48.2995 113.251 47.5964 114.02 46.9844C114.801 46.3594 115.732 45.8711 116.812 45.5195C117.906 45.168 119.13 44.9922 120.484 44.9922C122.086 44.9922 123.512 45.2656 124.762 45.8125C126.025 46.3464 127.014 47.1536 127.73 48.2344C128.46 49.3151 128.824 50.6758 128.824 52.3164V61.5352C128.824 62.5898 128.889 63.4948 129.02 64.25C129.163 64.9922 129.371 65.6367 129.645 66.1836V66.5156H124.391C124.143 65.9818 123.954 65.3047 123.824 64.4844C123.694 63.651 123.629 62.8307 123.629 62.0234ZM124.352 53.6445L124.391 56.7109H121.129C120.322 56.7109 119.612 56.7956 119 56.9648C118.388 57.1211 117.887 57.3555 117.496 57.668C117.105 57.9674 116.812 58.332 116.617 58.7617C116.422 59.1784 116.324 59.6536 116.324 60.1875C116.324 60.7083 116.441 61.1771 116.676 61.5938C116.923 62.0104 117.275 62.3424 117.73 62.5898C118.199 62.8242 118.746 62.9414 119.371 62.9414C120.283 62.9414 121.077 62.7591 121.754 62.3945C122.431 62.0169 122.958 61.5612 123.336 61.0273C123.714 60.4935 123.915 59.9857 123.941 59.5039L125.426 61.7305C125.243 62.2643 124.97 62.8307 124.605 63.4297C124.241 64.0286 123.772 64.5885 123.199 65.1094C122.626 65.6302 121.936 66.0599 121.129 66.3984C120.322 66.737 119.384 66.9062 118.316 66.9062C116.949 66.9062 115.725 66.6328 114.645 66.0859C113.564 65.5391 112.711 64.7904 112.086 63.8398C111.461 62.8893 111.148 61.8086 111.148 60.5977C111.148 59.4779 111.357 58.4883 111.773 57.6289C112.19 56.7695 112.809 56.0469 113.629 55.4609C114.449 54.862 115.465 54.4128 116.676 54.1133C117.9 53.8008 119.299 53.6445 120.875 53.6445H124.352ZM145.113 62.0234V52.2773C145.113 51.5612 144.99 50.9427 144.742 50.4219C144.495 49.901 144.117 49.4974 143.609 49.2109C143.102 48.9245 142.457 48.7812 141.676 48.7812C140.986 48.7812 140.38 48.8984 139.859 49.1328C139.352 49.3672 138.961 49.6992 138.688 50.1289C138.414 50.5456 138.277 51.0273 138.277 51.5742H133.102C133.102 50.7018 133.31 49.875 133.727 49.0938C134.143 48.2995 134.736 47.5964 135.504 46.9844C136.285 46.3594 137.216 45.8711 138.297 45.5195C139.391 45.168 140.615 44.9922 141.969 44.9922C143.57 44.9922 144.996 45.2656 146.246 45.8125C147.509 46.3464 148.499 47.1536 149.215 48.2344C149.944 49.3151 150.309 50.6758 150.309 52.3164V61.5352C150.309 62.5898 150.374 63.4948 150.504 64.25C150.647 64.9922 150.855 65.6367 151.129 66.1836V66.5156H145.875C145.628 65.9818 145.439 65.3047 145.309 64.4844C145.178 63.651 145.113 62.8307 145.113 62.0234ZM145.836 53.6445L145.875 56.7109H142.613C141.806 56.7109 141.096 56.7956 140.484 56.9648C139.872 57.1211 139.371 57.3555 138.98 57.668C138.59 57.9674 138.297 58.332 138.102 58.7617C137.906 59.1784 137.809 59.6536 137.809 60.1875C137.809 60.7083 137.926 61.1771 138.16 61.5938C138.408 62.0104 138.759 62.3424 139.215 62.5898C139.684 62.8242 140.23 62.9414 140.855 62.9414C141.767 62.9414 142.561 62.7591 143.238 62.3945C143.915 62.0169 144.443 61.5612 144.82 61.0273C145.198 60.4935 145.4 59.9857 145.426 59.5039L146.91 61.7305C146.728 62.2643 146.454 62.8307 146.09 63.4297C145.725 64.0286 145.257 64.5885 144.684 65.1094C144.111 65.6302 143.421 66.0599 142.613 66.3984C141.806 66.737 140.868 66.9062 139.801 66.9062C138.434 66.9062 137.21 66.6328 136.129 66.0859C135.048 65.5391 134.195 64.7904 133.57 63.8398C132.945 62.8893 132.633 61.8086 132.633 60.5977C132.633 59.4779 132.841 58.4883 133.258 57.6289C133.674 56.7695 134.293 56.0469 135.113 55.4609C135.934 54.862 136.949 54.4128 138.16 54.1133C139.384 53.8008 140.784 53.6445 142.359 53.6445H145.836Z" fill="white"/>
<path d="M34.252 56.7646C40.2101 48.8669 36.0853 35.046 67.7089 6.41692L81 16.289C81 16.289 63.1258 36.0332 62.6675 36.5268C62.2092 37.0204 56.2511 31.0972 56.2511 31.0972C54.4178 34.2562 41.7715 49.3605 41.7715 77.0023C20.6891 60.2198 32.6052 62.1942 17.4809 49.8541C14.6276 47.526 22.9807 41.9564 22.9807 41.9564L17.9392 26.1611C17.9392 26.1611 4.91997 27.6419 0.336838 21.225C-1.95473 18.757 7.89139 -2.3266 16.3778 1.97442C19.0141 3.31053 16.8361 4.93605 21.8776 7.40407C26.919 9.8721 36.0853 0 36.0853 0V12.3402L27.3773 19.2506C27.3773 19.2506 30.5855 55.7774 34.252 56.7646Z" fill="#1DA86B"/>
</svg>
