<svg width="187" height="101" viewBox="0 0 187 101" fill="none" xmlns="http://www.w3.org/2000/svg">
<path d="M64.3398 55.5938V76.7266H59.1641V55.5938H64.3398ZM58.8125 50.0664C58.8125 49.2982 59.0729 48.6602 59.5938 48.1523C60.1276 47.6445 60.8438 47.3906 61.7422 47.3906C62.6406 47.3906 63.3503 47.6445 63.8711 48.1523C64.4049 48.6602 64.6719 49.2982 64.6719 50.0664C64.6719 50.8216 64.4049 51.4531 63.8711 51.9609C63.3503 52.4688 62.6406 52.7227 61.7422 52.7227C60.8438 52.7227 60.1276 52.4688 59.5938 51.9609C59.0729 51.4531 58.8125 50.8216 58.8125 50.0664ZM85.8242 72.6641V76.7266H69.9258V72.6641H85.8242ZM85.4531 58.6797L71.8594 76.7266H68.4609V73.543L81.9766 55.5938H85.4531V58.6797ZM83.5586 55.5938V59.6758H68.7344V55.5938H83.5586ZM94.5547 46.7266V76.7266H89.3789V46.7266H94.5547ZM93.7344 65.3984H92.2109C92.2109 63.9271 92.4062 62.5729 92.7969 61.3359C93.1875 60.099 93.7409 59.0247 94.457 58.1133C95.1732 57.1888 96.026 56.4727 97.0156 55.9648C98.0182 55.457 99.125 55.2031 100.336 55.2031C101.378 55.2031 102.322 55.3529 103.168 55.6523C104.027 55.9388 104.763 56.401 105.375 57.0391C105.987 57.6771 106.456 58.5104 106.781 59.5391C107.12 60.5547 107.289 61.7917 107.289 63.25V76.7266H102.094V63.2109C102.094 62.2344 101.951 61.4661 101.664 60.9062C101.378 60.3333 100.967 59.9232 100.434 59.6758C99.9128 59.4284 99.2682 59.3047 98.5 59.3047C97.6667 59.3047 96.9505 59.4674 96.3516 59.793C95.7526 60.1055 95.2578 60.5417 94.8672 61.1016C94.4896 61.6615 94.2031 62.306 94.0078 63.0352C93.8255 63.7643 93.7344 64.5521 93.7344 65.3984ZM123.48 72.2344V62.4883C123.48 61.7721 123.357 61.1536 123.109 60.6328C122.862 60.112 122.484 59.7083 121.977 59.4219C121.469 59.1354 120.824 58.9922 120.043 58.9922C119.353 58.9922 118.747 59.1094 118.227 59.3438C117.719 59.5781 117.328 59.9102 117.055 60.3398C116.781 60.7565 116.645 61.2383 116.645 61.7852H111.469C111.469 60.9128 111.677 60.0859 112.094 59.3047C112.51 58.5104 113.103 57.8073 113.871 57.1953C114.652 56.5703 115.583 56.082 116.664 55.7305C117.758 55.3789 118.982 55.2031 120.336 55.2031C121.938 55.2031 123.363 55.4766 124.613 56.0234C125.876 56.5573 126.866 57.3646 127.582 58.4453C128.311 59.526 128.676 60.8867 128.676 62.5273V71.7461C128.676 72.8008 128.741 73.7057 128.871 74.4609C129.014 75.2031 129.223 75.8477 129.496 76.3945V76.7266H124.242C123.995 76.1927 123.806 75.5156 123.676 74.6953C123.546 73.862 123.48 73.0417 123.48 72.2344ZM124.203 63.8555L124.242 66.9219H120.98C120.173 66.9219 119.464 67.0065 118.852 67.1758C118.24 67.332 117.738 67.5664 117.348 67.8789C116.957 68.1784 116.664 68.543 116.469 68.9727C116.273 69.3893 116.176 69.8646 116.176 70.3984C116.176 70.9193 116.293 71.388 116.527 71.8047C116.775 72.2214 117.126 72.5534 117.582 72.8008C118.051 73.0352 118.598 73.1523 119.223 73.1523C120.134 73.1523 120.928 72.9701 121.605 72.6055C122.283 72.2279 122.81 71.7721 123.188 71.2383C123.565 70.7044 123.767 70.1966 123.793 69.7148L125.277 71.9414C125.095 72.4753 124.822 73.0417 124.457 73.6406C124.092 74.2396 123.624 74.7995 123.051 75.3203C122.478 75.8411 121.788 76.2708 120.98 76.6094C120.173 76.9479 119.236 77.1172 118.168 77.1172C116.801 77.1172 115.577 76.8438 114.496 76.2969C113.415 75.75 112.562 75.0013 111.938 74.0508C111.312 73.1003 111 72.0195 111 70.8086C111 69.6888 111.208 68.6992 111.625 67.8398C112.042 66.9805 112.66 66.2578 113.48 65.6719C114.301 65.0729 115.316 64.6237 116.527 64.3242C117.751 64.0117 119.151 63.8555 120.727 63.8555H124.203ZM144.965 72.2344V62.4883C144.965 61.7721 144.841 61.1536 144.594 60.6328C144.346 60.112 143.969 59.7083 143.461 59.4219C142.953 59.1354 142.309 58.9922 141.527 58.9922C140.837 58.9922 140.232 59.1094 139.711 59.3438C139.203 59.5781 138.812 59.9102 138.539 60.3398C138.266 60.7565 138.129 61.2383 138.129 61.7852H132.953C132.953 60.9128 133.161 60.0859 133.578 59.3047C133.995 58.5104 134.587 57.8073 135.355 57.1953C136.137 56.5703 137.068 56.082 138.148 55.7305C139.242 55.3789 140.466 55.2031 141.82 55.2031C143.422 55.2031 144.848 55.4766 146.098 56.0234C147.361 56.5573 148.35 57.3646 149.066 58.4453C149.796 59.526 150.16 60.8867 150.16 62.5273V71.7461C150.16 72.8008 150.225 73.7057 150.355 74.4609C150.499 75.2031 150.707 75.8477 150.98 76.3945V76.7266H145.727C145.479 76.1927 145.29 75.5156 145.16 74.6953C145.03 73.862 144.965 73.0417 144.965 72.2344ZM145.688 63.8555L145.727 66.9219H142.465C141.658 66.9219 140.948 67.0065 140.336 67.1758C139.724 67.332 139.223 67.5664 138.832 67.8789C138.441 68.1784 138.148 68.543 137.953 68.9727C137.758 69.3893 137.66 69.8646 137.66 70.3984C137.66 70.9193 137.777 71.388 138.012 71.8047C138.259 72.2214 138.611 72.5534 139.066 72.8008C139.535 73.0352 140.082 73.1523 140.707 73.1523C141.618 73.1523 142.413 72.9701 143.09 72.6055C143.767 72.2279 144.294 71.7721 144.672 71.2383C145.049 70.7044 145.251 70.1966 145.277 69.7148L146.762 71.9414C146.579 72.4753 146.306 73.0417 145.941 73.6406C145.577 74.2396 145.108 74.7995 144.535 75.3203C143.962 75.8411 143.272 76.2708 142.465 76.6094C141.658 76.9479 140.72 77.1172 139.652 77.1172C138.285 77.1172 137.061 76.8438 135.98 76.2969C134.9 75.75 134.047 75.0013 133.422 74.0508C132.797 73.1003 132.484 72.0195 132.484 70.8086C132.484 69.6888 132.693 68.6992 133.109 67.8398C133.526 66.9805 134.145 66.2578 134.965 65.6719C135.785 65.0729 136.801 64.6237 138.012 64.3242C139.236 64.0117 140.635 63.8555 142.211 63.8555H145.688Z" fill="white"/>
<path d="M34.252 56.7646C40.2101 48.8669 36.0853 35.046 67.7089 6.41692L81 16.289C81 16.289 63.1258 36.0332 62.6675 36.5268C62.2092 37.0204 56.2511 31.0972 56.2511 31.0972C54.4178 34.2562 41.7715 49.3605 41.7715 77.0023C20.6891 60.2198 32.6052 62.1942 17.4809 49.8541C14.6276 47.526 22.9807 41.9564 22.9807 41.9564L17.9392 26.1611C17.9392 26.1611 4.91997 27.6419 0.336838 21.225C-1.95473 18.757 7.89139 -2.3266 16.3778 1.97442C19.0141 3.31053 16.8361 4.93605 21.8776 7.40407C26.919 9.8721 36.0853 0 36.0853 0V12.3402L27.3773 19.2506C27.3773 19.2506 30.5855 55.7774 34.252 56.7646Z" fill="#1DA86B"/>
</svg>
