<svg width="60" height="60" viewBox="0 0 60 60" fill="none" xmlns="http://www.w3.org/2000/svg">
<path d="M25.3719 44.2308C29.7853 38.077 26.7298 27.3077 50.1548 5.00005L60 12.6924C60 12.6924 46.7598 28.077 46.4203 28.4616C46.0809 28.8462 41.6674 24.2308 41.6674 24.2308C40.3095 26.6924 30.9419 38.4615 30.9419 60C15.3253 46.9231 24.152 48.4615 12.9488 38.8462C10.8353 37.0321 17.0227 32.6923 17.0227 32.6923L13.2883 20.3846C13.2883 20.3846 3.64442 21.5385 0.249509 16.5385C-1.44795 14.6154 5.84547 -1.81288 12.1317 1.53846C14.0845 2.57956 12.4712 3.84615 16.2056 5.76923C19.94 7.69231 26.7298 0 26.7298 0V9.61543L20.2795 15.0001C20.2795 15.0001 22.6559 43.4616 25.3719 44.2308Z" fill="#1DA86B"/>
</svg>
