<svg width="35" height="35" viewBox="0 0 35 35" fill="none" xmlns="http://www.w3.org/2000/svg">
<circle cx="17.5" cy="17.5" r="17.5" fill="white"/>
<path d="M26.7994 18H25.3994C25.2894 18 25.1994 18.09 25.1994 18.2V26.2H8.79994V9.8H16.7997C16.9097 9.8 16.9997 9.71 16.9997 9.6V8.2C16.9997 8.09 16.9097 8 16.7997 8H7.79997C7.35749 8 7 8.3575 7 8.8V27.2C7 27.6425 7.35749 28 7.79997 28H26.1994C26.6419 28 26.9993 27.6425 26.9993 27.2V18.2C26.9993 18.09 26.9094 18 26.7994 18Z" fill="#253C51"/>
<path d="M13.0944 18.5725L13.0469 21.545C13.0444 21.7675 13.2244 21.95 13.4469 21.95H13.4569L16.4068 21.8775C16.4568 21.875 16.5068 21.855 16.5418 21.82L26.9389 11.445C27.0164 11.3675 27.0164 11.24 26.9389 11.1625L23.8316 8.0575C23.7916 8.0175 23.7416 8 23.6891 8C23.6366 8 23.5866 8.02 23.5466 8.0575L13.1519 18.4325C13.1158 18.4703 13.0953 18.5203 13.0944 18.5725ZM14.6818 19.1625L23.6891 10.175L24.819 11.3025L15.8068 20.295L14.6643 20.3225L14.6818 19.1625Z" fill="#253C51"/>
</svg>
