<svg width="996" height="506" viewBox="0 0 996 506" fill="none" xmlns="http://www.w3.org/2000/svg">
<path d="M234.69 354.584C275.514 305.25 247.251 218.917 463.931 40.0837L555 101.75C555 101.75 432.529 225.084 429.388 228.167C426.248 231.25 385.424 194.25 385.424 194.25C372.863 213.984 286.212 308.333 286.212 481C141.759 376.167 223.406 388.5 119.777 311.417C100.226 296.874 157.46 262.083 157.46 262.083L122.917 163.417C122.917 163.417 33.7109 172.667 2.30796 132.583C-13.3935 117.167 54.0706 -14.5332 112.218 12.3333C130.282 20.6795 115.359 30.8333 149.902 46.25C184.445 61.6667 247.251 0 247.251 0V77.0837L187.585 120.25C187.585 120.25 209.567 348.417 234.69 354.584Z" fill="#253C51"/>
<path d="M412.002 314.74C412.002 317.833 411.392 320.722 410.171 323.407C409.032 326.093 407.445 328.453 405.41 330.487C403.376 332.44 400.975 334.027 398.208 335.248C395.522 336.387 392.633 336.957 389.541 336.957C386.449 336.957 383.519 336.387 380.752 335.248C378.066 334.027 375.706 332.44 373.672 330.487C371.719 328.453 370.132 326.093 368.911 323.407C367.772 320.722 367.202 317.833 367.202 314.74C367.202 311.729 367.772 308.881 368.911 306.195C370.132 303.428 371.719 301.068 373.672 299.115C375.706 297.081 378.066 295.494 380.752 294.354C383.519 293.134 386.449 292.523 389.541 292.523C392.633 292.523 395.522 293.134 398.208 294.354C400.975 295.494 403.376 297.081 405.41 299.115C407.445 301.068 409.032 303.428 410.171 306.195C411.392 308.881 412.002 311.729 412.002 314.74ZM406.265 481H372.695V350.263H406.265V481ZM533.828 481H424.819L479.873 383.71H424.819V350.507H533.828L478.774 447.797H533.828V481ZM585.708 481H552.383V298.261H585.708V356C589.696 352.989 593.805 350.873 598.037 349.652C602.269 348.35 606.582 347.699 610.977 347.699C619.033 347.699 626.602 349.245 633.682 352.338C640.762 355.349 646.906 359.54 652.114 364.911C657.404 370.201 661.554 376.426 664.565 383.588C667.658 390.668 669.204 398.236 669.204 406.293V481H635.635V406.293H635.879C635.879 402.875 635.228 399.66 633.926 396.649C632.624 393.557 630.833 390.871 628.555 388.593C626.276 386.314 623.631 384.524 620.62 383.222C617.609 381.92 614.395 381.269 610.977 381.269C607.477 381.269 604.181 381.92 601.089 383.222C597.996 384.524 595.311 386.314 593.032 388.593C590.754 390.871 588.963 393.557 587.661 396.649C586.359 399.66 585.708 402.875 585.708 406.293V481ZM819.595 481H811.538L798.599 463.056C795.425 465.904 792.048 468.59 788.467 471.112C784.967 473.554 781.265 475.71 777.358 477.582C773.452 479.372 769.424 480.797 765.273 481.854C761.204 482.912 757.054 483.441 752.822 483.441C743.626 483.441 734.959 481.895 726.821 478.803C718.765 475.71 711.685 471.234 705.581 465.375C699.559 459.434 694.798 452.191 691.299 443.646C687.799 435.102 686.05 425.377 686.05 414.472C686.05 404.299 687.799 394.981 691.299 386.518C694.798 377.973 699.559 370.648 705.581 364.545C711.685 358.441 718.765 353.721 726.821 350.385C734.959 346.967 743.626 345.258 752.822 345.258C757.054 345.258 761.245 345.787 765.396 346.845C769.546 347.903 773.574 349.368 777.48 351.239C781.387 353.111 785.09 355.308 788.589 357.831C792.17 360.354 795.506 363.08 798.599 366.01L811.538 350.507H819.595V481ZM786.025 414.472C786.025 409.914 785.13 405.52 783.34 401.288C781.631 396.975 779.271 393.191 776.26 389.936C773.249 386.599 769.709 383.954 765.64 382.001C761.652 379.966 757.38 378.949 752.822 378.949C748.265 378.949 743.952 379.722 739.883 381.269C735.895 382.815 732.396 385.093 729.385 388.104C726.455 391.116 724.136 394.859 722.427 399.335C720.718 403.729 719.863 408.775 719.863 414.472C719.863 420.168 720.718 425.255 722.427 429.73C724.136 434.125 726.455 437.828 729.385 440.839C732.396 443.85 735.895 446.129 739.883 447.675C743.952 449.221 748.265 449.994 752.822 449.994C757.38 449.994 761.652 449.018 765.64 447.064C769.709 445.03 773.249 442.385 776.26 439.13C779.271 435.793 781.631 432.009 783.34 427.777C785.13 423.464 786.025 419.029 786.025 414.472ZM971.694 481H963.638L950.698 463.056C947.524 465.904 944.147 468.59 940.566 471.112C937.067 473.554 933.364 475.71 929.458 477.582C925.552 479.372 921.523 480.797 917.373 481.854C913.304 482.912 909.154 483.441 904.922 483.441C895.726 483.441 887.059 481.895 878.921 478.803C870.864 475.71 863.784 471.234 857.681 465.375C851.659 459.434 846.898 452.191 843.398 443.646C839.899 435.102 838.149 425.377 838.149 414.472C838.149 404.299 839.899 394.981 843.398 386.518C846.898 377.973 851.659 370.648 857.681 364.545C863.784 358.441 870.864 353.721 878.921 350.385C887.059 346.967 895.726 345.258 904.922 345.258C909.154 345.258 913.345 345.787 917.495 346.845C921.646 347.903 925.674 349.368 929.58 351.239C933.486 353.111 937.189 355.308 940.688 357.831C944.269 360.354 947.606 363.08 950.698 366.01L963.638 350.507H971.694V481ZM938.125 414.472C938.125 409.914 937.23 405.52 935.439 401.288C933.73 396.975 931.37 393.191 928.359 389.936C925.348 386.599 921.808 383.954 917.739 382.001C913.752 379.966 909.479 378.949 904.922 378.949C900.365 378.949 896.051 379.722 891.982 381.269C887.995 382.815 884.495 385.093 881.484 388.104C878.555 391.116 876.235 394.859 874.526 399.335C872.817 403.729 871.963 408.775 871.963 414.472C871.963 420.168 872.817 425.255 874.526 429.73C876.235 434.125 878.555 437.828 881.484 440.839C884.495 443.85 887.995 446.129 891.982 447.675C896.051 449.221 900.365 449.994 904.922 449.994C909.479 449.994 913.752 449.018 917.739 447.064C921.808 445.03 925.348 442.385 928.359 439.13C931.37 435.793 933.73 432.009 935.439 427.777C937.23 423.464 938.125 419.029 938.125 414.472Z" fill="#253C51"/>
</svg>
