<svg width="35" height="35" viewBox="0 0 35 35" fill="none" xmlns="http://www.w3.org/2000/svg">
<circle cx="17.5" cy="17.5" r="17.5" fill="white"/>
<path d="M16.1145 8.00036C15.933 7.99977 15.7509 7.99994 15.5683 8.00066C14.6895 8.00444 13.7967 8.0258 12.8962 8.05672L13.1567 9.1139C14.0944 9.01579 15.1225 8.94275 16.1505 8.90622C16.7074 8.88643 17.261 8.87599 17.7979 8.87862C19.4087 8.88639 20.8702 9.01155 21.8264 9.35436L22.2352 9.50104L22.0527 9.86989C20.7188 12.566 20.4104 15.1671 20.6194 17.7193C20.7226 14.6905 22.0832 11.9966 23.8694 8.54307C21.4388 8.16934 18.8374 8.00873 16.1145 8.00032V8.00036ZM17.4012 9.64773C17.0001 9.64803 16.5911 9.65555 16.1822 9.67007C14.2695 9.73802 12.3635 9.94569 11.1213 10.1838C12.5089 12.5654 13.6315 14.9525 14.3563 17.2796C14.4465 17.2768 14.5368 17.2774 14.6269 17.2815C14.8113 17.2899 14.9937 17.313 15.1719 17.349C14.4341 15.1662 13.5937 13.1531 12.549 11.143L12.313 10.6888L12.8493 10.601C14.1967 10.3802 15.5874 10.2948 16.911 10.2944C16.9993 10.2944 17.0873 10.2947 17.1749 10.2954C18.0159 10.3022 18.8265 10.3425 19.5774 10.4031L20.0848 10.4441L19.9368 10.895C19.0785 13.5095 18.9104 16.3173 19.3957 18.9888C19.4038 18.9957 19.4119 19.0026 19.4198 19.0096C19.5948 18.9529 19.7586 18.895 19.9112 18.8332C19.5323 15.971 19.7002 13.0182 21.115 9.94862C20.3255 9.76248 19.1219 9.66519 17.7994 9.6499C17.6667 9.64838 17.534 9.64763 17.4012 9.64773ZM24.0539 9.96136C22.6331 12.7455 21.6239 14.9765 21.4585 17.3851C22.3782 14.5481 24.1559 12.0049 26.1816 10.371C25.4785 10.2087 24.7687 10.072 24.0539 9.96136ZM10.5158 10.7483C9.65472 10.9125 8.81359 11.1211 8 11.4092C8.39592 11.7268 9.11165 12.3178 9.98005 13.1032C10.3797 12.7226 10.7873 12.3465 11.2125 12.0045C10.9873 11.5825 10.755 11.1637 10.5158 10.7483ZM17.0344 11.066C16.4092 11.0632 15.7693 11.0798 15.1271 11.1209C15.0597 11.702 14.6883 12.2456 14.2447 12.7802C14.953 14.329 15.5647 15.9094 16.1153 17.5874C16.9587 17.8176 17.7931 18.0897 18.469 18.4157C18.2179 16.6126 18.2523 14.765 18.5782 12.9581C17.9868 12.3929 17.6788 11.7652 17.6541 11.0751C17.4475 11.07 17.241 11.067 17.0344 11.066ZM25.3887 12.2121C24.2536 13.4564 23.2534 15.0149 22.5719 16.71C23.8232 15.063 25.362 13.7783 27 12.8708C26.4664 12.644 25.9292 12.4244 25.3887 12.2121ZM11.5852 12.7199C10.9154 13.28 10.2536 13.9523 9.5643 14.5927C11.0463 15.4077 12.3086 16.3729 13.3383 17.4661C13.4023 17.4438 13.4668 17.4237 13.5318 17.4054C13.0499 15.8725 12.3896 14.3038 11.5852 12.7199ZM22.2973 18.018C21.5447 18.8584 20.8362 19.3021 19.8605 19.6561C19.9703 20.0476 19.8073 20.4972 19.4321 20.841C19.2114 21.0432 18.9341 21.2737 18.5287 21.4234C18.5872 21.4555 18.6469 21.4856 18.7077 21.5138C19.2752 21.7758 20.2777 21.6913 21.2091 21.2993C22.1376 20.9086 22.9671 20.2337 23.2745 19.55C23.4286 19.1657 23.3186 18.9652 23.0489 18.6712C22.8568 18.4621 22.5763 18.2512 22.2973 18.0181V18.018ZM14.491 18.0429C13.9992 18.0388 13.4997 18.1701 13.0869 18.4574C12.4999 18.8661 12.0473 19.5949 12.0433 20.8329V20.8414L12.0428 20.8499C11.9088 23.4566 12.1163 24.6593 12.5273 25.3119C12.8901 25.8878 13.4935 26.1635 14.3761 26.6706C14.4181 26.5684 14.4619 26.4428 14.503 26.2842C14.6075 25.8808 14.694 25.3268 14.7488 24.7139C14.8584 23.4884 14.8424 22.0167 14.659 20.9578L14.5622 20.3976L15.1596 20.5248C16.6106 20.8337 17.4407 20.8702 17.9226 20.7915C18.4047 20.7128 18.568 20.5569 18.8507 20.2978C19.1165 20.0544 19.1115 19.9668 19.0553 19.8298C18.9989 19.6927 18.773 19.4669 18.3897 19.2508C17.6231 18.8187 16.3204 18.418 15.1028 18.1191C14.9031 18.0702 14.6975 18.0446 14.491 18.0429ZM23.1703 20.9909C22.7107 21.4052 22.1452 21.7452 21.5512 21.9952C20.5881 22.4004 19.5287 22.5858 18.6499 22.316C18.3396 22.4228 18.1594 22.5456 18.0684 22.6472C17.9437 22.7867 17.9359 22.8893 17.9782 23.0362C18.0204 23.1832 18.1464 23.3576 18.3022 23.4832C18.4579 23.6087 18.643 23.674 18.7134 23.677C20.8611 23.7714 21.7907 23.2011 22.9487 22.5396C23.2864 22.3467 23.4157 21.9559 23.3833 21.5657C23.3671 21.3706 23.3057 21.1873 23.2349 21.0718C23.2173 21.0423 23.1956 21.0151 23.1703 20.9909ZM15.5426 21.3772C15.6678 22.4418 15.6699 23.6839 15.5721 24.777C15.5149 25.4171 15.4264 25.9992 15.3064 26.4624C15.2542 26.6639 15.1968 26.8427 15.1274 27L21.8605 26.7254C21.7845 26.4643 21.707 26.2021 21.6296 25.9397C21.3709 26.0194 21.1065 26.0821 20.8383 26.1276L20.8403 26.1586L20.4586 26.1806C20.2236 26.2066 19.9789 26.221 19.725 26.2227L15.876 26.444L15.9905 25.951C16.3552 24.3794 16.3889 22.9956 16.1639 21.4818C15.9561 21.4507 15.7489 21.4158 15.5426 21.3772H15.5426ZM17.0101 21.5762C17.1913 22.9323 17.1695 24.2266 16.8997 25.6192L17.7838 25.5684C17.6452 25.3791 17.5499 25.1655 17.5039 24.9408C17.4444 24.6486 17.4775 24.3234 17.6841 24.0545C17.6932 24.0425 17.7031 24.0311 17.7128 24.0196C17.472 23.8139 17.2709 23.5498 17.1798 23.2329C17.0827 22.8955 17.1433 22.4825 17.4321 22.1597C17.5275 22.0531 17.6428 21.9569 17.7783 21.8703C17.6585 21.7819 17.5535 21.6883 17.4628 21.5907C17.3221 21.5916 17.1716 21.5868 17.0101 21.5762ZM23.0992 23.3507C22.0226 23.956 20.813 24.5346 18.6742 24.4406C18.6044 24.4375 18.535 24.4288 18.4668 24.4145C18.4102 24.438 18.38 24.4679 18.3575 24.4972C18.3133 24.5548 18.2872 24.6586 18.3157 24.7993C18.373 25.0807 18.6611 25.3892 18.9294 25.418C20.8289 25.6224 22.1413 25.0474 22.9382 24.3785C23.3054 24.0703 23.3085 23.8731 23.2544 23.6586C23.2274 23.5515 23.1677 23.4476 23.0992 23.3507ZM22.7925 25.4343C22.665 25.5083 22.5341 25.5772 22.4002 25.6407C22.4759 25.8977 22.5518 26.1547 22.6268 26.4117L23.5411 26.26C23.3052 26.0737 23.1206 25.8798 22.9724 25.6869C22.9062 25.6007 22.8479 25.5169 22.7925 25.4343Z" fill="#253C51"/>
</svg>
