<svg width="36" height="35" viewBox="0 0 36 35" fill="none" xmlns="http://www.w3.org/2000/svg">
<ellipse cx="18.4586" cy="17.5" rx="17.4899" ry="17.5" fill="white"/>
<path d="M8.96094 17.5625C8.96094 17.3409 9.0058 17.1215 9.09295 16.9167C9.1801 16.712 9.30785 16.526 9.46888 16.3693C9.62992 16.2126 9.8211 16.0883 10.0315 16.0035C10.2419 15.9186 10.4674 15.875 10.6952 15.875C10.9229 15.875 11.1484 15.9186 11.3588 16.0035C11.5692 16.0883 11.7604 16.2126 11.9215 16.3693C12.0825 16.526 12.2102 16.712 12.2974 16.9167C12.3846 17.1215 12.4294 17.3409 12.4294 17.5625V24.3125C12.4294 24.7601 12.2467 25.1893 11.9215 25.5057C11.5962 25.8222 11.1551 26 10.6952 26C10.2352 26 9.79412 25.8222 9.46888 25.5057C9.14365 25.1893 8.96094 24.7601 8.96094 24.3125V17.5625ZM13.5856 17.3746V23.4834C13.5854 23.9015 13.7049 24.3114 13.9308 24.6671C14.1566 25.0228 14.4799 25.3102 14.8643 25.4971L14.9221 25.5252C15.5636 25.8372 16.2709 25.9998 16.9881 26H23.2499C23.7847 26.0002 24.303 25.8201 24.7166 25.4902C25.1302 25.1604 25.4135 24.7013 25.5183 24.191L26.9057 17.441C26.9727 17.1146 26.9645 16.7778 26.8816 16.4549C26.7988 16.1319 26.6433 15.8309 26.4264 15.5735C26.2095 15.3161 25.9367 15.1087 25.6275 14.9663C25.3183 14.8239 24.9805 14.75 24.6385 14.75H20.5225V10.25C20.5225 9.65326 20.2789 9.08097 19.8453 8.65901C19.4116 8.23705 18.8235 8 18.2102 8C17.9036 8 17.6095 8.11853 17.3927 8.3295C17.1759 8.54048 17.054 8.82663 17.054 9.125V9.87538C17.054 10.849 16.7295 11.7964 16.1291 12.5754L14.5105 14.6746C13.9101 15.4536 13.5856 16.401 13.5856 17.3746Z" fill="#253C51"/>
</svg>
