<svg width="301" height="259" viewBox="0 0 301 259" fill="none" xmlns="http://www.w3.org/2000/svg">
<path d="M77.3281 6.10938V86.7722H232.541V6.10938H77.3281ZM227.074 82.2279H82.7951V10.6538H227.074V82.2279Z" fill="#B2B2B2" stroke="#B2B2B2" stroke-linecap="round" stroke-linejoin="round"/>
<path d="M82.6797 42.4629C82.6797 42.4629 130.268 20.2522 133.781 25.8929C137.293 31.5336 113.107 45.9904 123.249 51.279C133.391 56.5675 187.609 11.7883 197.349 22.3653C207.089 32.9424 179.798 61.1517 188.375 64.3271C196.953 67.5024 215.29 51.9834 219.167 55.8631C223.044 59.7429 212.927 75.2563 217.219 77.3694C221.511 79.4826 226.576 75.6085 226.576 75.6085" stroke="#B2B2B2" stroke-linecap="round" stroke-linejoin="round"/>
<path d="M164.695 24.9176C166.041 19.8023 162.545 14.6692 156.886 13.4524C151.227 12.2357 145.549 15.3961 144.203 20.5114C142.857 25.6267 146.353 30.7598 152.012 31.9766C157.67 33.1933 163.349 30.0329 164.695 24.9176Z" stroke="#B2B2B2" stroke-linecap="round" stroke-linejoin="round"/>
<path d="M104.364 19.9161C105.128 16.9781 103.113 14.0365 99.8626 13.3458C96.6126 12.6551 93.3585 14.4769 92.5944 17.4148C91.8304 20.3527 93.8456 23.2943 97.0956 23.985C100.346 24.6757 103.6 22.854 104.364 19.9161Z" stroke="#B2B2B2" stroke-linecap="round" stroke-linejoin="round"/>
<path d="M117.787 57.9796C117.792 58.4683 117.637 58.9474 117.34 59.3562C117.044 59.765 116.621 60.0852 116.123 60.2764C115.625 60.4676 115.076 60.5211 114.545 60.4301C114.014 60.3392 113.525 60.1079 113.139 59.7655C112.753 59.4231 112.488 58.985 112.378 58.5066C112.268 58.0282 112.317 57.5309 112.519 57.0777C112.721 56.6245 113.068 56.2357 113.514 55.9604C113.961 55.6852 114.488 55.5359 115.029 55.5314C115.388 55.5284 115.744 55.5893 116.077 55.7107C116.409 55.8321 116.713 56.0117 116.969 56.239C117.225 56.4663 117.429 56.7371 117.57 57.0357C117.71 57.3344 117.784 57.6551 117.787 57.9796Z" stroke="#B2B2B2" stroke-linecap="round" stroke-linejoin="round"/>
<path d="M214.941 28.1863C214.941 28.6357 214.794 29.075 214.518 29.4486C214.241 29.8223 213.849 30.1135 213.39 30.2855C212.93 30.4575 212.425 30.5025 211.937 30.4148C211.45 30.3271 211.002 30.1107 210.65 29.7929C210.299 29.4752 210.059 29.0703 209.962 28.6295C209.865 28.1888 209.915 27.7319 210.105 27.3167C210.296 26.9015 210.618 26.5467 211.031 26.297C211.445 26.0473 211.93 25.9141 212.428 25.9141C213.094 25.9141 213.734 26.1535 214.205 26.5796C214.676 27.0057 214.941 27.5836 214.941 28.1863Z" stroke="#B2B2B2" stroke-linecap="round" stroke-linejoin="round"/>
<path d="M176.257 78.1243C179.739 76.5837 181.18 72.7832 179.476 69.6357C177.772 66.4882 173.568 65.1856 170.086 66.7262C166.604 68.2667 165.163 72.0672 166.867 75.2147C168.571 78.3622 172.775 79.6648 176.257 78.1243Z" stroke="#B2B2B2" stroke-linecap="round" stroke-linejoin="round"/>
<path d="M8.71094 129.375H288.974" stroke="#B2B2B2" stroke-linecap="round" stroke-linejoin="round"/>
<path d="M19.7031 136.969H288.97" stroke="#B2B2B2" stroke-linecap="round" stroke-linejoin="round"/>
<path d="M8.71094 136.969H14.2534" stroke="#B2B2B2" stroke-linecap="round" stroke-linejoin="round"/>
<path d="M284.511 150.125H197.089C197.045 151.407 196.44 152.62 195.406 153.499C194.373 154.378 192.996 154.85 191.578 154.811V238.638C192.995 238.6 194.371 239.071 195.404 239.949C196.437 240.826 197.043 242.038 197.089 243.319C197.088 243.588 197.059 243.856 197.001 244.12H283.38" stroke="#B2B2B2" stroke-linecap="round" stroke-linejoin="round"/>
<path d="M9.79688 150.125H40.0163C40.027 150.75 40.1737 151.367 40.4483 151.941C40.7228 152.515 41.1197 153.034 41.6163 153.47C42.1129 153.905 42.6994 154.247 43.3425 154.477C43.9855 154.708 44.6724 154.821 45.364 154.811V238.638C43.9684 238.619 42.6212 239.1 41.6185 239.978C40.6157 240.856 40.0395 242.057 40.0163 243.319C40.018 243.588 40.0453 243.856 40.098 244.12H14.6983" stroke="#B2B2B2" stroke-linecap="round" stroke-linejoin="round"/>
<path d="M176.124 150.125H58.6642C58.6183 151.408 58.0107 152.623 56.9751 153.501C55.9394 154.38 54.5603 154.851 53.1406 154.811V238.638C54.5593 238.598 55.9374 239.069 56.9729 239.946C58.0084 240.824 58.6166 242.037 58.6642 243.319C58.6636 243.588 58.6341 243.856 58.5762 244.12H176.211C176.157 243.856 176.127 243.588 176.124 243.319C176.169 242.038 176.775 240.826 177.809 239.949C178.842 239.071 180.218 238.6 181.635 238.638V154.811C180.217 154.85 178.84 154.378 177.806 153.499C176.773 152.62 176.168 151.407 176.124 150.125Z" stroke="#B2B2B2" stroke-linecap="round" stroke-linejoin="round"/>
<path d="M279.547 51.7911C287.068 51.7911 293.164 46.2799 293.164 39.4815C293.164 32.6831 287.068 27.1719 279.547 27.1719C272.026 27.1719 265.93 32.6831 265.93 39.4815C265.93 46.2799 272.026 51.7911 279.547 51.7911Z" fill="white" stroke="#B2B2B2" stroke-linecap="round" stroke-linejoin="round"/>
<path d="M267.102 34.5132H292.011C290.946 32.3294 289.202 30.4728 286.991 29.1693C284.779 27.8659 282.196 27.1719 279.556 27.1719C276.916 27.1719 274.333 27.8659 272.122 29.1693C269.911 30.4728 268.166 32.3294 267.102 34.5132Z" fill="#636363" stroke="#636363" stroke-linecap="round" stroke-linejoin="round"/>
<path d="M279.672 24.8694V1" stroke="#636363" stroke-width="2" stroke-linecap="round" stroke-linejoin="round"/>
<path d="M280.975 23.7188H278.109V28.0359H280.975V23.7188Z" fill="#636363" stroke="#636363" stroke-linecap="round" stroke-linejoin="round"/>
<path d="M23.1642 51.7911C30.6848 51.7911 36.7815 46.2799 36.7815 39.4815C36.7815 32.6831 30.6848 27.1719 23.1642 27.1719C15.6435 27.1719 9.54688 32.6831 9.54688 39.4815C9.54688 46.2799 15.6435 51.7911 23.1642 51.7911Z" fill="white" stroke="#B2B2B2" stroke-linecap="round" stroke-linejoin="round"/>
<path d="M10.7188 34.5145H35.622C34.5564 32.3325 32.8121 30.4775 30.6014 29.1752C28.3907 27.873 25.809 27.1797 23.1704 27.1797C20.5317 27.1797 17.95 27.873 15.7393 29.1752C13.5287 30.4775 11.7844 32.3325 10.7188 34.5145Z" fill="#636363" stroke="#636363" stroke-linecap="round" stroke-linejoin="round"/>
<path d="M23.2891 24.8694V1" stroke="#636363" stroke-width="2" stroke-linecap="round" stroke-linejoin="round"/>
<path d="M24.5999 23.7188H21.7344V28.0359H24.5999V23.7188Z" fill="#636363" stroke="#636363" stroke-linecap="round" stroke-linejoin="round"/>
<path d="M253.547 120.859C253.547 120.859 253.874 158.101 253.874 167.934C253.874 177.766 253.547 236.667 253.547 236.667" stroke="#263238" stroke-width="3" stroke-linecap="round" stroke-linejoin="round"/>
<path d="M278.271 130.39L268.054 122.642L296.727 125.619L271.346 118.172L297.387 114.002H268.054L290.795 98.5057L265.088 110.128L279.918 87.1845L260.142 107.742L267.061 77.6526L254.21 105.657L252.89 74.375L250.257 106.254L236.232 78.09L245.972 108.935L224.99 88.2467L243.333 113.701L217.367 96.9549L241.686 118.172L214.156 104.572L239.38 119.961L216.563 117.274L238.72 122.937L220.981 125.619L239.38 125.022L228.502 131.577L254.21 125.323L278.271 130.39Z" fill="#92E3A9"/>
<path d="M278.271 211.619L268.054 203.876L296.727 206.853L271.346 199.406L297.387 195.236H268.054L290.795 179.74L265.088 191.362L279.918 168.419L260.142 188.977L267.061 158.887L254.21 186.892L252.89 155.609L250.257 187.488L236.232 159.324L245.972 190.169L224.99 169.487L243.333 194.935L217.367 178.189L241.686 199.406L214.156 185.807L239.38 201.195L216.563 198.508L238.72 204.172L220.981 206.853L239.38 206.257L228.502 212.812L254.21 206.558L278.271 211.619Z" fill="#92E3A9"/>
<path d="M243.656 158.398C243.656 158.398 242.669 166.141 243.329 169.123C244.028 172.563 244.358 176.056 244.315 179.553C244.315 183.421 244.648 199.883 244.648 202.564C244.648 205.245 244.315 228.03 244.315 230.115V237.266" stroke="#263238" stroke-width="3" stroke-linecap="round" stroke-linejoin="round"/>
<path d="M244.648 199.582C244.648 199.582 245.968 176.86 247.281 173.884C248.595 170.907 249.594 171.799 249.921 168.203C250.247 164.607 250.247 163.142 250.907 161.955C251.433 160.892 251.874 159.797 252.227 158.677L252.887 156.297" stroke="#263238" stroke-width="3" stroke-linecap="round" stroke-linejoin="round"/>
<path d="M268.047 166.135L257.829 158.392L286.503 161.369L261.122 153.922L287.163 149.752H257.829L280.571 134.256L254.863 145.878L269.693 122.934L249.918 143.492L256.843 113.403L243.986 141.407L242.666 110.125L240.033 142.004L229.815 113.102L235.747 144.685L217.618 121.145L233.108 149.451L209.33 135.409L231.462 153.922L206.923 144.844L229.156 155.711L206.125 153.91L228.496 158.687L212.943 161.891L229.156 160.772L218.278 167.327L243.986 161.073L268.047 166.135Z" fill="#92E3A9"/>
<path d="M234.632 228.813L227.575 239.447C227.039 240.254 226.689 241.15 226.544 242.082C226.399 243.014 226.464 243.963 226.733 244.872L229.875 255.432C230.097 256.182 230.587 256.844 231.269 257.316C231.951 257.787 232.787 258.042 233.645 258.039H265.781C266.64 258.042 267.476 257.787 268.158 257.316C268.84 256.844 269.33 256.182 269.552 255.432L272.694 244.872C272.965 243.963 273.03 243.014 272.885 242.082C272.741 241.149 272.389 240.253 271.852 239.447L264.801 228.813C264.563 228.458 264.227 228.164 263.826 227.96C263.425 227.756 262.973 227.649 262.514 227.649H236.938C236.475 227.644 236.018 227.749 235.614 227.954C235.209 228.158 234.871 228.454 234.632 228.813Z" fill="#263238" stroke="#263238" stroke-linejoin="round"/>
<path d="M213.258 77.9681C213.258 77.9681 213.409 71.6855 213.886 70.7027C214.364 69.72 215.583 68.192 216.513 67.9136C217.935 67.5289 219.329 67.0621 220.685 66.5162C222.035 65.5065 223.325 64.4333 224.55 63.3011C224.55 63.3011 227.02 62.733 227.177 63.4431C227.334 64.1531 223.62 67.2149 223.62 67.2149L225.166 67.783L233.335 67.925L238.123 63.5908C238.123 63.5908 239.82 62.6137 239.669 63.5908C239.518 64.5678 234.875 70.0154 234.416 70.0154C233.957 70.0154 220.503 74.4859 220.503 74.4859L218.957 79.9335L213.258 77.9681Z" fill="white" stroke="#263238" stroke-linecap="round" stroke-linejoin="round"/>
<path d="M227.938 71.6865C227.938 71.6865 231.18 70.8458 231.645 70.1471C232.11 69.4484 235.51 63.3305 235.818 62.8818C236.126 62.433 234.121 62.7454 233.348 62.8818C232.575 63.0181 230.407 69.028 230.407 69.028L227.008 70.0051L227.938 71.6865Z" fill="white" stroke="#263238" stroke-linecap="round" stroke-linejoin="round"/>
<path d="M229.103 70.6161C229.103 70.6161 232.471 70.4287 233.087 69.8379C233.703 69.2472 238.497 63.9075 238.899 63.561C239.302 63.2145 237.272 63.0895 236.486 63.0781C235.701 63.0668 232.15 68.503 232.15 68.503L228.594 68.7984L229.103 70.6161Z" fill="white" stroke="#263238" stroke-linecap="round" stroke-linejoin="round"/>
<path d="M216.034 74.195C216.034 74.195 215.883 71.4002 217.888 70.0028C219.892 68.6054 226.233 68.4691 226.233 68.4691C226.233 68.4691 229.324 63.0215 230.097 63.0215C230.87 63.0215 232.724 62.3228 232.573 63.0215C232.422 63.7202 230.562 66.515 229.789 67.9124C229.016 69.3098 228.709 71.1218 227.936 71.6842C227.163 72.2466 222.682 73.2179 222.682 73.2179" fill="white"/>
<path d="M216.034 74.195C216.034 74.195 215.883 71.4002 217.888 70.0028C219.892 68.6054 226.233 68.4691 226.233 68.4691C226.233 68.4691 229.324 63.0215 230.097 63.0215C230.87 63.0215 232.724 62.3228 232.573 63.0215C232.422 63.7202 230.562 66.515 229.789 67.9124C229.016 69.3098 228.709 71.1218 227.936 71.6842C227.163 72.2466 222.682 73.2179 222.682 73.2179" stroke="#263238" stroke-linecap="round" stroke-linejoin="round"/>
<path d="M210.781 82.5833L212.484 77.4141L220.207 78.5331L218.353 84.9577L210.781 82.5833Z" fill="#92E3A9" stroke="#263238" stroke-linecap="round" stroke-linejoin="round"/>
<path d="M179.75 76.9922C179.75 76.9922 186.549 78.6679 187.787 80.764C189.025 82.8601 199.375 97.9475 199.997 98.9416C200.619 99.9357 201.078 100.759 201.078 100.759C201.078 100.759 208.65 84.1326 208.958 83.1498C209.266 82.1671 211.892 81.8944 212.665 81.8944C213.438 81.8944 220.545 82.3148 220.834 83.9905C221.123 85.6663 211.867 117.505 210.943 118.215C210.02 118.926 207.544 119.193 205.998 118.784C204.452 118.375 184.205 109.127 184.205 109.127L179.75 76.9922Z" fill="#92E3A9" stroke="#263238" stroke-linecap="round" stroke-linejoin="round"/>
<path d="M201.054 100.742C200.017 103.024 199.199 105.383 198.609 107.792" stroke="#263238" stroke-linecap="round" stroke-linejoin="round"/>
<path d="M195.96 107.18C195.809 107.549 195.665 107.941 195.539 108.35" stroke="#263238" stroke-linecap="round" stroke-linejoin="round"/>
<path d="M198.739 102.836C197.9 103.717 197.194 104.695 196.641 105.745" stroke="#263238" stroke-linecap="round" stroke-linejoin="round"/>
<path d="M141.949 131.648L136.426 190.209L133.026 241.089C133.026 241.089 131.141 243.202 131.33 244.162C131.518 245.122 132.586 247.809 132.586 247.809C132.586 247.809 129.4 256.068 130.255 256.642C131.07 257.14 131.92 257.59 132.8 257.988H141.51C141.51 257.988 143.206 256.449 142.999 255.296C142.791 254.142 141.51 247.235 141.51 247.235C142.303 245.995 143.012 244.713 143.633 243.395C143.847 242.628 142.572 238.595 142.572 238.595L162.963 167.941C162.963 167.941 171.666 212.095 173.79 222.275C175.914 232.454 180.074 257.715 180.074 257.715H184.536L185.164 256.011C185.164 256.011 185.378 255.631 187.502 256.778C188.708 257.46 190.115 257.795 191.536 257.738H202.583C202.583 257.738 203.431 256.778 202.797 256.602C202.162 256.426 193.453 251.092 191.963 249.939C190.474 248.786 187.929 245.718 187.929 245.718C187.929 245.718 189.412 242.259 189.412 241.685C189.412 241.111 187.527 237.845 187.527 237.845L186.138 186.403L186.766 133.006L141.949 131.648Z" fill="#263238" stroke="#263238" stroke-linecap="round" stroke-linejoin="round"/>
<path d="M149.072 74.8448L135.656 80.6616L142.154 118.414L141.525 133.399C141.525 133.399 152.661 138.909 165.254 138.551C172.875 138.321 180.383 136.817 187.398 134.115L188.058 101.395C188.058 101.395 186.732 85.4559 185.142 82.8202C183.552 80.1844 182.754 78.9858 180.505 77.4294C178.255 75.8729 171.355 74.0722 171.355 74.0722C171.355 74.0722 158.863 73.1406 158.461 73.1406C158.058 73.1406 149.072 74.8448 149.072 74.8448Z" fill="#263238" stroke="#263238" stroke-linecap="round" stroke-linejoin="round"/>
<path d="M163.703 88.632L171.589 101.521L173.443 86.303L167.876 78.9922L163.766 87.3823L163.703 88.632Z" fill="#92E3A9" stroke="#263238" stroke-linecap="round" stroke-linejoin="round"/>
<path d="M168.438 81.5545L173.176 87.3315L174.414 74.8515L171.529 71.6875L168.438 81.5545Z" fill="#92E3A9" stroke="#263238" stroke-linecap="round" stroke-linejoin="round"/>
<path d="M151.125 61.9922L152.156 72.2398L168.437 81.5501L175.444 64.2303L151.125 61.9922Z" fill="white" stroke="#263238" stroke-linecap="round" stroke-linejoin="round"/>
<path d="M151.741 68.0703C154.144 69.0072 156.748 69.4477 159.363 69.3598C165.019 69.1382 171.579 66.8604 174.903 65.5538L175.444 64.2303L151.125 61.9922L151.741 68.0703Z" fill="#263238" stroke="#263238" stroke-linecap="round" stroke-linejoin="round"/>
<path d="M168.436 81.5545L163.692 88.6323L149.062 74.8515L151.331 71.5L168.436 81.5545Z" fill="#92E3A9" stroke="#263238" stroke-linecap="round" stroke-linejoin="round"/>
<path d="M186.984 122.675C186.984 122.675 193.011 118.062 193.784 118.062C194.557 118.062 198.421 120.715 198.421 120.715C198.421 120.715 202.279 120.301 202.437 121.136C202.594 121.971 201.808 124.351 201.808 124.351L200.878 125.186C200.878 125.186 198.251 128.821 198.251 129.378C198.251 129.935 194.852 129.798 193.306 130.077C191.76 130.355 187.437 129.378 187.437 129.378L186.984 122.675Z" fill="white" stroke="#263238" stroke-linecap="round" stroke-linejoin="round"/>
<path d="M181.109 122.25L188.223 122.392L188.374 129.095L182.504 129.237L181.109 122.25Z" fill="white" stroke="#263238" stroke-linecap="round" stroke-linejoin="round"/>
<path d="M148.333 93.8826C148.325 92.2227 147.9 90.5861 147.09 89.0963C146.28 87.6065 145.107 86.3024 143.658 85.2824C141.182 83.5385 138.103 81.4424 137.047 81.0447C135.193 80.346 134.27 80.6244 131.643 82.3058C129.016 83.9872 128.086 87.4694 128.243 93.201C128.4 98.9326 132.875 129.102 133.34 130.357C133.805 131.612 135.225 131.896 136.431 132.033C137.638 132.169 180.268 130.857 181.091 130.777C184.032 130.499 184.51 126.881 184.34 125.188C184.032 122.115 181.091 121.138 176.611 120.717C172.13 120.297 150.218 117.928 149.414 117.786C148.887 117.682 148.371 117.542 147.868 117.366C147.868 117.366 148.333 101.023 148.333 96.5525C148.333 95.5527 148.333 94.6722 148.333 93.8826Z" fill="#92E3A9" stroke="#263238" stroke-linecap="round" stroke-linejoin="round"/>
<path d="M139.429 122.32C138.936 122.806 138.513 123.346 138.172 123.928" stroke="#263238" stroke-linecap="round" stroke-linejoin="round"/>
<path d="M147.882 117.359C145.556 118.257 143.356 119.401 141.328 120.768" stroke="#263238" stroke-linecap="round" stroke-linejoin="round"/>
<path d="M137.844 120.433C137.844 120.433 141.4 116.105 146.962 117.224" stroke="#263238" stroke-linecap="round" stroke-linejoin="round"/>
<path d="M216.745 48.0625H215.312V60.2585H216.745V48.0625Z" fill="white" stroke="#263238" stroke-linecap="round" stroke-linejoin="round"/>
<path d="M221.443 60.2656H210.609V60.8223H221.443V60.2656Z" fill="white" stroke="#263238" stroke-linecap="round" stroke-linejoin="round"/>
<path d="M216.033 49.1828C214.571 49.1738 213.173 48.6414 212.145 47.7023C211.116 46.7632 210.542 45.4939 210.547 44.1726L211.615 35.1406H220.45L221.55 44.1726C221.553 44.8293 221.412 45.4799 221.136 46.0873C220.86 46.6947 220.454 47.2469 219.941 47.7123C219.429 48.1777 218.82 48.5471 218.149 48.7994C217.478 49.0518 216.759 49.182 216.033 49.1828Z" fill="white" stroke="#263238" stroke-linecap="round" stroke-linejoin="round"/>
<path d="M234.139 28.582L233.63 18.0391H229.288L228.766 28.582C228.725 29.5954 228.513 30.5972 228.138 31.5529L225.624 37.8015C225.134 39.0116 224.883 40.2902 224.883 41.579V61.9662H238.079V41.5676C238.079 40.2789 237.828 39.0002 237.338 37.7901L234.824 31.5416C234.431 30.5921 234.2 29.5942 234.139 28.582Z" fill="#263238" stroke="#263238" stroke-linecap="round" stroke-linejoin="round"/>
<path d="M237.393 43.8438H225.453V58.4085H237.393V43.8438Z" fill="white" stroke="#263238" stroke-linecap="round" stroke-linejoin="round"/>
<path d="M234.085 27.321C234.081 27.2908 234.081 27.2603 234.085 27.2301L233.676 18.8855C233.666 18.6569 233.559 18.4408 233.376 18.2828C233.193 18.1249 232.949 18.0374 232.696 18.0391H230.226C229.974 18.0402 229.732 18.1286 229.55 18.286C229.367 18.4434 229.259 18.6579 229.246 18.8855L228.844 27.2301C228.844 27.2301 228.844 27.2926 228.844 27.321H234.085Z" fill="#8C8C8C" stroke="#263238" stroke-linecap="round" stroke-linejoin="round"/>
<path d="M257.61 63.0195H199.037L195.945 60.7812H261.317L257.61 63.0195Z" fill="#8C8C8C" stroke="#263238" stroke-linecap="round" stroke-linejoin="round"/>
<path d="M156.609 118.234L156.817 151.448H187.614L188.224 122.398L156.609 118.234Z" fill="white" stroke="#263238" stroke-linecap="round" stroke-linejoin="round"/>
<path d="M165.932 39.6281C167.006 39.9039 168.003 40.3828 168.856 41.033C169.71 41.6833 170.401 42.4901 170.884 43.4C172.769 46.6208 177.846 60.0438 178.004 61.8615C178.161 63.6793 175.993 64.2417 173.517 65.6391C171.041 67.0365 162.997 68.1555 158.511 66.7752C154.024 65.3948 153.094 63.1397 153.094 63.1397C153.094 63.1397 151.391 64.9574 148.142 62.9976C144.893 61.0379 144.278 58.3851 145.516 57.4024C146.754 56.4196 148.764 57.266 148.764 57.266C148.764 57.266 145.358 49.711 145.666 47.0412C145.974 44.3713 146.131 41.7299 151.083 39.9122C156.035 38.0944 165.932 39.6281 165.932 39.6281Z" fill="white" stroke="#263238" stroke-linecap="round" stroke-linejoin="round"/>
<path d="M166.062 45.6562C166.062 45.6562 166.691 47.474 167.451 47.758C168.212 48.0421 172.252 46.9173 172.56 48.4567C172.868 49.9961 171.303 52.5126 171.303 52.5126" stroke="#263238" stroke-linecap="round" stroke-linejoin="round"/>
<path d="M172.564 55.0312C172.564 55.0312 168.693 58.1046 164.828 55.3096" stroke="#263238" stroke-linecap="round" stroke-linejoin="round"/>
<path d="M158.484 50.1319L162.814 48.7344" stroke="#263238" stroke-linecap="round" stroke-linejoin="round"/>
<path d="M161.423 44.5367C161.423 44.5367 158.023 42.8324 156.32 45.9398" stroke="#263238" stroke-linecap="round" stroke-linejoin="round"/>
<path d="M165.93 44.2621C165.93 44.2621 167.476 41.7455 170.266 43.8417" stroke="#263238" stroke-linecap="round" stroke-linejoin="round"/>
<path d="M161.319 49.6736C161.394 49.8725 161.105 50.1338 160.69 50.2417C160.276 50.3497 159.861 50.3099 159.792 50.1111C159.723 49.9122 159.999 49.6509 160.42 49.543C160.841 49.4351 161.243 49.4748 161.319 49.6736Z" fill="#263238" stroke="#263238" stroke-linecap="round" stroke-linejoin="round"/>
<path d="M147.507 55.031C147.507 55.031 148.43 57.9678 149.052 58.1041C149.675 58.2405 152.301 58.6722 152.144 57.2691C151.987 55.866 149.21 50.9751 149.517 49.3164C149.825 47.6577 153.382 45.2606 152.609 44.2835C151.836 43.3065 150.598 43.4428 151.063 42.7441C151.528 42.0454 158.95 39.8073 161.746 39.8073C164.542 39.8073 165.768 39.671 167.006 38.8303C168.244 37.9895 170.097 34.6324 164.373 34.496C158.648 34.3597 149.216 37.8532 145.967 41.7671C142.718 45.6809 144.264 48.7597 145.188 50.2878C146.112 51.8158 147.507 55.031 147.507 55.031Z" fill="#263238" stroke="#263238" stroke-linecap="round" stroke-linejoin="round"/>
<path d="M168.94 84.3794L162.719 83.1808L164.001 89.0828L169.172 85.5098L174.935 87.8786L173.873 81.8516L168.94 84.3794Z" fill="#263238" stroke="#263238" stroke-linecap="round" stroke-linejoin="round"/>
<path d="M100.344 113.926L102.373 123.242C102.373 123.242 103.467 124.651 107.055 126.082C110.643 127.514 112.365 126.36 112.365 124.105C112.365 121.85 111.108 109.711 111.108 109.711L100.344 113.926Z" fill="white" stroke="#263238" stroke-linecap="round" stroke-linejoin="round"/>
<path d="M100.985 117.307L111.523 114.706L111.114 109.695L100.344 113.927L100.985 117.307Z" fill="#263238" stroke="#263238" stroke-linecap="round" stroke-linejoin="round"/>
<path d="M44.6521 105.742L39.625 118.586L43.3954 121.125C43.3954 121.125 46.5373 121.409 48.5482 120.137C50.559 118.864 55.5736 108.429 55.5736 108.429L44.6521 105.742Z" fill="white" stroke="#263238" stroke-linecap="round" stroke-linejoin="round"/>
<path d="M43.5156 108.526L54.0538 111.366L55.5494 108.429L44.4708 105.305L43.5156 108.526Z" fill="#263238" stroke="#263238" stroke-linecap="round" stroke-linejoin="round"/>
<path d="M83.2812 179.965C83.2812 179.965 84.7391 196.518 84.7391 200.097C84.7391 203.675 83.0739 211.571 84.1107 215.9C85.1476 220.228 88.6917 233.583 88.6917 237.912C88.6917 242.24 85.9896 249.954 87.4349 251.459C88.8802 252.965 91.6012 253.34 92.4307 254.868C93.2601 256.396 93.6874 256.748 95.139 257.316C96.5906 257.884 102.422 258.253 103.673 257.884C104.923 257.515 104.301 256.566 102.215 253.908C100.128 251.249 95.3464 246.194 94.5169 243.939C93.6875 241.683 98.8843 223.619 99.0916 216.104C99.299 208.589 98.8843 198.983 98.8843 198.983C98.8843 198.983 101.593 182.05 101.593 178.664L83.2812 179.965Z" fill="white" stroke="#263238" stroke-linecap="round" stroke-linejoin="round"/>
<path d="M83.8091 186.183C89.6717 185.878 95.4806 185 101.134 183.564C101.41 181.366 101.599 179.542 101.599 178.656L83.2812 179.974C83.2812 179.974 83.52 182.689 83.8091 186.183Z" fill="#263238" stroke="#263238" stroke-linecap="round" stroke-linejoin="round"/>
<path d="M98.4706 195.211C98.4706 195.211 98.2632 200.102 96.3906 202.732" stroke="#263238" stroke-linecap="round" stroke-linejoin="round"/>
<path d="M103.668 257.857C104.924 257.482 104.296 256.539 102.21 253.881C101.851 253.426 101.405 252.898 100.921 252.324C98.4519 253.739 94.8638 252.858 93.4687 251.438C92.2119 250.143 88.9883 246.99 87.5367 245.57C87.0277 248.291 86.6884 250.683 87.4299 251.438C88.8877 252.944 91.5961 253.318 92.4256 254.847C93.2551 256.375 93.6824 256.727 95.134 257.295C96.5856 257.863 102.417 258.232 103.668 257.857Z" fill="#263238" stroke="#263238" stroke-linecap="round" stroke-linejoin="round"/>
<path d="M63.4963 180.34C63.4963 180.34 66.6382 198.023 67.0341 198.591C67.43 199.159 67.0341 214.769 69.1141 220.041C71.1941 225.312 76.6046 241.865 76.8119 244.467C77.0193 247.069 70.1572 252.397 67.2666 254.09C64.376 255.782 63.4963 256.93 65.3814 257.498C67.2666 258.066 73.915 257.498 76.6171 257.31C79.3192 257.123 82.9513 258.026 83.5734 257.276C84.1955 256.527 83.2781 245.83 83.2781 242.632C83.2781 239.434 84.1076 216.667 82.8634 209.146C81.6191 201.625 80.3498 195.03 80.3498 195.03L80.7708 179.607L62.4531 179.039L63.4963 180.34Z" fill="white" stroke="#263238" stroke-linecap="round" stroke-linejoin="round"/>
<path d="M63.501 180.341C63.501 180.341 63.8089 182.091 64.2425 184.499C69.57 185.779 75.0698 186.375 80.5807 186.272L80.763 179.591L62.4453 179.023L63.501 180.341Z" fill="#263238" stroke="#263238" stroke-linecap="round" stroke-linejoin="round"/>
<path d="M67.6719 194.828C67.6719 194.828 68.0866 200.475 70.5876 203.11" stroke="#263238" stroke-linecap="round" stroke-linejoin="round"/>
<path d="M83.5759 257.26C83.8147 256.97 83.8084 255.311 83.7141 253.187C80.4716 253.607 74.7469 253.34 74.7469 253.34C73.2891 250.704 70.9766 251.835 70.9766 251.835H70.5493C69.4948 252.652 68.3868 253.41 67.2314 254.107C64.3156 255.811 63.461 256.947 65.3462 257.515C67.2314 258.083 73.7604 258.044 76.4625 257.856C79.1645 257.669 82.9852 258.009 83.5759 257.26Z" fill="#263238" stroke="#263238" stroke-linecap="round" stroke-linejoin="round"/>
<path d="M53.519 165.286L52.8906 180.527C52.8906 180.527 67.0483 184.1 79.1198 184.293C91.1912 184.486 107.008 179.965 107.008 179.965L106.172 163.219L53.9338 162.469L53.519 165.286Z" fill="#92E3A9" stroke="#263238" stroke-linecap="round" stroke-linejoin="round"/>
<path d="M63.9665 121.266C63.9665 121.266 52.2595 148.168 49.3438 168.487C49.3438 168.487 66.4109 172.816 83.277 172.066C100.143 171.316 110.128 167.175 110.128 167.175C110.128 167.175 104.925 135.933 96.3036 122.958L63.9665 121.266Z" fill="#263238" stroke="#263238" stroke-linecap="round" stroke-linejoin="round"/>
<path d="M86.3936 39.4202C86.3936 39.4202 85.5579 34.5293 80.1474 35.4723C74.7369 36.4152 74.9443 38.108 74.1148 39.8008C73.2853 41.4936 61.415 43.5613 58.7129 49.9575C56.0108 56.3537 62.6655 58.4271 62.6655 61.8127C62.6655 65.1983 54.3393 67.834 56.2119 71.7819C58.0845 75.7299 64.9528 76.4854 64.3307 77.8032C63.7086 79.1211 58.7129 81.2115 62.4455 84.1995C66.1782 87.1874 83.0506 90.2208 91.98 88.7155C100.91 87.2101 103.222 80.8139 101.557 78.7462C99.8915 76.6785 98.641 75.7356 99.8915 73.6338C101.142 71.532 107.589 69.4984 105.509 63.852C103.429 58.2056 97.8367 57.2967 98.0566 54.0986C98.2765 50.9005 104.504 48.8328 99.3134 44.3168C94.1229 39.8008 86.3936 39.4202 86.3936 39.4202Z" fill="#263238" stroke="#263238" stroke-linecap="round" stroke-linejoin="round"/>
<path d="M71.4629 78.9375L54.6094 83.3115L63.9724 121.268C63.9724 121.268 68.3712 123.808 77.8662 124.376C84.0481 124.658 90.2439 124.182 96.2844 122.961L105.497 84.7202L89.4161 80.0679L71.4629 78.9375Z" fill="white"/>
<path d="M68.1909 79.7812L67.5625 79.9403L74.1921 124.032L74.8204 124.112L68.1909 79.7812Z" fill="#92E3A9"/>
<path d="M71.8877 78.9659L71.4667 78.9375L71.2656 78.9886L76.6007 124.273L77.2291 124.319L71.8877 78.9659Z" fill="#92E3A9"/>
<path d="M76.2925 79.2351L75.6641 79.1953L79.5475 124.446H80.1759L76.2925 79.2351Z" fill="#92E3A9"/>
<path d="M64.3628 80.7734L63.7344 80.9325L72.0794 123.701L72.7078 123.809L64.3628 80.7734Z" fill="#92E3A9"/>
<path d="M60.3594 81.8118L69.3643 123.132L70.0366 123.285L60.9878 81.6641L60.3594 81.8118Z" fill="#92E3A9"/>
<path d="M85.0112 79.782L84.3828 79.7422L85.206 124.357L85.8344 124.323L85.0112 79.782Z" fill="#92E3A9"/>
<path d="M66.2095 122.223C66.4232 122.302 66.6557 122.382 66.9008 122.462L57.5503 82.5391L56.9219 82.6981L66.2095 122.223Z" fill="#92E3A9"/>
<path d="M100.086 83.1484L94.0469 123.378L94.6753 123.27L100.67 83.3245L100.086 83.1484Z" fill="#92E3A9"/>
<path d="M103.476 84.137L102.848 83.9609L95.1562 123.156L95.7846 123.026L103.476 84.137Z" fill="#92E3A9"/>
<path d="M97.0384 82.2698L96.41 82.0938L91.3828 123.777L92.0112 123.692L97.0384 82.2698Z" fill="#92E3A9"/>
<path d="M89.4815 80.0788H89.4124L88.8594 80.0391L86.5469 124.267L87.1753 124.222L89.4815 80.0788Z" fill="#92E3A9"/>
<path d="M82.0202 124.467H82.6486L80.9331 79.5398L80.3047 79.5L82.0202 124.467Z" fill="#92E3A9"/>
<path d="M93.1245 81.1349L92.4961 80.9531L89.1719 124.04L89.8003 123.971L93.1245 81.1349Z" fill="#92E3A9"/>
<path d="M95.7317 92.2189L89.5696 91.9221C88.5819 91.8745 87.7386 92.5597 87.686 93.4526L87.6569 93.9461C87.6042 94.8389 88.3623 95.6013 89.35 95.6489L95.512 95.9457C96.4997 95.9932 97.3431 95.308 97.3957 94.4152L97.4248 93.9217C97.4774 93.0288 96.7194 92.2665 95.7317 92.2189Z" fill="#92E3A9" stroke="#263238" stroke-linecap="round" stroke-linejoin="round"/>
<path d="M71.4629 78.9375L54.6094 83.3115L63.9724 121.268C63.9724 121.268 68.3712 123.808 77.8662 124.376C84.0481 124.658 90.2439 124.182 96.2844 122.961L105.497 84.7202L89.4161 80.0679L71.4629 78.9375Z" stroke="#263238" stroke-linecap="round" stroke-linejoin="round"/>
<path d="M73.2188 68.3594L73.5769 76.3745L79.842 80.7599L86.0882 76.3348L88.5955 68.8933L80.3133 71.1371L73.2188 68.3594Z" fill="white" stroke="#263238" stroke-linecap="round" stroke-linejoin="round"/>
<path d="M88.5955 68.8884L80.3133 71.1606L73.2188 68.3828L73.401 72.4671C74.8903 74.2848 76.411 75.739 77.429 76.1367C79.9426 77.0967 81.3313 76.6706 82.1608 75.9208C82.7892 75.3528 85.9626 73.5918 88.3253 69.7121L88.5955 68.8884Z" fill="#263238" stroke="#263238" stroke-linecap="round" stroke-linejoin="round"/>
<path d="M77 82.7925L78.7721 85.1442L77.5907 105.56L81.0154 105.668L79.8341 85.2522L82.6744 82.0427L79.5513 79.3672L77 82.7925Z" fill="#92E3A9" stroke="#263238" stroke-linecap="round" stroke-linejoin="round"/>
<path d="M72.8932 74.125L79.4033 79.3624L75.3816 85.4576L69.8203 78.9364L72.8932 74.125Z" fill="white"/>
<path d="M70.0859 78.5247L75.8232 84.796L76.1625 84.2791L70.419 78.0078L70.0859 78.5247Z" fill="#92E3A9"/>
<path d="M71.355 76.5391L71.0156 77.073L76.5015 83.759L76.8471 83.2307L71.355 76.5391Z" fill="#92E3A9"/>
<path d="M73.0661 74.2613L72.8964 74.125L72.5822 74.6192L78.4074 80.4815L77.5277 81.4471L72.1612 75.2781L71.8281 75.8064L77.4711 82.2935L78.8976 80.1293L73.0661 74.2613Z" fill="#92E3A9"/>
<path d="M72.8932 74.125L79.4033 79.3624L75.3816 85.4576L69.8203 78.9364L72.8932 74.125Z" stroke="#263238" stroke-linecap="round" stroke-linejoin="round"/>
<path d="M86.8189 74.125L79.5547 79.3624L84.0477 85.4576L90.2562 78.9364L86.8189 74.125Z" fill="white"/>
<path d="M89.9585 78.5247L83.5552 84.796L83.1719 84.2791L89.5878 78.0078L89.9585 78.5247Z" fill="#92E3A9"/>
<path d="M88.5457 76.5391L88.9227 77.073L82.7896 83.759L82.4062 83.2307L88.5457 76.5391Z" fill="#92E3A9"/>
<path d="M86.6399 74.2613L86.8221 74.125L87.1803 74.6192L80.6702 80.4815L81.6505 81.4471L87.6453 75.2781L88.0224 75.8064L81.7133 82.2935L80.1172 80.1293L86.6399 74.2613Z" fill="#92E3A9"/>
<path d="M86.8189 74.125L79.5547 79.3624L84.0477 85.4576L90.2562 78.9364L86.8189 74.125Z" stroke="#263238" stroke-linecap="round" stroke-linejoin="round"/>
<path d="M69.5419 56.5579C69.5419 56.5579 67.5436 54.9901 66.7141 56.8079C65.8846 58.6256 69.0831 63.3291 70.0257 63.1189C70.9683 62.9087 70.3839 56.8079 70.3839 56.8079L69.5419 56.5579Z" fill="white" stroke="#263238" stroke-linecap="round" stroke-linejoin="round"/>
<path d="M93.268 56.7705C93.268 56.7705 95.4736 55.447 96.0392 57.3386C96.6048 59.2302 92.7653 63.5303 91.8604 63.2065C90.9555 62.8827 92.4008 56.9125 92.4008 56.9125L93.268 56.7705Z" fill="white" stroke="#263238" stroke-linecap="round" stroke-linejoin="round"/>
<path d="M76.6466 42.06C76.6466 42.06 71.0916 43.6676 70.2621 48.1552C69.5081 52.2281 69.1939 59.7036 70.0233 63.1233C70.8528 66.5429 76.3073 73.8139 78.7769 74.7739C81.2465 75.7339 82.6792 75.3079 83.5087 74.5581C84.3382 73.8082 89.535 71.0305 91.5458 64.0833C93.5567 57.136 93.3242 52.0066 92.0234 46.7635C91.2191 43.5313 82.6792 39.6004 76.6466 42.06Z" fill="white" stroke="#263238" stroke-linecap="round" stroke-linejoin="round"/>
<path d="M92.023 46.7635C91.2186 43.5313 82.6788 39.6004 76.6462 42.06C76.6462 42.06 71.0912 43.6676 70.2617 48.1552C69.8014 50.9386 69.5599 53.748 69.5391 56.5623C69.8156 55.6989 70.2114 54.2901 70.6136 52.4326C71.3237 49.1152 72.8633 46.4454 75.4648 46.2295C78.0664 46.0136 79.1283 47.0873 83.3889 46.8714C87.6494 46.6555 89.0444 46.3374 90.8353 48.1552C92.6262 49.9729 92.3749 55.9602 92.8462 57.67C93.2392 54.0183 92.9611 50.333 92.023 46.7635Z" fill="#263238" stroke="#263238" stroke-linecap="round" stroke-linejoin="round"/>
<path d="M82.7996 59.8047L82.5608 62.2643C82.5608 62.2643 83.8616 63.0142 83.5097 63.8719C83.1578 64.7297 81.7313 65.15 81.1406 64.6161" stroke="#263238" stroke-linecap="round" stroke-linejoin="round"/>
<path d="M77.3594 67.2847C77.3594 67.2847 80.1997 68.6709 82.0912 68.4607C83.4262 68.2292 84.6816 67.7153 85.7547 66.9609" stroke="#263238" stroke-linecap="round" stroke-linejoin="round"/>
<path d="M77.4771 58.7874C77.4771 59.4634 77.1314 60.0145 76.7041 60.0145C76.2768 60.0145 75.9375 59.4464 75.9375 58.7874C75.9375 58.1285 76.2831 57.5547 76.7041 57.5547C77.1252 57.5547 77.4771 58.1057 77.4771 58.7874Z" fill="#263238"/>
<path d="M87.2896 59.1567C87.2896 59.8384 86.9439 60.3895 86.5229 60.3895C86.1019 60.3895 85.75 59.8214 85.75 59.1567C85.75 58.4921 86.0956 57.9297 86.5229 57.9297C86.9502 57.9297 87.2896 58.4807 87.2896 59.1567Z" fill="#263238"/>
<path d="M74.2812 55.741C74.2812 55.741 76.1664 53.4686 79.4843 54.8888" stroke="#263238" stroke-linecap="round" stroke-linejoin="round"/>
<path d="M84.3281 55.3169C84.3281 55.3169 87.5204 53.3911 90.6121 56.2769" stroke="#263238" stroke-linecap="round" stroke-linejoin="round"/>
<path d="M54.6088 83.3047L42.2734 106.447L57.5748 109.975L59.4474 103.482L54.6088 83.3047Z" fill="white"/>
<path d="M54.9425 84.7188L44.1719 106.89L44.7877 107.032L55.1688 85.6617L54.9425 84.7188Z" fill="#92E3A9"/>
<path d="M55.8332 88.4437L55.6007 87.4609C52.6095 94.1696 48.6883 102.798 46.5078 107.428L47.1362 107.564C49.5807 102.412 53.7972 93.0278 55.8332 88.4437Z" fill="#92E3A9"/>
<path d="M56.6802 91.9557L56.4414 90.9844L48.7812 107.952L49.3908 108.094L56.6802 91.9557Z" fill="#92E3A9"/>
<path d="M58.798 105.714L59.4453 103.487L59.4076 103.328L55.9766 109.611L56.5987 109.753L58.798 105.714Z" fill="#92E3A9"/>
<path d="M58.6598 100.188L58.421 99.2109L53.9531 109.146L54.5627 109.282L58.6598 100.188Z" fill="#92E3A9"/>
<path d="M57.5968 95.7796L57.358 94.7969L51.25 108.515L51.8595 108.657L57.5968 95.7796Z" fill="#92E3A9"/>
<path d="M54.6088 83.3047L42.2734 106.447L57.5748 109.975L59.4474 103.482L54.6088 83.3047Z" stroke="#263238" stroke-linecap="round" stroke-linejoin="round"/>
<path d="M105.492 84.7188L115.635 111.105L99.8684 116.331L98.7812 112.661L105.492 84.7188Z" fill="white"/>
<path d="M101.925 99.5781L101.68 100.595L107.172 113.91L107.756 113.717L101.925 99.5781Z" fill="#92E3A9"/>
<path d="M101.042 103.258L100.797 104.275L105.089 114.602L105.679 114.403L101.042 103.258Z" fill="#92E3A9"/>
<path d="M100.314 106.273L100.062 107.319L103.173 115.232L103.764 115.038L100.314 106.273Z" fill="#92E3A9"/>
<path d="M102.084 115.597L99.5263 109.57L99.2812 110.576L101.499 115.79L102.084 115.597Z" fill="#92E3A9"/>
<path d="M104.345 89.5312L104.094 90.5878L112.42 112.179L113.011 111.981L104.345 89.5312Z" fill="#92E3A9"/>
<path d="M105.186 86L104.922 87.085L113.946 111.664L114.536 111.471L105.186 86Z" fill="#92E3A9"/>
<path d="M103.658 92.3359L103.406 93.3925L110.815 112.7L111.399 112.502L103.658 92.3359Z" fill="#92E3A9"/>
<path d="M102.661 96.4922L102.422 97.4919L109.234 113.227L109.824 113.034L102.661 96.4922Z" fill="#92E3A9"/>
<path d="M105.492 84.7188L115.635 111.105L99.8684 116.331L98.7812 112.661L105.492 84.7188Z" stroke="#263238" stroke-linecap="round" stroke-linejoin="round"/>
<path d="M60.0695 96.2891L57.7255 98.1409L54.7595 103.929L56.4813 108.303C56.4813 108.303 40.7149 116.489 39.7786 117.335C38.8423 118.182 38.5218 123.964 40.5578 126.788C42.5938 129.611 51.1714 121.141 51.1714 121.141L65.2223 104.071C65.2223 104.071 68.6533 100.402 67.7359 99.4133C66.8184 98.4249 66.0203 97.7092 65.549 97.7092C65.0778 97.7092 63.9906 97.8512 63.9906 97.8512L60.0695 96.2891Z" fill="white" stroke="#263238" stroke-linecap="round" stroke-linejoin="round"/>
<path d="M60.3935 92.2693L63.9753 98.9723L65.3829 99.3983L61.4052 91.8489C61.3715 91.7827 61.3223 91.7238 61.261 91.6763C61.1997 91.6289 61.1278 91.594 61.0502 91.574C60.9726 91.554 60.8911 91.5495 60.8114 91.5607C60.7317 91.5718 60.6556 91.5985 60.5883 91.6388C60.4793 91.7067 60.4002 91.8069 60.3646 91.9221C60.329 92.0374 60.3392 92.1602 60.3935 92.2693Z" fill="white" stroke="#263238" stroke-linecap="round" stroke-linejoin="round"/>
<path d="M55.5469 101.231L58.3558 108.428L66.9397 109.837L69.5915 108.428L66.6255 100.242L55.5469 101.231Z" fill="white" stroke="#263238" stroke-linecap="round" stroke-linejoin="round"/>
<path d="M64.4385 102.637L53.1966 101.791C53.1966 101.791 51.6382 100.802 53.6679 99.6717C54.775 99.0015 56.1279 98.7487 57.4382 98.9674L65.4 99.3934L64.4385 102.637Z" fill="white" stroke="#263238" stroke-linecap="round" stroke-linejoin="round"/>
<path d="M69.5893 106.868L67.0757 99.671C67.0757 99.671 64.5622 98.9666 63.7955 100.239C63.657 100.432 63.5632 100.649 63.5198 100.876C63.4764 101.103 63.4843 101.335 63.543 101.559C63.6017 101.783 63.7101 101.994 63.8615 102.179C64.0129 102.364 64.2042 102.52 64.4239 102.636C64.8889 102.92 66.4474 101.932 66.4474 101.932L68.1691 107.715L69.5893 106.868Z" fill="white" stroke="#263238" stroke-linecap="round" stroke-linejoin="round"/>
<path d="M111.734 120.561C112.097 121.947 112.255 123.37 112.205 124.793C112.205 127.634 111.426 129.735 109.396 129.735C107.367 129.735 98.7829 127.463 94.8806 125.64C90.9783 123.816 75.2119 116.75 75.2119 116.75C75.2119 116.75 69.5877 116.182 68.0293 115.903C65.9747 115.45 64.0214 114.682 62.2544 113.631C60.6897 112.643 59.9105 109.82 59.9105 109.82C59.9105 109.82 57.1016 108.269 57.1016 107.547C57.1016 106.826 64.7491 108.252 66.1567 108.252C67.5643 108.252 69.5877 106.837 69.5877 106.837L68.8085 104.156C68.8085 104.156 71.6175 105.145 72.3967 105.991C73.1759 106.837 75.9911 111.637 76.4561 112.2C76.9211 112.762 89.4136 117.454 95.8169 118.022C102.22 118.59 108.46 119.431 108.46 119.431" fill="white"/>
<path d="M111.734 120.561C112.097 121.947 112.255 123.37 112.205 124.793C112.205 127.634 111.426 129.735 109.396 129.735C107.367 129.735 98.7829 127.463 94.8806 125.64C90.9783 123.816 75.2119 116.75 75.2119 116.75C75.2119 116.75 69.5877 116.182 68.0293 115.903C65.9747 115.45 64.0214 114.682 62.2544 113.631C60.6897 112.643 59.9105 109.82 59.9105 109.82C59.9105 109.82 57.1016 108.269 57.1016 107.547C57.1016 106.826 64.7491 108.252 66.1567 108.252C67.5643 108.252 69.5877 106.837 69.5877 106.837L68.8085 104.156C68.8085 104.156 71.6175 105.145 72.3967 105.991C73.1759 106.837 75.9911 111.637 76.4561 112.2C76.9211 112.762 89.4136 117.454 95.8169 118.022C102.22 118.59 108.46 119.431 108.46 119.431" stroke="#263238" stroke-linecap="round" stroke-linejoin="round"/>
<path d="M6.07114 258.039H1" stroke="#263238" stroke-linecap="round" stroke-linejoin="round"/>
<path d="M298.313 258.039H11.8594" stroke="#263238" stroke-linecap="round" stroke-linejoin="round"/>
</svg>
