<svg width="187" height="100" viewBox="0 0 187 100" fill="none" xmlns="http://www.w3.org/2000/svg">
<path d="M64.793 54.8672V76H59.6172V54.8672H64.793ZM59.2656 49.3398C59.2656 48.5716 59.526 47.9336 60.0469 47.4258C60.5807 46.918 61.2969 46.6641 62.1953 46.6641C63.0938 46.6641 63.8034 46.918 64.3242 47.4258C64.8581 47.9336 65.125 48.5716 65.125 49.3398C65.125 50.0951 64.8581 50.7266 64.3242 51.2344C63.8034 51.7422 63.0938 51.9961 62.1953 51.9961C61.2969 51.9961 60.5807 51.7422 60.0469 51.2344C59.526 50.7266 59.2656 50.0951 59.2656 49.3398ZM86.2773 71.9375V76H70.3789V71.9375H86.2773ZM85.9062 57.9531L72.3125 76H68.9141V72.8164L82.4297 54.8672H85.9062V57.9531ZM84.0117 54.8672V58.9492H69.1875V54.8672H84.0117ZM95.0078 46V76H89.832V46H95.0078ZM94.1875 64.6719H92.6641C92.6641 63.2005 92.8594 61.8464 93.25 60.6094C93.6406 59.3724 94.194 58.2982 94.9102 57.3867C95.6263 56.4622 96.4792 55.7461 97.4688 55.2383C98.4714 54.7305 99.5781 54.4766 100.789 54.4766C101.831 54.4766 102.775 54.6263 103.621 54.9258C104.48 55.2122 105.216 55.6745 105.828 56.3125C106.44 56.9505 106.909 57.7839 107.234 58.8125C107.573 59.8281 107.742 61.0651 107.742 62.5234V76H102.547V62.4844C102.547 61.5078 102.404 60.7396 102.117 60.1797C101.831 59.6068 101.421 59.1966 100.887 58.9492C100.366 58.7018 99.7214 58.5781 98.9531 58.5781C98.1198 58.5781 97.4036 58.7409 96.8047 59.0664C96.2057 59.3789 95.7109 59.8151 95.3203 60.375C94.9427 60.9349 94.6562 61.5794 94.4609 62.3086C94.2786 63.0378 94.1875 63.8255 94.1875 64.6719ZM123.934 71.5078V61.7617C123.934 61.0456 123.81 60.4271 123.562 59.9062C123.315 59.3854 122.938 58.9818 122.43 58.6953C121.922 58.4089 121.277 58.2656 120.496 58.2656C119.806 58.2656 119.201 58.3828 118.68 58.6172C118.172 58.8516 117.781 59.1836 117.508 59.6133C117.234 60.0299 117.098 60.5117 117.098 61.0586H111.922C111.922 60.1862 112.13 59.3594 112.547 58.5781C112.964 57.7839 113.556 57.0807 114.324 56.4688C115.105 55.8438 116.036 55.3555 117.117 55.0039C118.211 54.6523 119.435 54.4766 120.789 54.4766C122.391 54.4766 123.816 54.75 125.066 55.2969C126.329 55.8307 127.319 56.638 128.035 57.7188C128.764 58.7995 129.129 60.1602 129.129 61.8008V71.0195C129.129 72.0742 129.194 72.9792 129.324 73.7344C129.467 74.4766 129.676 75.1211 129.949 75.668V76H124.695C124.448 75.4661 124.259 74.7891 124.129 73.9688C123.999 73.1354 123.934 72.3151 123.934 71.5078ZM124.656 63.1289L124.695 66.1953H121.434C120.626 66.1953 119.917 66.2799 119.305 66.4492C118.693 66.6055 118.191 66.8398 117.801 67.1523C117.41 67.4518 117.117 67.8164 116.922 68.2461C116.727 68.6628 116.629 69.138 116.629 69.6719C116.629 70.1927 116.746 70.6615 116.98 71.0781C117.228 71.4948 117.579 71.8268 118.035 72.0742C118.504 72.3086 119.051 72.4258 119.676 72.4258C120.587 72.4258 121.382 72.2435 122.059 71.8789C122.736 71.5013 123.263 71.0456 123.641 70.5117C124.018 69.9779 124.22 69.4701 124.246 68.9883L125.73 71.2148C125.548 71.7487 125.275 72.3151 124.91 72.9141C124.546 73.513 124.077 74.0729 123.504 74.5938C122.931 75.1146 122.241 75.5443 121.434 75.8828C120.626 76.2214 119.689 76.3906 118.621 76.3906C117.254 76.3906 116.03 76.1172 114.949 75.5703C113.868 75.0234 113.016 74.2747 112.391 73.3242C111.766 72.3737 111.453 71.293 111.453 70.082C111.453 68.9622 111.661 67.9727 112.078 67.1133C112.495 66.2539 113.113 65.5312 113.934 64.9453C114.754 64.3464 115.77 63.8971 116.98 63.5977C118.204 63.2852 119.604 63.1289 121.18 63.1289H124.656ZM145.418 71.5078V61.7617C145.418 61.0456 145.294 60.4271 145.047 59.9062C144.799 59.3854 144.422 58.9818 143.914 58.6953C143.406 58.4089 142.762 58.2656 141.98 58.2656C141.29 58.2656 140.685 58.3828 140.164 58.6172C139.656 58.8516 139.266 59.1836 138.992 59.6133C138.719 60.0299 138.582 60.5117 138.582 61.0586H133.406C133.406 60.1862 133.615 59.3594 134.031 58.5781C134.448 57.7839 135.04 57.0807 135.809 56.4688C136.59 55.8438 137.521 55.3555 138.602 55.0039C139.695 54.6523 140.919 54.4766 142.273 54.4766C143.875 54.4766 145.301 54.75 146.551 55.2969C147.814 55.8307 148.803 56.638 149.52 57.7188C150.249 58.7995 150.613 60.1602 150.613 61.8008V71.0195C150.613 72.0742 150.678 72.9792 150.809 73.7344C150.952 74.4766 151.16 75.1211 151.434 75.668V76H146.18C145.932 75.4661 145.743 74.7891 145.613 73.9688C145.483 73.1354 145.418 72.3151 145.418 71.5078ZM146.141 63.1289L146.18 66.1953H142.918C142.111 66.1953 141.401 66.2799 140.789 66.4492C140.177 66.6055 139.676 66.8398 139.285 67.1523C138.895 67.4518 138.602 67.8164 138.406 68.2461C138.211 68.6628 138.113 69.138 138.113 69.6719C138.113 70.1927 138.23 70.6615 138.465 71.0781C138.712 71.4948 139.064 71.8268 139.52 72.0742C139.988 72.3086 140.535 72.4258 141.16 72.4258C142.072 72.4258 142.866 72.2435 143.543 71.8789C144.22 71.5013 144.747 71.0456 145.125 70.5117C145.503 69.9779 145.704 69.4701 145.73 68.9883L147.215 71.2148C147.033 71.7487 146.759 72.3151 146.395 72.9141C146.03 73.513 145.561 74.0729 144.988 74.5938C144.415 75.1146 143.725 75.5443 142.918 75.8828C142.111 76.2214 141.173 76.3906 140.105 76.3906C138.738 76.3906 137.514 76.1172 136.434 75.5703C135.353 75.0234 134.5 74.2747 133.875 73.3242C133.25 72.3737 132.938 71.293 132.938 70.082C132.938 68.9622 133.146 67.9727 133.562 67.1133C133.979 66.2539 134.598 65.5312 135.418 64.9453C136.238 64.3464 137.254 63.8971 138.465 63.5977C139.689 63.2852 141.089 63.1289 142.664 63.1289H146.141Z" fill="#253C51"/>
<path d="M34.252 56.7646C40.2101 48.8669 36.0853 35.046 67.7089 6.41692L81 16.289C81 16.289 63.1258 36.0332 62.6675 36.5268C62.2092 37.0204 56.2511 31.0972 56.2511 31.0972C54.4178 34.2562 41.7715 49.3605 41.7715 77.0023C20.6891 60.2198 32.6052 62.1942 17.4809 49.8541C14.6276 47.526 22.9807 41.9564 22.9807 41.9564L17.9392 26.1611C17.9392 26.1611 4.91997 27.6419 0.336838 21.225C-1.95473 18.757 7.89139 -2.3266 16.3778 1.97442C19.0141 3.31053 16.8361 4.93605 21.8776 7.40407C26.919 9.8721 36.0853 0 36.0853 0V12.3402L27.3773 19.2506C27.3773 19.2506 30.5855 55.7774 34.252 56.7646Z" fill="#1DA86B"/>
</svg>
